SeanSans-CompressedBold.ufo
<glyph name="exclam" format="1">
  <advance width="247"/>
  <unicode hex="0021"/>
  <outline>
    <contour>
      <point x="182" y="229" type="line"/>
      <point x="189" y="722" type="line"/>
      <point x="58" y="722" type="line"/>
      <point x="66" y="229" type="line"/>
    </contour>
    <contour>
      <point x="181" y="49" type="curve"/>
      <point x="181" y="88"/>
      <point x="157" y="108"/>
      <point x="123" y="108" type="curve"/>
      <point x="88" y="108"/>
      <point x="66" y="86"/>
      <point x="66" y="49" type="curve"/>
      <point x="182" y="49"/>
      <point x="65" y="49"/>
      <point x="181" y="49" type="curve"/>
      <point x="181" y="10"/>
      <point x="157" y="-8"/>
      <point x="123" y="-8" type="curve"/>
      <point x="87" y="-8"/>
      <point x="66" y="12"/>
      <point x="66" y="49" type="curve"/>
      <point x="182" y="49"/>
      <point x="65" y="49"/>
    </contour>
  </outline>
</glyph>
<glyph name="quotedbl" format="1">
  <advance width="370"/>
  <unicode hex="0022"/>
  <outline>
    <contour>
      <point x="151" y="626" type="line"/>
      <point x="159" y="834" type="line"/>
      <point x="48" y="834" type="line"/>
      <point x="56" y="626" type="line"/>
    </contour>
    <contour>
      <point x="314" y="626" type="line"/>
      <point x="322" y="834" type="line"/>
      <point x="211" y="834" type="line"/>
      <point x="219" y="626" type="line"/>
    </contour>
  </outline>
</glyph>
<glyph name="numbersign" format="1">
  <advance width="503"/>
  <unicode hex="0023"/>
  <outline>
    <contour>
      <point x="37" y="225" type="curve"/>
      <point x="405" y="225" type="curve"/>
      <point x="425" y="313" type="curve"/>
      <point x="57" y="313" type="curve"/>
    </contour>
    <contour>
      <point x="80" y="445" type="curve"/>
      <point x="449" y="445" type="curve"/>
      <point x="469" y="533" type="curve"/>
      <point x="98" y="533" type="curve"/>
    </contour>
    <contour>
      <point x="327" y="39" type="curve"/>
      <point x="468" y="722" type="curve"/>
      <point x="356" y="722" type="curve"/>
      <point x="215" y="39" type="curve"/>
    </contour>
    <contour>
      <point x="145" y="46" type="curve"/>
      <point x="286" y="722" type="curve"/>
      <point x="174" y="722" type="curve"/>
      <point x="38" y="46" type="curve"/>
    </contour>
  </outline>
</glyph>
<glyph name="dollar" format="1">
  <advance width="429"/>
  <unicode hex="0024"/>
  <outline>
    <contour>
      <point x="256" y="-43" type="curve"/>
      <point x="256" y="-12"/>
      <point x="256" y="56"/>
      <point x="256" y="87" type="curve"/>
      <point x="144" y="87"/>
      <point x="256" y="87"/>
      <point x="144" y="87" type="curve"/>
      <point x="144" y="56"/>
      <point x="144" y="-12"/>
      <point x="144" y="-43" type="curve"/>
      <point x="256" y="-43"/>
      <point x="144" y="-43"/>
    </contour>
    <contour>
      <point x="264" y="642" type="curve"/>
      <point x="264" y="673"/>
      <point x="264" y="742"/>
      <point x="264" y="773" type="curve"/>
      <point x="152" y="773"/>
      <point x="264" y="773"/>
      <point x="152" y="773" type="curve"/>
      <point x="152" y="742"/>
      <point x="152" y="673"/>
      <point x="152" y="642" type="curve"/>
      <point x="264" y="642"/>
      <point x="152" y="642"/>
    </contour>
    <contour>
      <point x="46" y="93" type="curve"/>
      <point x="85" y="65"/>
      <point x="136" y="44"/>
      <point x="195" y="44" type="curve"/>
      <point x="313" y="44"/>
      <point x="396" y="115"/>
      <point x="396" y="215" type="curve"/>
      <point x="396" y="303"/>
      <point x="328" y="363"/>
      <point x="242" y="413" type="curve"/>
      <point x="190" y="445"/>
      <point x="152" y="471"/>
      <point x="152" y="526" type="curve"/>
      <point x="152" y="563"/>
      <point x="170" y="599"/>
      <point x="209" y="599" type="curve"/>
      <point x="248" y="599"/>
      <point x="274" y="583"/>
      <point x="303" y="560" type="curve"/>
      <point x="361" y="635"/>
      <point x="303" y="560"/>
      <point x="361" y="635" type="curve"/>
      <point x="314" y="668"/>
      <point x="273" y="687"/>
      <point x="213" y="687" type="curve"/>
      <point x="108" y="687"/>
      <point x="40" y="618"/>
      <point x="40" y="526" type="curve"/>
      <point x="40" y="439"/>
      <point x="92" y="382"/>
      <point x="176" y="333" type="curve"/>
      <point x="232" y="302"/>
      <point x="284" y="271"/>
      <point x="284" y="211" type="curve"/>
      <point x="284" y="166"/>
      <point x="253" y="131"/>
      <point x="205" y="131" type="curve"/>
      <point x="165" y="131"/>
      <point x="133" y="154"/>
      <point x="109" y="171" type="curve"/>
      <point x="46" y="93"/>
      <point x="109" y="171"/>
    </contour>
  </outline>
</glyph>
<glyph name="percent" format="1">
  <advance width="870"/>
  <unicode hex="0025"/>
  <outline>
    <contour>
      <point x="351" y="-50" type="line"/>
      <point x="629" y="720" type="line"/>
      <point x="526" y="720" type="line"/>
      <point x="248" y="-50" type="line"/>
    </contour>
    <contour>
      <point x="121" y="510" type="curve"/>
      <point x="121" y="582"/>
      <point x="129" y="645"/>
      <point x="191" y="645" type="curve"/>
      <point x="252" y="646"/>
      <point x="261" y="583"/>
      <point x="261" y="509" type="curve"/>
      <point x="261" y="436"/>
      <point x="257" y="371"/>
      <point x="196" y="371" type="curve"/>
      <point x="132" y="371"/>
      <point x="121" y="435"/>
      <point x="121" y="510" type="curve"/>
      <point x="87" y="510"/>
      <point x="63" y="510"/>
      <point x="29" y="510" type="curve"/>
      <point x="29" y="386"/>
      <point x="78" y="293"/>
      <point x="192" y="293" type="curve"/>
      <point x="307" y="293"/>
      <point x="358" y="387"/>
      <point x="358" y="513" type="curve"/>
      <point x="358" y="634"/>
      <point x="307" y="724"/>
      <point x="195" y="723" type="curve"/>
      <point x="81" y="723"/>
      <point x="29" y="633"/>
      <point x="29" y="510" type="curve"/>
      <point x="63" y="510"/>
      <point x="87" y="510"/>
    </contour>
    <contour>
      <point x="604" y="167" type="curve"/>
      <point x="604" y="239"/>
      <point x="612" y="302"/>
      <point x="674" y="302" type="curve"/>
      <point x="735" y="303"/>
      <point x="744" y="240"/>
      <point x="744" y="166" type="curve"/>
      <point x="744" y="93"/>
      <point x="740" y="28"/>
      <point x="679" y="28" type="curve"/>
      <point x="615" y="28"/>
      <point x="604" y="92"/>
      <point x="604" y="167" type="curve"/>
      <point x="570" y="167"/>
      <point x="546" y="167"/>
      <point x="512" y="167" type="curve"/>
      <point x="512" y="43"/>
      <point x="561" y="-50"/>
      <point x="675" y="-50" type="curve"/>
      <point x="790" y="-50"/>
      <point x="841" y="44"/>
      <point x="841" y="170" type="curve"/>
      <point x="841" y="292"/>
      <point x="790" y="381"/>
      <point x="678" y="380" type="curve"/>
      <point x="564" y="380"/>
      <point x="512" y="290"/>
      <point x="512" y="167" type="curve"/>
      <point x="546" y="167"/>
      <point x="570" y="167"/>
    </contour>
  </outline>
</glyph>
<glyph name="ampersand" format="1">
  <advance width="534"/>
  <unicode hex="0026"/>
  <outline>
    <contour>
      <point x="506" y="30" type="line"/>
      <point x="438" y="133"/>
      <point x="360" y="265"/>
      <point x="287" y="371" type="curve"/>
      <point x="248" y="430"/>
      <point x="196" y="484"/>
      <point x="196" y="556" type="curve"/>
      <point x="196" y="596"/>
      <point x="200" y="639"/>
      <point x="232" y="639" type="curve"/>
      <point x="265" y="639"/>
      <point x="269" y="599"/>
      <point x="269" y="558" type="curve"/>
      <point x="269" y="497"/>
      <point x="241" y="451"/>
      <point x="192" y="412" type="curve"/>
      <point x="114" y="350"/>
      <point x="49" y="293"/>
      <point x="49" y="195" type="curve"/>
      <point x="49" y="81"/>
      <point x="116" y="-5"/>
      <point x="226" y="-5" type="curve"/>
      <point x="388" y="-5"/>
      <point x="450" y="143"/>
      <point x="486" y="314" type="curve"/>
      <point x="389" y="336"/>
      <point x="486" y="314"/>
      <point x="389" y="336" type="curve"/>
      <point x="363" y="211"/>
      <point x="345" y="84"/>
      <point x="232" y="84" type="curve"/>
      <point x="181" y="84"/>
      <point x="161" y="136"/>
      <point x="161" y="195" type="curve"/>
      <point x="161" y="257"/>
      <point x="191" y="301"/>
      <point x="240" y="341" type="curve"/>
      <point x="317" y="403"/>
      <point x="380" y="461"/>
      <point x="381" y="558" type="curve"/>
      <point x="381" y="655"/>
      <point x="327" y="727"/>
      <point x="236" y="727" type="curve"/>
      <point x="144" y="727"/>
      <point x="93" y="653"/>
      <point x="93" y="556" type="curve"/>
      <point x="93" y="461"/>
      <point x="152" y="395"/>
      <point x="206" y="317" type="curve"/>
      <point x="274" y="216"/>
      <point x="356" y="78"/>
      <point x="420" y="-19" type="curve"/>
    </contour>
  </outline>
</glyph>
<glyph name="parenleft" format="1">
  <advance width="289"/>
  <unicode hex="0028"/>
  <outline>
    <contour>
      <point x="287" y="-212" type="curve"/>
      <point x="169" y="-37"/>
      <point x="148" y="117"/>
      <point x="148" y="326" type="curve"/>
      <point x="148" y="536"/>
      <point x="170" y="690"/>
      <point x="286" y="868" type="curve"/>
      <point x="219" y="924"/>
      <point x="286" y="868"/>
      <point x="219" y="924" type="curve"/>
      <point x="86" y="727"/>
      <point x="39" y="563"/>
      <point x="39" y="326" type="curve"/>
      <point x="39" y="89"/>
      <point x="87" y="-76"/>
      <point x="220" y="-274" type="curve"/>
      <point x="287" y="-212"/>
      <point x="220" y="-274"/>
    </contour>
  </outline>
</glyph>
<glyph name="asterisk" format="1">
  <advance width="546"/>
  <unicode hex="002A"/>
  <outline>
    <contour>
      <point x="307" y="549" type="line"/>
      <point x="313" y="757" type="line"/>
      <point x="233" y="757" type="line"/>
      <point x="239" y="549" type="line"/>
    </contour>
    <contour>
      <point x="302" y="503" type="line"/>
      <point x="500" y="567" type="line"/>
      <point x="473" y="642" type="line"/>
      <point x="279" y="567" type="line"/>
    </contour>
    <contour>
      <point x="258" y="493" type="line"/>
      <point x="385" y="327" type="line"/>
      <point x="446" y="378" type="line"/>
      <point x="310" y="536" type="line"/>
    </contour>
    <contour>
      <point x="235" y="537" type="line"/>
      <point x="99" y="378" type="line"/>
      <point x="160" y="328" type="line"/>
      <point x="288" y="494" type="line"/>
    </contour>
    <contour>
      <point x="267" y="568" type="line"/>
      <point x="72" y="643" type="line"/>
      <point x="45" y="568" type="line"/>
      <point x="243" y="503" type="line"/>
    </contour>
  </outline>
</glyph>
<glyph name="plus" format="1">
  <advance width="568"/>
  <unicode hex="002B"/>
  <outline>
    <contour>
      <point x="36" y="266" type="curve"/>
      <point x="533" y="266" type="line"/>
      <point x="533" y="362"/>
      <point x="533" y="266"/>
      <point x="533" y="362" type="curve"/>
      <point x="36" y="362" type="line"/>
      <point x="36" y="266"/>
      <point x="36" y="362"/>
    </contour>
    <contour>
      <point x="336" y="53" type="curve"/>
      <point x="336" y="579" type="line"/>
      <point x="224" y="579"/>
      <point x="344" y="579"/>
      <point x="232" y="579" type="curve"/>
      <point x="232" y="53" type="line"/>
      <point x="344" y="53"/>
      <point x="224" y="53"/>
    </contour>
  </outline>
</glyph>
<glyph name="comma" format="1">
  <advance width="188"/>
  <unicode hex="002C"/>
  <outline>
    <contour>
      <point x="16" y="-114" type="line"/>
      <point x="92" y="-108"/>
      <point x="142" y="-49"/>
      <point x="142" y="42" type="curve"/>
      <point x="142" y="116"/>
      <point x="117" y="152"/>
      <point x="80" y="152" type="curve"/>
      <point x="44" y="152"/>
      <point x="22" y="132"/>
      <point x="22" y="94" type="curve"/>
      <point x="22" y="64"/>
      <point x="36" y="40"/>
      <point x="66" y="38" type="curve"/>
      <point x="67" y="16"/>
      <point x="65" y="-36"/>
      <point x="12" y="-51" type="curve"/>
    </contour>
  </outline>
</glyph>
<glyph name="hyphen" format="1">
  <advance width="310"/>
  <unicode hex="002D"/>
  <outline>
    <contour>
      <point x="60" y="232" type="curve"/>
      <point x="123" y="232"/>
      <point x="187" y="232"/>
      <point x="250" y="232" type="curve"/>
      <point x="250" y="329"/>
      <point x="250" y="232"/>
      <point x="250" y="329" type="curve"/>
      <point x="187" y="329"/>
      <point x="123" y="329"/>
      <point x="60" y="329" type="curve"/>
      <point x="60" y="232"/>
      <point x="60" y="329"/>
    </contour>
  </outline>
</glyph>
<glyph name="period" format="1">
  <advance width="218"/>
  <unicode hex="002E"/>
  <outline>
    <contour>
      <point x="167" y="49" type="curve"/>
      <point x="167" y="88"/>
      <point x="142" y="108"/>
      <point x="108" y="108" type="curve"/>
      <point x="74" y="108"/>
      <point x="51" y="86"/>
      <point x="51" y="49" type="curve"/>
      <point x="168" y="49"/>
      <point x="50" y="49"/>
      <point x="167" y="49" type="curve"/>
      <point x="167" y="10"/>
      <point x="143" y="-8"/>
      <point x="108" y="-8" type="curve"/>
      <point x="73" y="-8"/>
      <point x="51" y="12"/>
      <point x="51" y="49" type="curve"/>
      <point x="168" y="49"/>
      <point x="50" y="49"/>
    </contour>
  </outline>
</glyph>
<glyph name="slash" format="1">
  <advance width="431"/>
  <unicode hex="002F"/>
  <outline>
    <contour>
      <point x="133" y="-27" type="curve"/>
      <point x="225" y="248"/>
      <point x="318" y="523"/>
      <point x="410" y="797" type="curve"/>
      <point x="298" y="797"/>
      <point x="410" y="797"/>
      <point x="298" y="797" type="curve"/>
      <point x="206" y="523"/>
      <point x="113" y="248"/>
      <point x="21" y="-27" type="curve"/>
      <point x="133" y="-27"/>
      <point x="21" y="-27"/>
    </contour>
  </outline>
</glyph>
<glyph name="zero" format="1">
  <advance width="534"/>
  <unicode hex="0030"/>
  <outline>
    <contour>
      <point x="157" y="360" type="curve"/>
      <point x="157" y="506"/>
      <point x="161" y="635"/>
      <point x="264" y="635" type="curve"/>
      <point x="371" y="635"/>
      <point x="378" y="508"/>
      <point x="378" y="363" type="curve"/>
      <point x="378" y="218"/>
      <point x="374" y="87"/>
      <point x="272" y="87" type="curve"/>
      <point x="166" y="87"/>
      <point x="157" y="215"/>
      <point x="157" y="360" type="curve"/>
      <point x="48" y="360"/>
      <point x="157" y="360"/>
      <point x="48" y="360" type="curve"/>
      <point x="48" y="157"/>
      <point x="96" y="-5"/>
      <point x="267" y="-5" type="curve"/>
      <point x="440" y="-5"/>
      <point x="487" y="157"/>
      <point x="487" y="363" type="curve"/>
      <point x="487" y="565"/>
      <point x="442" y="727"/>
      <point x="274" y="727" type="curve"/>
      <point x="100" y="727"/>
      <point x="48" y="565"/>
      <point x="48" y="360" type="curve"/>
      <point x="157" y="360"/>
      <point x="48" y="360"/>
    </contour>
  </outline>
</glyph>
<glyph name="one" format="1">
  <advance width="324"/>
  <unicode hex="0031"/>
  <outline>
    <contour>
      <point x="81" y="495" type="curve"/>
      <point x="231" y="665"/>
      <point x="81" y="495"/>
      <point x="231" y="665" type="curve"/>
      <point x="149" y="722"/>
      <point x="231" y="665"/>
      <point x="149" y="722" type="curve"/>
      <point x="11" y="562"/>
      <point x="149" y="722"/>
      <point x="11" y="562" type="curve"/>
      <point x="81" y="495"/>
      <point x="11" y="562"/>
    </contour>
    <contour>
      <point x="257" y="0" type="curve"/>
      <point x="257" y="241"/>
      <point x="257" y="481"/>
      <point x="257" y="722" type="curve"/>
      <point x="149" y="722"/>
      <point x="257" y="722"/>
      <point x="149" y="722" type="curve"/>
      <point x="149" y="481"/>
      <point x="149" y="241"/>
      <point x="149" y="0" type="curve"/>
      <point x="257" y="0"/>
      <point x="149" y="0"/>
    </contour>
  </outline>
</glyph>
<glyph name="two" format="1">
  <advance width="431"/>
  <unicode hex="0032"/>
  <outline>
    <contour>
      <point x="38" y="0" type="curve"/>
      <point x="178" y="0"/>
      <point x="303" y="0"/>
      <point x="390" y="0" type="curve"/>
      <point x="390" y="88"/>
      <point x="390" y="0"/>
      <point x="390" y="88" type="curve"/>
      <point x="286" y="88"/>
      <point x="145" y="89"/>
      <point x="39" y="89" type="curve"/>
      <point x="38" y="0"/>
      <point x="39" y="88"/>
    </contour>
    <contour>
      <point x="117" y="531" type="curve"/>
      <point x="141" y="585"/>
      <point x="154" y="635"/>
      <point x="209" y="635" type="curve"/>
      <point x="264" y="635"/>
      <point x="275" y="577"/>
      <point x="275" y="508" type="curve"/>
      <point x="275" y="410"/>
      <point x="231" y="333"/>
      <point x="181" y="270" type="curve"/>
      <point x="134" y="208"/>
      <point x="90" y="151"/>
      <point x="39" y="89" type="curve"/>
      <point x="41" y="0"/>
      <point x="39" y="88"/>
      <point x="41" y="0" type="curve"/>
      <point x="146" y="58"/>
      <point x="201" y="136"/>
      <point x="254" y="206" type="curve"/>
      <point x="327" y="293"/>
      <point x="383" y="385"/>
      <point x="383" y="513" type="curve"/>
      <point x="383" y="639"/>
      <point x="331" y="727"/>
      <point x="213" y="727" type="curve"/>
      <point x="121" y="727"/>
      <point x="67" y="663"/>
      <point x="38" y="575" type="curve"/>
      <point x="117" y="531"/>
      <point x="38" y="575"/>
    </contour>
  </outline>
</glyph>
<glyph name="three" format="1">
  <advance width="421"/>
  <unicode hex="0033"/>
  <outline>
    <contour>
      <point x="36" y="60" type="curve"/>
      <point x="85" y="20"/>
      <point x="120" y="-5"/>
      <point x="179" y="-5" type="curve"/>
      <point x="306" y="-5"/>
      <point x="376" y="75"/>
      <point x="376" y="204" type="curve"/>
      <point x="376" y="322"/>
      <point x="279" y="401"/>
      <point x="121" y="401" type="curve"/>
      <point x="121" y="331"/>
      <point x="121" y="398"/>
      <point x="121" y="327" type="curve"/>
      <point x="213" y="327"/>
      <point x="268" y="271"/>
      <point x="268" y="200" type="curve"/>
      <point x="268" y="137"/>
      <point x="238" y="87"/>
      <point x="184" y="87" type="curve"/>
      <point x="147" y="87"/>
      <point x="126" y="101"/>
      <point x="99" y="124" type="curve"/>
      <point x="36" y="60"/>
      <point x="99" y="124"/>
    </contour>
    <contour>
      <point x="112" y="579" type="curve"/>
      <point x="122" y="602"/>
      <point x="144" y="635"/>
      <point x="177" y="635" type="curve"/>
      <point x="228" y="635"/>
      <point x="247" y="590"/>
      <point x="247" y="531" type="curve"/>
      <point x="247" y="469"/>
      <point x="201" y="419"/>
      <point x="121" y="419" type="curve"/>
      <point x="121" y="348"/>
      <point x="121" y="416"/>
      <point x="121" y="345" type="curve"/>
      <point x="259" y="345"/>
      <point x="353" y="419"/>
      <point x="353" y="534" type="curve"/>
      <point x="353" y="650"/>
      <point x="295" y="727"/>
      <point x="188" y="727" type="curve"/>
      <point x="119" y="727"/>
      <point x="63" y="682"/>
      <point x="37" y="633" type="curve"/>
      <point x="112" y="579"/>
      <point x="37" y="633"/>
    </contour>
  </outline>
</glyph>
<glyph name="four" format="1">
  <advance width="437"/>
  <unicode hex="0034"/>
  <outline>
    <contour>
      <point x="62" y="257" type="line"/>
      <point x="315" y="706" type="line"/>
      <point x="221" y="702" type="line"/>
      <point x="13" y="333" type="line"/>
    </contour>
    <contour>
      <point x="404" y="333" type="line"/>
      <point x="13" y="333" type="line"/>
      <point x="14" y="236" type="line"/>
      <point x="404" y="236" type="line"/>
    </contour>
    <contour>
      <point x="333" y="0" type="line"/>
      <point x="333" y="702" type="line"/>
      <point x="223" y="702" type="line"/>
      <point x="223" y="0" type="line"/>
    </contour>
  </outline>
</glyph>
<glyph name="five" format="1">
  <advance width="414"/>
  <unicode hex="0035"/>
  <outline>
    <contour>
      <point x="55" y="722" type="curve"/>
      <point x="55" y="623"/>
      <point x="55" y="517"/>
      <point x="55" y="386" type="curve"/>
      <point x="162" y="350"/>
      <point x="55" y="386"/>
      <point x="161" y="350" type="curve"/>
      <point x="161" y="443"/>
      <point x="161" y="542"/>
      <point x="161" y="634" type="curve"/>
      <point x="55" y="722"/>
      <point x="161" y="634"/>
    </contour>
    <contour>
      <point x="161" y="350" type="curve"/>
      <point x="167" y="358"/>
      <point x="180" y="368"/>
      <point x="201" y="368" type="curve"/>
      <point x="258" y="368"/>
      <point x="266" y="304"/>
      <point x="266" y="236" type="curve"/>
      <point x="266" y="162"/>
      <point x="247" y="87"/>
      <point x="187" y="87" type="curve"/>
      <point x="150" y="87"/>
      <point x="127" y="99"/>
      <point x="100" y="122" type="curve"/>
      <point x="42" y="43"/>
      <point x="100" y="122"/>
      <point x="42" y="43" type="curve"/>
      <point x="77" y="13"/>
      <point x="135" y="-5"/>
      <point x="195" y="-5" type="curve"/>
      <point x="307" y="-5"/>
      <point x="374" y="104"/>
      <point x="374" y="237" type="curve"/>
      <point x="374" y="360"/>
      <point x="327" y="462"/>
      <point x="220" y="462" type="curve"/>
      <point x="173" y="462"/>
      <point x="136" y="446"/>
      <point x="87" y="386" type="curve"/>
      <point x="165" y="359"/>
      <point x="83" y="377"/>
    </contour>
    <contour>
      <point x="351" y="722" type="curve"/>
      <point x="265" y="722"/>
      <point x="144" y="722"/>
      <point x="55" y="722" type="curve"/>
      <point x="161" y="634"/>
      <point x="55" y="722"/>
      <point x="161" y="634" type="curve"/>
      <point x="215" y="634"/>
      <point x="300" y="634"/>
      <point x="351" y="634" type="curve"/>
      <point x="351" y="722"/>
      <point x="351" y="634"/>
    </contour>
  </outline>
</glyph>
<glyph name="six" format="1">
  <advance width="459"/>
  <unicode hex="0036"/>
  <outline>
    <contour>
      <point x="135" y="213" type="curve"/>
      <point x="145" y="281"/>
      <point x="174" y="348"/>
      <point x="236" y="348" type="curve"/>
      <point x="297" y="348"/>
      <point x="309" y="289"/>
      <point x="309" y="220" type="curve"/>
      <point x="309" y="157"/>
      <point x="295" y="94"/>
      <point x="239" y="94" type="curve"/>
      <point x="169" y="94"/>
      <point x="151" y="168"/>
      <point x="151" y="255" type="curve"/>
      <point x="151" y="441"/>
      <point x="222" y="578"/>
      <point x="398" y="649" type="curve"/>
      <point x="366" y="729"/>
      <point x="398" y="649"/>
      <point x="366" y="729" type="curve"/>
      <point x="148" y="646"/>
      <point x="43" y="486"/>
      <point x="43" y="251" type="curve"/>
      <point x="43" y="102"/>
      <point x="103" y="-10"/>
      <point x="238" y="-10" type="curve"/>
      <point x="361" y="-10"/>
      <point x="421" y="88"/>
      <point x="421" y="220" type="curve"/>
      <point x="421" y="348"/>
      <point x="367" y="440"/>
      <point x="258" y="440" type="curve"/>
      <point x="140" y="440"/>
      <point x="83" y="317"/>
      <point x="85" y="233" type="curve"/>
      <point x="135" y="213"/>
      <point x="86" y="233"/>
    </contour>
  </outline>
</glyph>
<glyph name="seven" format="1">
  <advance width="405"/>
  <unicode hex="0037"/>
  <outline>
    <contour>
      <point x="47" y="634" type="curve"/>
      <point x="390" y="634" type="curve"/>
      <point x="390" y="722" type="curve"/>
      <point x="47" y="722" type="curve"/>
    </contour>
    <contour>
      <point x="317" y="722" type="curve"/>
      <point x="30" y="0" type="curve"/>
      <point x="147" y="0" type="curve"/>
      <point x="390" y="634" type="curve"/>
    </contour>
  </outline>
</glyph>
<glyph name="eight" format="1">
  <advance width="458"/>
  <unicode hex="0038"/>
  <outline>
    <contour>
      <point x="60" y="543" type="curve"/>
      <point x="60" y="447"/>
      <point x="115" y="400"/>
      <point x="196" y="346" type="curve"/>
      <point x="260" y="301"/>
      <point x="302" y="259"/>
      <point x="302" y="188" type="curve"/>
      <point x="302" y="132"/>
      <point x="282" y="88"/>
      <point x="230" y="88" type="curve"/>
      <point x="176" y="88"/>
      <point x="157" y="131"/>
      <point x="157" y="188" type="curve"/>
      <point x="157" y="260"/>
      <point x="198" y="299"/>
      <point x="263" y="344" type="curve"/>
      <point x="342" y="399"/>
      <point x="398" y="446"/>
      <point x="398" y="541" type="curve"/>
      <point x="398" y="655"/>
      <point x="342" y="727"/>
      <point x="230" y="727" type="curve"/>
      <point x="121" y="727"/>
      <point x="60" y="655"/>
      <point x="60" y="543" type="curve"/>
      <point x="169" y="543"/>
      <point x="60" y="543"/>
      <point x="169" y="543" type="curve"/>
      <point x="169" y="592"/>
      <point x="181" y="635"/>
      <point x="227" y="635" type="curve"/>
      <point x="274" y="635"/>
      <point x="289" y="594"/>
      <point x="289" y="541" type="curve"/>
      <point x="289" y="481"/>
      <point x="251" y="446"/>
      <point x="196" y="409" type="curve"/>
      <point x="106" y="348"/>
      <point x="48" y="295"/>
      <point x="48" y="188" type="curve"/>
      <point x="48" y="70"/>
      <point x="109" y="-5"/>
      <point x="225" y="-5" type="curve"/>
      <point x="343" y="-5"/>
      <point x="410" y="69"/>
      <point x="410" y="188" type="curve"/>
      <point x="410" y="294"/>
      <point x="352" y="350"/>
      <point x="264" y="410" type="curve"/>
      <point x="208" y="449"/>
      <point x="169" y="480"/>
      <point x="169" y="543" type="curve"/>
      <point x="60" y="543"/>
      <point x="169" y="543"/>
    </contour>
  </outline>
</glyph>
<glyph name="nine" format="1">
  <advance width="457"/>
  <unicode hex="0039"/>
  <outline>
    <contour>
      <point x="331" y="476" type="curve"/>
      <point x="313" y="412"/>
      <point x="286" y="374"/>
      <point x="223" y="374" type="curve"/>
      <point x="163" y="374"/>
      <point x="143" y="435"/>
      <point x="143" y="507" type="curve"/>
      <point x="143" y="570"/>
      <point x="162" y="628"/>
      <point x="215" y="628" type="curve"/>
      <point x="288" y="628"/>
      <point x="306" y="553"/>
      <point x="306" y="467" type="curve"/>
      <point x="306" y="280"/>
      <point x="239" y="144"/>
      <point x="70" y="70" type="curve"/>
      <point x="117" y="-16"/>
      <point x="70" y="70"/>
      <point x="117" y="-16" type="curve"/>
      <point x="305" y="67"/>
      <point x="413" y="236"/>
      <point x="413" y="471" type="curve"/>
      <point x="413" y="620"/>
      <point x="354" y="732"/>
      <point x="218" y="732" type="curve"/>
      <point x="95" y="732"/>
      <point x="36" y="634"/>
      <point x="36" y="502" type="curve"/>
      <point x="36" y="374"/>
      <point x="94" y="282"/>
      <point x="213" y="282" type="curve"/>
      <point x="316" y="282"/>
      <point x="363" y="385"/>
      <point x="385" y="455" type="curve"/>
      <point x="331" y="476"/>
      <point x="385" y="455"/>
    </contour>
  </outline>
</glyph>
<glyph name="colon" format="1">
  <advance width="233"/>
  <unicode hex="003A"/>
  <outline>
    <contour>
      <point x="173" y="374" type="curve"/>
      <point x="173" y="413"/>
      <point x="148" y="432"/>
      <point x="114" y="432" type="curve"/>
      <point x="80" y="432"/>
      <point x="57" y="411"/>
      <point x="57" y="374" type="curve"/>
      <point x="174" y="374"/>
      <point x="56" y="374"/>
      <point x="173" y="374" type="curve"/>
      <point x="173" y="335"/>
      <point x="149" y="317"/>
      <point x="114" y="317" type="curve"/>
      <point x="79" y="317"/>
      <point x="57" y="336"/>
      <point x="57" y="374" type="curve"/>
      <point x="174" y="374"/>
      <point x="56" y="374"/>
    </contour>
    <contour>
      <point x="173" y="53" type="curve"/>
      <point x="173" y="92"/>
      <point x="148" y="111"/>
      <point x="114" y="111" type="curve"/>
      <point x="80" y="111"/>
      <point x="57" y="90"/>
      <point x="57" y="53" type="curve"/>
      <point x="174" y="53"/>
      <point x="56" y="53"/>
      <point x="173" y="53" type="curve"/>
      <point x="173" y="14"/>
      <point x="149" y="-4"/>
      <point x="114" y="-4" type="curve"/>
      <point x="79" y="-4"/>
      <point x="57" y="15"/>
      <point x="57" y="53" type="curve"/>
      <point x="174" y="53"/>
      <point x="56" y="53"/>
    </contour>
  </outline>
</glyph>
<glyph name="semicolon" format="1">
  <advance width="204"/>
  <unicode hex="003B"/>
  <outline>
    <contour>
      <point x="16" y="-194" type="line"/>
      <point x="100" y="-189"/>
      <point x="154" y="-130"/>
      <point x="154" y="-38" type="curve"/>
      <point x="154" y="35"/>
      <point x="126" y="72"/>
      <point x="86" y="72" type="curve"/>
      <point x="47" y="72"/>
      <point x="22" y="51"/>
      <point x="22" y="13" type="curve"/>
      <point x="22" y="-16"/>
      <point x="38" y="-41"/>
      <point x="71" y="-42" type="curve"/>
      <point x="72" y="-65"/>
      <point x="70" y="-117"/>
      <point x="12" y="-132" type="curve"/>
    </contour>
    <contour>
      <point x="144" y="389" type="curve"/>
      <point x="144" y="427"/>
      <point x="119" y="447"/>
      <point x="85" y="447" type="curve"/>
      <point x="50" y="447"/>
      <point x="28" y="426"/>
      <point x="28" y="389" type="curve"/>
      <point x="144" y="389"/>
      <point x="27" y="389"/>
      <point x="144" y="389" type="curve"/>
      <point x="144" y="350"/>
      <point x="120" y="331"/>
      <point x="85" y="331" type="curve"/>
      <point x="49" y="331"/>
      <point x="28" y="351"/>
      <point x="28" y="389" type="curve"/>
      <point x="144" y="389"/>
      <point x="27" y="389"/>
    </contour>
  </outline>
</glyph>
<glyph name="less" format="1">
  <advance width="478"/>
  <unicode hex="003C"/>
  <outline>
    <contour>
      <point x="425" y="619" type="curve"/>
      <point x="293" y="529"/>
      <point x="161" y="439"/>
      <point x="29" y="349" type="curve"/>
      <point x="29" y="251"/>
      <point x="29" y="349"/>
      <point x="29" y="251" type="curve"/>
      <point x="161" y="341"/>
      <point x="293" y="431"/>
      <point x="425" y="521" type="curve"/>
      <point x="425" y="619"/>
      <point x="425" y="521"/>
    </contour>
    <contour>
      <point x="432" y="85" type="curve"/>
      <point x="297" y="173"/>
      <point x="162" y="261"/>
      <point x="29" y="349" type="curve"/>
      <point x="29" y="251"/>
      <point x="29" y="349"/>
      <point x="29" y="251" type="curve"/>
      <point x="162" y="163"/>
      <point x="297" y="75"/>
      <point x="432" y="-13" type="curve"/>
      <point x="432" y="85"/>
      <point x="432" y="-13"/>
    </contour>
  </outline>
</glyph>
<glyph name="equal" format="1">
  <advance width="514"/>
  <unicode hex="003D"/>
  <outline>
    <contour>
      <point x="55" y="171" type="curve"/>
      <point x="192" y="171"/>
      <point x="328" y="171"/>
      <point x="464" y="171" type="curve"/>
      <point x="464" y="264"/>
      <point x="464" y="171"/>
      <point x="464" y="264" type="curve"/>
      <point x="328" y="264"/>
      <point x="192" y="264"/>
      <point x="55" y="264" type="curve"/>
      <point x="55" y="171"/>
      <point x="55" y="264"/>
    </contour>
    <contour>
      <point x="55" y="393" type="curve"/>
      <point x="192" y="393"/>
      <point x="328" y="393"/>
      <point x="464" y="393" type="curve"/>
      <point x="464" y="486"/>
      <point x="464" y="393"/>
      <point x="464" y="486" type="curve"/>
      <point x="328" y="486"/>
      <point x="192" y="486"/>
      <point x="55" y="486" type="curve"/>
      <point x="55" y="393"/>
      <point x="55" y="486"/>
    </contour>
  </outline>
</glyph>
<glyph name="greater" format="1">
  <advance width="480"/>
  <unicode hex="003E"/>
  <outline>
    <contour>
      <point x="53" y="-13" type="curve"/>
      <point x="185" y="77"/>
      <point x="318" y="167"/>
      <point x="450" y="257" type="curve"/>
      <point x="450" y="355"/>
      <point x="450" y="257"/>
      <point x="450" y="355" type="curve"/>
      <point x="318" y="265"/>
      <point x="185" y="175"/>
      <point x="53" y="85" type="curve"/>
      <point x="53" y="-13"/>
      <point x="53" y="85"/>
    </contour>
    <contour>
      <point x="47" y="521" type="curve"/>
      <point x="181" y="433"/>
      <point x="315" y="345"/>
      <point x="450" y="257" type="curve"/>
      <point x="450" y="355"/>
      <point x="450" y="257"/>
      <point x="450" y="355" type="curve"/>
      <point x="315" y="443"/>
      <point x="181" y="531"/>
      <point x="47" y="619" type="curve"/>
      <point x="47" y="521"/>
      <point x="47" y="619"/>
    </contour>
  </outline>
</glyph>
<glyph name="question" format="1">
  <advance width="428"/>
  <unicode hex="003F"/>
  <outline>
    <contour>
      <point x="163" y="368" type="curve"/>
      <point x="163" y="331"/>
      <point x="163" y="258"/>
      <point x="163" y="221" type="curve"/>
      <point x="263" y="221"/>
      <point x="163" y="221"/>
      <point x="263" y="221" type="curve"/>
      <point x="263" y="258"/>
      <point x="263" y="331"/>
      <point x="263" y="368" type="curve"/>
      <point x="163" y="368"/>
      <point x="263" y="368"/>
    </contour>
    <contour>
      <point x="102" y="593" type="line"/>
      <point x="129" y="627"/>
      <point x="152" y="647"/>
      <point x="193" y="647" type="curve"/>
      <point x="259" y="647"/>
      <point x="285" y="589"/>
      <point x="285" y="518" type="curve"/>
      <point x="285" y="434"/>
      <point x="249" y="368"/>
      <point x="174" y="368" type="curve"/>
      <point x="174" y="333"/>
      <point x="173" y="319"/>
      <point x="173" y="284" type="curve"/>
      <point x="312" y="284"/>
      <point x="392" y="379"/>
      <point x="392" y="518" type="curve"/>
      <point x="392" y="652"/>
      <point x="319" y="741"/>
      <point x="198" y="741" type="curve"/>
      <point x="127" y="741"/>
      <point x="76" y="715"/>
      <point x="42" y="665" type="curve"/>
    </contour>
    <contour>
      <point x="271" y="55" type="curve"/>
      <point x="271" y="93"/>
      <point x="247" y="113"/>
      <point x="213" y="113" type="curve"/>
      <point x="178" y="113"/>
      <point x="155" y="92"/>
      <point x="155" y="55" type="curve"/>
      <point x="271" y="55"/>
      <point x="155" y="55"/>
      <point x="271" y="55" type="curve"/>
      <point x="271" y="15"/>
      <point x="247" y="-3"/>
      <point x="213" y="-3" type="curve"/>
      <point x="177" y="-3"/>
      <point x="155" y="17"/>
      <point x="155" y="55" type="curve"/>
      <point x="271" y="55"/>
      <point x="155" y="55"/>
    </contour>
  </outline>
</glyph>
<glyph name="at" format="1">
  <advance width="633"/>
  <unicode hex="0040"/>
  <outline>
    <contour>
      <point x="409" y="-31" type="curve"/>
      <point x="384" y="-52"/>
      <point x="363" y="-60"/>
      <point x="330" y="-60" type="curve"/>
      <point x="201" y="-60"/>
      <point x="140" y="59"/>
      <point x="140" y="207" type="curve"/>
      <point x="140" y="348"/>
      <point x="196" y="463"/>
      <point x="320" y="463" type="curve"/>
      <point x="439" y="463"/>
      <point x="494" y="349"/>
      <point x="494" y="211" type="curve"/>
      <point x="494" y="155"/>
      <point x="496" y="105"/>
      <point x="475" y="105" type="curve"/>
      <point x="454" y="105"/>
      <point x="458" y="153"/>
      <point x="458" y="211" type="curve"/>
      <point x="458" y="318"/>
      <point x="415" y="400"/>
      <point x="318" y="400" type="curve"/>
      <point x="212" y="400"/>
      <point x="178" y="320"/>
      <point x="178" y="208" type="curve"/>
      <point x="178" y="93"/>
      <point x="207" y="9"/>
      <point x="309" y="9" type="curve"/>
      <point x="403" y="9"/>
      <point x="432" y="90"/>
      <point x="442" y="193" type="curve"/>
      <point x="371" y="210"/>
      <point x="442" y="193"/>
      <point x="371" y="210" type="curve"/>
      <point x="362" y="156"/>
      <point x="370" y="97"/>
      <point x="321" y="97" type="curve"/>
      <point x="280" y="97"/>
      <point x="276" y="151"/>
      <point x="276" y="213" type="curve"/>
      <point x="276" y="264"/>
      <point x="274" y="311"/>
      <point x="313" y="311" type="curve"/>
      <point x="361" y="311"/>
      <point x="356" y="262"/>
      <point x="356" y="206" type="curve"/>
      <point x="356" y="104"/>
      <point x="376" y="21"/>
      <point x="466" y="21" type="curve"/>
      <point x="561" y="21"/>
      <point x="586" y="106"/>
      <point x="586" y="216" type="curve"/>
      <point x="586" y="411"/>
      <point x="501" y="555"/>
      <point x="322" y="555" type="curve"/>
      <point x="132" y="555"/>
      <point x="43" y="407"/>
      <point x="43" y="202" type="curve"/>
      <point x="43" y="-1"/>
      <point x="137" y="-148"/>
      <point x="325" y="-148" type="curve"/>
      <point x="380" y="-148"/>
      <point x="407" y="-140"/>
      <point x="454" y="-106" type="curve"/>
      <point x="409" y="-31"/>
      <point x="454" y="-106"/>
    </contour>
  </outline>
</glyph>
<glyph name="B" format="1">
  <advance width="493"/>
  <unicode hex="0042"/>
  <outline>
    <contour>
      <point x="130" y="634" type="curve"/>
      <point x="172" y="634"/>
      <point x="195" y="634"/>
      <point x="236" y="634" type="curve"/>
      <point x="292" y="634"/>
      <point x="311" y="594"/>
      <point x="311" y="542" type="curve"/>
      <point x="311" y="491"/>
      <point x="296" y="449"/>
      <point x="246" y="449" type="curve"/>
      <point x="202" y="449"/>
      <point x="175" y="449"/>
      <point x="130" y="449" type="curve"/>
      <point x="130" y="425"/>
      <point x="130" y="385"/>
      <point x="130" y="361" type="curve"/>
      <point x="162" y="361"/>
      <point x="181" y="361"/>
      <point x="213" y="361" type="curve"/>
      <point x="322" y="361"/>
      <point x="421" y="417"/>
      <point x="421" y="536" type="curve"/>
      <point x="421" y="651"/>
      <point x="358" y="722"/>
      <point x="245" y="722" type="curve"/>
      <point x="200" y="722"/>
      <point x="176" y="722"/>
      <point x="130" y="722" type="curve"/>
      <point x="130" y="697"/>
      <point x="130" y="659"/>
    </contour>
    <contour>
      <point x="196" y="0" type="curve"/>
      <point x="196" y="241"/>
      <point x="196" y="481"/>
      <point x="196" y="722" type="curve"/>
      <point x="80" y="722"/>
      <point x="196" y="722"/>
      <point x="80" y="722" type="curve"/>
      <point x="80" y="481"/>
      <point x="80" y="241"/>
      <point x="80" y="0" type="curve"/>
      <point x="196" y="0"/>
      <point x="80" y="0"/>
    </contour>
    <contour>
      <point x="130" y="361" type="curve"/>
      <point x="175" y="361"/>
      <point x="202" y="361"/>
      <point x="246" y="361" type="curve"/>
      <point x="320" y="361"/>
      <point x="342" y="298"/>
      <point x="342" y="222" type="curve"/>
      <point x="342" y="146"/>
      <point x="313" y="88"/>
      <point x="241" y="88" type="curve"/>
      <point x="198" y="88"/>
      <point x="174" y="88"/>
      <point x="130" y="88" type="curve"/>
      <point x="130" y="63"/>
      <point x="130" y="25"/>
      <point x="130" y="0" type="curve"/>
      <point x="178" y="0"/>
      <point x="203" y="0"/>
      <point x="250" y="0" type="curve"/>
      <point x="380" y="0"/>
      <point x="454" y="85"/>
      <point x="454" y="219" type="curve"/>
      <point x="454" y="364"/>
      <point x="357" y="449"/>
      <point x="213" y="449" type="curve"/>
      <point x="181" y="449"/>
      <point x="162" y="449"/>
      <point x="130" y="449" type="curve"/>
      <point x="130" y="425"/>
      <point x="130" y="385"/>
    </contour>
  </outline>
</glyph>
<glyph name="C" format="1">
  <advance width="503"/>
  <unicode hex="0043"/>
  <outline>
    <contour>
      <point x="476" y="654" type="curve"/>
      <point x="428" y="696"/>
      <point x="368" y="727"/>
      <point x="298" y="727" type="curve"/>
      <point x="111" y="727"/>
      <point x="45" y="562"/>
      <point x="45" y="345" type="curve"/>
      <point x="45" y="146"/>
      <point x="111" y="-5"/>
      <point x="286" y="-5" type="curve"/>
      <point x="377" y="-5"/>
      <point x="438" y="31"/>
      <point x="489" y="100" type="curve"/>
      <point x="420" y="163"/>
      <point x="489" y="100"/>
      <point x="420" y="163" type="curve"/>
      <point x="384" y="119"/>
      <point x="350" y="87"/>
      <point x="292" y="87" type="curve"/>
      <point x="175" y="87"/>
      <point x="157" y="208"/>
      <point x="157" y="349" type="curve"/>
      <point x="157" y="503"/>
      <point x="172" y="635"/>
      <point x="294" y="635" type="curve"/>
      <point x="342" y="635"/>
      <point x="383" y="613"/>
      <point x="412" y="585" type="curve"/>
      <point x="476" y="654"/>
      <point x="412" y="585"/>
    </contour>
    <contour>
      <point x="292" y="791" type="move" name="top"/>
    </contour>
    <contour>
      <point x="320" y="2" type="move" name="bottom"/>
    </contour>
  </outline>
</glyph>
<glyph name="D" format="1">
  <advance width="566"/>
  <unicode hex="0044"/>
  <outline>
    <contour>
      <point x="80" y="722" type="curve"/>
      <point x="80" y="481"/>
      <point x="80" y="241"/>
      <point x="80" y="0" type="curve"/>
      <point x="192" y="0"/>
      <point x="80" y="0"/>
      <point x="192" y="0" type="curve"/>
      <point x="192" y="241"/>
      <point x="192" y="481"/>
      <point x="192" y="722" type="curve"/>
      <point x="80" y="722"/>
      <point x="192" y="722"/>
    </contour>
    <contour>
      <point x="137" y="0" type="curve"/>
      <point x="178" y="0"/>
      <point x="215" y="0"/>
      <point x="257" y="0" type="curve"/>
      <point x="448" y="0"/>
      <point x="521" y="145"/>
      <point x="521" y="355" type="curve"/>
      <point x="521" y="571"/>
      <point x="450" y="722"/>
      <point x="255" y="722" type="curve"/>
      <point x="215" y="722"/>
      <point x="178" y="722"/>
      <point x="137" y="722" type="curve"/>
      <point x="137" y="638"/>
      <point x="137" y="718"/>
      <point x="137" y="634" type="curve"/>
      <point x="176" y="634"/>
      <point x="211" y="634"/>
      <point x="250" y="634" type="curve"/>
      <point x="385" y="634"/>
      <point x="409" y="510"/>
      <point x="409" y="353" type="curve"/>
      <point x="409" y="206"/>
      <point x="390" y="88"/>
      <point x="268" y="88" type="curve"/>
      <point x="222" y="88"/>
      <point x="182" y="88"/>
      <point x="137" y="88" type="curve"/>
      <point x="137" y="4"/>
      <point x="137" y="84"/>
    </contour>
    <contour>
      <point x="229" y="791" type="move" name="top"/>
    </contour>
  </outline>
</glyph>
<glyph name="F" format="1">
  <advance width="417"/>
  <unicode hex="0046"/>
  <outline>
    <contour>
      <point x="138" y="329" type="curve"/>
      <point x="208" y="329"/>
      <point x="277" y="329"/>
      <point x="348" y="329" type="curve"/>
      <point x="348" y="417"/>
      <point x="348" y="329"/>
      <point x="348" y="417" type="curve"/>
      <point x="277" y="417"/>
      <point x="208" y="417"/>
      <point x="138" y="417" type="curve"/>
      <point x="138" y="329"/>
      <point x="138" y="417"/>
    </contour>
    <contour>
      <point x="191" y="0" type="curve"/>
      <point x="191" y="722" type="line"/>
      <point x="80" y="722"/>
      <point x="191" y="722"/>
      <point x="80" y="722" type="curve"/>
      <point x="80" y="481"/>
      <point x="80" y="241"/>
      <point x="80" y="0" type="curve"/>
      <point x="191" y="0"/>
      <point x="80" y="0"/>
    </contour>
    <contour>
      <point x="128" y="634" type="curve"/>
      <point x="217" y="634"/>
      <point x="306" y="634"/>
      <point x="396" y="634" type="curve"/>
      <point x="396" y="722"/>
      <point x="396" y="634"/>
      <point x="396" y="722" type="curve"/>
      <point x="306" y="722"/>
      <point x="217" y="722"/>
      <point x="128" y="722" type="curve"/>
      <point x="128" y="634"/>
      <point x="128" y="722"/>
    </contour>
  </outline>
</glyph>
<glyph name="G" format="1">
  <advance width="571"/>
  <unicode hex="0047"/>
  <outline>
    <contour>
      <point x="492" y="357" type="curve"/>
      <point x="445" y="357"/>
      <point x="397" y="357"/>
      <point x="349" y="357" type="curve"/>
      <point x="349" y="269"/>
      <point x="349" y="357"/>
      <point x="349" y="269" type="curve"/>
      <point x="397" y="269"/>
      <point x="445" y="269"/>
      <point x="492" y="269" type="curve"/>
      <point x="492" y="357"/>
      <point x="492" y="269"/>
    </contour>
    <contour>
      <point x="521" y="79" type="curve"/>
      <point x="521" y="171"/>
      <point x="521" y="264"/>
      <point x="521" y="357" type="curve"/>
      <point x="420" y="357"/>
      <point x="521" y="357"/>
      <point x="420" y="357" type="curve"/>
      <point x="420" y="264"/>
      <point x="420" y="171"/>
      <point x="420" y="79" type="curve"/>
      <point x="521" y="79"/>
      <point x="420" y="79"/>
    </contour>
    <contour>
      <point x="511" y="644" type="curve"/>
      <point x="450" y="700"/>
      <point x="388" y="727"/>
      <point x="306" y="727" type="curve"/>
      <point x="119" y="727"/>
      <point x="44" y="571"/>
      <point x="44" y="361" type="curve"/>
      <point x="44" y="149"/>
      <point x="124" y="-5"/>
      <point x="313" y="-5" type="curve"/>
      <point x="400" y="-5"/>
      <point x="453" y="24"/>
      <point x="521" y="79" type="curve"/>
      <point x="465" y="146"/>
      <point x="521" y="79"/>
      <point x="465" y="146" type="curve"/>
      <point x="421" y="108"/>
      <point x="375" y="88"/>
      <point x="313" y="88" type="curve"/>
      <point x="183" y="88"/>
      <point x="156" y="215"/>
      <point x="156" y="370" type="curve"/>
      <point x="156" y="514"/>
      <point x="185" y="635"/>
      <point x="306" y="635" type="curve"/>
      <point x="366" y="635"/>
      <point x="410" y="611"/>
      <point x="453" y="570" type="curve"/>
      <point x="511" y="644"/>
      <point x="453" y="570"/>
    </contour>
    <contour>
      <point x="302" y="791" type="move" name="top"/>
    </contour>
    <contour>
      <point x="340" y="-24" type="move" name="bottom"/>
    </contour>
  </outline>
</glyph>
<glyph name="I" format="1">
  <advance width="271"/>
  <unicode hex="0049"/>
  <outline>
    <contour>
      <point x="192" y="0" type="curve"/>
      <point x="192" y="241"/>
      <point x="192" y="481"/>
      <point x="192" y="722" type="curve"/>
      <point x="80" y="722"/>
      <point x="192" y="722"/>
      <point x="80" y="722" type="curve"/>
      <point x="80" y="481"/>
      <point x="80" y="241"/>
      <point x="80" y="0" type="curve"/>
      <point x="192" y="0"/>
      <point x="80" y="0"/>
    </contour>
    <contour>
      <point x="138" y="791" type="move" name="top"/>
    </contour>
    <contour>
      <point x="182" y="4" type="move" name="bottom"/>
    </contour>
  </outline>
</glyph>
<glyph name="J" format="1">
  <advance width="345"/>
  <unicode hex="004A"/>
  <outline>
    <contour>
      <point x="2" y="43" type="curve"/>
      <point x="26" y="21"/>
      <point x="59" y="-4"/>
      <point x="103" y="-4" type="curve"/>
      <point x="227" y="-4"/>
      <point x="270" y="86"/>
      <point x="270" y="238" type="curve"/>
      <point x="270" y="404"/>
      <point x="270" y="555"/>
      <point x="270" y="722" type="curve"/>
      <point x="163" y="722"/>
      <point x="266" y="722"/>
      <point x="158" y="722" type="curve"/>
      <point x="158" y="555"/>
      <point x="158" y="404"/>
      <point x="158" y="238" type="curve"/>
      <point x="158" y="158"/>
      <point x="166" y="86"/>
      <point x="103" y="86" type="curve"/>
      <point x="81" y="86"/>
      <point x="69" y="100"/>
      <point x="54" y="113" type="curve"/>
      <point x="5" y="46"/>
      <point x="52" y="110"/>
    </contour>
  </outline>
</glyph>
<glyph name="K" format="1">
  <advance width="537"/>
  <unicode hex="004B"/>
  <outline>
    <contour>
      <point x="390" y="722" type="curve"/>
      <point x="181" y="380" type="line"/>
      <point x="298" y="380"/>
      <point x="193" y="380"/>
      <point x="310" y="380" type="curve"/>
      <point x="515" y="722" type="line"/>
      <point x="447" y="722"/>
      <point x="458" y="722"/>
    </contour>
    <contour>
      <point x="192" y="0" type="curve"/>
      <point x="192" y="722" type="line"/>
      <point x="80" y="722"/>
      <point x="192" y="722"/>
      <point x="80" y="722" type="curve"/>
      <point x="80" y="481"/>
      <point x="80" y="241"/>
      <point x="80" y="0" type="curve"/>
      <point x="192" y="0"/>
      <point x="80" y="0"/>
    </contour>
    <contour>
      <point x="529" y="0" type="curve"/>
      <point x="310" y="380" type="line"/>
      <point x="193" y="380"/>
      <point x="298" y="380"/>
      <point x="181" y="380" type="curve"/>
      <point x="405" y="0" type="line"/>
      <point x="485" y="0"/>
      <point x="449" y="0"/>
    </contour>
    <contour>
      <point x="293" y="-23" type="move" name="bottom"/>
    </contour>
  </outline>
</glyph>
<glyph name="L" format="1">
  <advance width="421"/>
  <unicode hex="004C"/>
  <outline>
    <contour>
      <point x="192" y="0" type="curve"/>
      <point x="192" y="241"/>
      <point x="192" y="481"/>
      <point x="192" y="722" type="curve"/>
      <point x="80" y="722"/>
      <point x="192" y="722"/>
      <point x="80" y="722" type="curve"/>
      <point x="80" y="481"/>
      <point x="80" y="241"/>
      <point x="80" y="0" type="curve"/>
      <point x="192" y="0"/>
      <point x="80" y="0"/>
    </contour>
    <contour>
      <point x="135" y="0" type="curve"/>
      <point x="226" y="0"/>
      <point x="318" y="0"/>
      <point x="410" y="0" type="curve"/>
      <point x="410" y="88"/>
      <point x="410" y="0"/>
      <point x="410" y="88" type="curve"/>
      <point x="318" y="88"/>
      <point x="226" y="88"/>
      <point x="135" y="88" type="curve"/>
      <point x="135" y="0"/>
      <point x="135" y="88"/>
    </contour>
    <contour>
      <point x="136" y="791" type="move" name="top"/>
    </contour>
    <contour>
      <point x="259" y="-20" type="move" name="bottom"/>
    </contour>
  </outline>
</glyph>
<glyph name="M" format="1">
  <advance width="668"/>
  <unicode hex="004D"/>
  <outline>
    <contour>
      <point x="615" y="0" type="curve"/>
      <point x="601" y="241"/>
      <point x="584" y="481"/>
      <point x="570" y="722" type="curve"/>
      <point x="469" y="722"/>
      <point x="570" y="722"/>
      <point x="469" y="722" type="curve"/>
      <point x="482" y="481"/>
      <point x="490" y="241"/>
      <point x="503" y="0" type="curve"/>
      <point x="615" y="0"/>
      <point x="503" y="0"/>
    </contour>
    <contour>
      <point x="149" y="0" type="curve"/>
      <point x="161" y="241"/>
      <point x="174" y="481"/>
      <point x="186" y="722" type="curve"/>
      <point x="94" y="722"/>
      <point x="186" y="722"/>
      <point x="94" y="722" type="curve"/>
      <point x="81" y="481"/>
      <point x="69" y="241"/>
      <point x="55" y="0" type="curve"/>
      <point x="149" y="0"/>
      <point x="55" y="0"/>
    </contour>
    <contour>
      <point x="371" y="0" type="curve"/>
      <point x="310" y="241"/>
      <point x="248" y="481"/>
      <point x="187" y="722" type="curve"/>
      <point x="95" y="722"/>
      <point x="188" y="722"/>
      <point x="96" y="722" type="curve"/>
      <point x="156" y="481"/>
      <point x="217" y="241"/>
      <point x="278" y="0" type="curve"/>
      <point x="371" y="0"/>
      <point x="278" y="0"/>
    </contour>
    <contour>
      <point x="377" y="0" type="curve"/>
      <point x="437" y="241"/>
      <point x="497" y="481"/>
      <point x="556" y="722" type="curve"/>
      <point x="464" y="722"/>
      <point x="556" y="722"/>
      <point x="464" y="722" type="curve"/>
      <point x="404" y="481"/>
      <point x="343" y="241"/>
      <point x="283" y="0" type="curve"/>
      <point x="377" y="0"/>
      <point x="283" y="0"/>
    </contour>
  </outline>
</glyph>
<glyph name="N" format="1">
  <advance width="621"/>
  <unicode hex="004E"/>
  <outline>
    <contour>
      <point x="542" y="0" type="curve"/>
      <point x="426" y="241"/>
      <point x="308" y="481"/>
      <point x="193" y="722" type="curve"/>
      <point x="79" y="722"/>
      <point x="193" y="722"/>
      <point x="80" y="722" type="curve"/>
      <point x="196" y="481"/>
      <point x="313" y="241"/>
      <point x="429" y="0" type="curve"/>
      <point x="543" y="0"/>
      <point x="429" y="0"/>
    </contour>
    <contour>
      <point x="429" y="722" type="curve"/>
      <point x="429" y="481"/>
      <point x="429" y="241"/>
      <point x="429" y="0" type="curve"/>
      <point x="541" y="0"/>
      <point x="429" y="0"/>
      <point x="541" y="0" type="curve"/>
      <point x="541" y="241"/>
      <point x="541" y="481"/>
      <point x="541" y="722" type="curve"/>
      <point x="429" y="722"/>
      <point x="541" y="722"/>
    </contour>
    <contour>
      <point x="192" y="0" type="curve"/>
      <point x="192" y="241"/>
      <point x="192" y="481"/>
      <point x="192" y="722" type="curve"/>
      <point x="80" y="722"/>
      <point x="192" y="722"/>
      <point x="80" y="722" type="curve"/>
      <point x="80" y="481"/>
      <point x="80" y="241"/>
      <point x="80" y="0" type="curve"/>
      <point x="192" y="0"/>
      <point x="80" y="0"/>
    </contour>
    <contour>
      <point x="313" y="791" type="move" name="top"/>
    </contour>
    <contour>
      <point x="366" y="-23" type="move" name="bottom"/>
    </contour>
  </outline>
</glyph>
<glyph name="P" format="1">
  <advance width="459"/>
  <unicode hex="0050"/>
  <outline>
    <contour>
      <point x="120" y="306" type="curve"/>
      <point x="161" y="277"/>
      <point x="204" y="260"/>
      <point x="258" y="260" type="curve"/>
      <point x="366" y="262"/>
      <point x="428" y="349"/>
      <point x="428" y="479" type="curve"/>
      <point x="428" y="616"/>
      <point x="357" y="722"/>
      <point x="228" y="722" type="curve"/>
      <point x="198" y="722"/>
      <point x="168" y="722"/>
      <point x="139" y="722" type="curve"/>
      <point x="139" y="634"/>
      <point x="139" y="722"/>
      <point x="139" y="634" type="curve"/>
      <point x="163" y="634"/>
      <point x="188" y="634"/>
      <point x="213" y="634" type="curve"/>
      <point x="286" y="634"/>
      <point x="316" y="564"/>
      <point x="316" y="483" type="curve"/>
      <point x="316" y="410"/>
      <point x="301" y="344"/>
      <point x="243" y="344" type="curve"/>
      <point x="207" y="344"/>
      <point x="184" y="357"/>
      <point x="155" y="378" type="curve"/>
      <point x="121" y="309"/>
      <point x="155" y="378"/>
    </contour>
    <contour>
      <point x="192" y="0" type="curve"/>
      <point x="192" y="241"/>
      <point x="192" y="481"/>
      <point x="192" y="722" type="curve"/>
      <point x="80" y="722"/>
      <point x="192" y="722"/>
      <point x="80" y="722" type="curve"/>
      <point x="80" y="481"/>
      <point x="80" y="241"/>
      <point x="80" y="0" type="curve"/>
      <point x="192" y="0"/>
      <point x="80" y="0"/>
    </contour>
  </outline>
</glyph>
<glyph name="Q" format="1">
  <advance width="589"/>
  <unicode hex="0051"/>
  <outline>
    <contour>
      <point x="248" y="21" type="curve"/>
      <point x="309" y="-138"/>
      <point x="398" y="-218"/>
      <point x="556" y="-218" type="curve"/>
      <point x="556" y="-126"/>
      <point x="556" y="-218"/>
      <point x="556" y="-126" type="curve"/>
      <point x="443" y="-126"/>
      <point x="389" y="-52"/>
      <point x="345" y="65" type="curve"/>
      <point x="248" y="21"/>
      <point x="345" y="65"/>
    </contour>
    <contour>
      <point x="157" y="360" type="curve"/>
      <point x="157" y="501"/>
      <point x="170" y="630"/>
      <point x="287" y="630" type="curve"/>
      <point x="406" y="630"/>
      <point x="425" y="503"/>
      <point x="425" y="361" type="curve"/>
      <point x="425" y="219"/>
      <point x="414" y="87"/>
      <point x="295" y="87" type="curve"/>
      <point x="174" y="88"/>
      <point x="157" y="217"/>
      <point x="157" y="360" type="curve"/>
      <point x="45" y="360"/>
      <point x="157" y="360"/>
      <point x="45" y="360" type="curve"/>
      <point x="45" y="159"/>
      <point x="112" y="-5"/>
      <point x="290" y="-5" type="curve"/>
      <point x="471" y="-5"/>
      <point x="537" y="162"/>
      <point x="537" y="366" type="curve"/>
      <point x="537" y="566"/>
      <point x="474" y="731"/>
      <point x="296" y="731" type="curve"/>
      <point x="115" y="731"/>
      <point x="45" y="563"/>
      <point x="45" y="360" type="curve"/>
      <point x="157" y="360"/>
      <point x="45" y="360"/>
    </contour>
  </outline>
</glyph>
<glyph name="R" format="1">
  <advance width="497"/>
  <unicode hex="0052"/>
  <outline>
    <contour>
      <point x="211" y="354" type="curve"/>
      <point x="270" y="232"/>
      <point x="320" y="122"/>
      <point x="379" y="0" type="curve"/>
      <point x="497" y="0"/>
      <point x="378" y="0"/>
      <point x="496" y="0" type="curve"/>
      <point x="435" y="124"/>
      <point x="388" y="230"/>
      <point x="327" y="354" type="curve"/>
      <point x="213" y="354"/>
      <point x="324" y="354"/>
    </contour>
    <contour>
      <point x="192" y="0" type="curve"/>
      <point x="192" y="241"/>
      <point x="192" y="481"/>
      <point x="192" y="722" type="curve"/>
      <point x="80" y="722"/>
      <point x="192" y="722"/>
      <point x="80" y="722" type="curve"/>
      <point x="80" y="481"/>
      <point x="80" y="241"/>
      <point x="80" y="0" type="curve"/>
      <point x="192" y="0"/>
      <point x="80" y="0"/>
    </contour>
    <contour>
      <point x="137" y="308" type="curve"/>
      <point x="178" y="308"/>
      <point x="219" y="308"/>
      <point x="259" y="308" type="curve"/>
      <point x="376" y="308"/>
      <point x="439" y="393"/>
      <point x="439" y="524" type="curve"/>
      <point x="439" y="644"/>
      <point x="376" y="722"/>
      <point x="259" y="722" type="curve"/>
      <point x="218" y="722"/>
      <point x="179" y="722"/>
      <point x="137" y="722" type="curve"/>
      <point x="137" y="634"/>
      <point x="137" y="722"/>
      <point x="137" y="634" type="curve"/>
      <point x="172" y="634"/>
      <point x="204" y="634"/>
      <point x="239" y="634" type="curve"/>
      <point x="301" y="634"/>
      <point x="327" y="582"/>
      <point x="327" y="515" type="curve"/>
      <point x="327" y="450"/>
      <point x="311" y="396"/>
      <point x="253" y="396" type="curve"/>
      <point x="215" y="396"/>
      <point x="176" y="396"/>
      <point x="137" y="396" type="curve"/>
      <point x="137" y="308"/>
      <point x="137" y="396"/>
    </contour>
    <contour>
      <point x="220" y="791" type="move" name="top"/>
    </contour>
    <contour>
      <point x="339" y="-24" type="move" name="bottom"/>
    </contour>
  </outline>
</glyph>
<glyph name="T" format="1">
  <advance width="427"/>
  <unicode hex="0054"/>
  <outline>
    <contour>
      <point x="270" y="0" type="curve"/>
      <point x="270" y="237"/>
      <point x="270" y="473"/>
      <point x="270" y="710" type="curve"/>
      <point x="158" y="710"/>
      <point x="270" y="710"/>
      <point x="158" y="710" type="curve"/>
      <point x="157" y="473"/>
      <point x="158" y="237"/>
      <point x="158" y="0" type="curve"/>
      <point x="270" y="0"/>
      <point x="158" y="0"/>
    </contour>
    <contour>
      <point x="12" y="628" type="curve"/>
      <point x="146" y="628"/>
      <point x="281" y="628"/>
      <point x="416" y="628" type="curve"/>
      <point x="416" y="726"/>
      <point x="416" y="625"/>
      <point x="416" y="722" type="curve"/>
      <point x="281" y="722"/>
      <point x="146" y="722"/>
      <point x="12" y="722" type="curve"/>
      <point x="12" y="625"/>
      <point x="12" y="726"/>
    </contour>
    <contour>
      <point x="214" y="791" type="move" name="top"/>
    </contour>
    <contour>
      <point x="264" y="-22" type="move" name="bottom"/>
    </contour>
  </outline>
</glyph>
<glyph name="U" format="1">
  <advance width="575"/>
  <unicode hex="0055"/>
  <outline>
    <contour>
      <point x="73" y="722" type="curve"/>
      <point x="73" y="585"/>
      <point x="72" y="408"/>
      <point x="73" y="271" type="curve"/>
      <point x="73" y="101"/>
      <point x="128" y="-5"/>
      <point x="284" y="-5" type="curve"/>
      <point x="444" y="-5"/>
      <point x="502" y="104"/>
      <point x="502" y="278" type="curve"/>
      <point x="502" y="413"/>
      <point x="502" y="587"/>
      <point x="502" y="722" type="curve"/>
      <point x="400" y="722"/>
      <point x="502" y="722"/>
      <point x="400" y="722" type="curve"/>
      <point x="400" y="582"/>
      <point x="400" y="406"/>
      <point x="400" y="266" type="curve"/>
      <point x="400" y="167"/>
      <point x="375" y="92"/>
      <point x="292" y="92" type="curve"/>
      <point x="193" y="92"/>
      <point x="175" y="175"/>
      <point x="175" y="289" type="curve"/>
      <point x="175" y="421"/>
      <point x="175" y="591"/>
      <point x="175" y="722" type="curve"/>
      <point x="72" y="722"/>
      <point x="175" y="722"/>
    </contour>
    <contour>
      <point x="290" y="791" type="move" name="top"/>
    </contour>
    <contour>
      <point x="334" y="-18" type="move" name="bottom"/>
    </contour>
  </outline>
</glyph>
<glyph name="V" format="1">
  <advance width="497"/>
  <unicode hex="0056"/>
  <outline>
    <contour>
      <point x="375" y="722" type="curve"/>
      <point x="318" y="480"/>
      <point x="262" y="242"/>
      <point x="208" y="0" type="curve"/>
      <point x="323" y="0"/>
      <point x="194" y="0"/>
      <point x="309" y="0" type="curve"/>
      <point x="369" y="241"/>
      <point x="428" y="481"/>
      <point x="489" y="722" type="curve"/>
      <point x="375" y="722"/>
      <point x="489" y="722"/>
    </contour>
    <contour>
      <point x="6" y="722" type="curve"/>
      <point x="67" y="481"/>
      <point x="128" y="241"/>
      <point x="189" y="0" type="curve"/>
      <point x="304" y="0"/>
      <point x="178" y="0"/>
      <point x="293" y="0" type="curve"/>
      <point x="237" y="242"/>
      <point x="180" y="482"/>
      <point x="121" y="722" type="curve"/>
      <point x="6" y="722"/>
      <point x="121" y="722"/>
    </contour>
  </outline>
</glyph>
<glyph name="W" format="1">
  <advance width="635"/>
  <unicode hex="0057"/>
  <outline>
    <contour>
      <point x="236" y="0" type="curve"/>
      <point x="280" y="241"/>
      <point x="324" y="481"/>
      <point x="367" y="722" type="curve"/>
      <point x="275" y="722"/>
      <point x="367" y="722"/>
      <point x="275" y="722" type="curve"/>
      <point x="235" y="482"/>
      <point x="196" y="243"/>
      <point x="155" y="0" type="curve"/>
      <point x="242" y="0"/>
      <point x="148" y="0"/>
    </contour>
    <contour>
      <point x="279" y="722" type="curve"/>
      <point x="318" y="481"/>
      <point x="358" y="241"/>
      <point x="398" y="0" type="curve"/>
      <point x="486" y="0"/>
      <point x="388" y="0"/>
      <point x="475" y="0" type="curve"/>
      <point x="439" y="244"/>
      <point x="406" y="481"/>
      <point x="371" y="722" type="curve"/>
      <point x="280" y="722"/>
      <point x="371" y="722"/>
    </contour>
    <contour>
      <point x="24" y="722" type="curve"/>
      <point x="64" y="481"/>
      <point x="104" y="241"/>
      <point x="144" y="0" type="curve"/>
      <point x="232" y="0"/>
      <point x="145" y="0"/>
      <point x="233" y="0" type="curve"/>
      <point x="195" y="241"/>
      <point x="156" y="481"/>
      <point x="119" y="722" type="curve"/>
      <point x="24" y="722"/>
      <point x="119" y="722"/>
    </contour>
    <contour>
      <point x="520" y="722" type="curve"/>
      <point x="481" y="481"/>
      <point x="440" y="241"/>
      <point x="400" y="0" type="curve"/>
      <point x="488" y="0"/>
      <point x="402" y="0"/>
      <point x="490" y="0" type="curve"/>
      <point x="531" y="241"/>
      <point x="573" y="481"/>
      <point x="615" y="722" type="curve"/>
      <point x="520" y="722"/>
      <point x="615" y="722"/>
    </contour>
  </outline>
</glyph>
<glyph name="X" format="1">
  <advance width="452"/>
  <unicode hex="0058"/>
  <outline>
    <contour>
      <point x="329" y="722" type="curve"/>
      <point x="219" y="479"/>
      <point x="115" y="243"/>
      <point x="4" y="0" type="curve"/>
      <point x="116" y="0"/>
      <point x="-1" y="0"/>
      <point x="110" y="0" type="curve"/>
      <point x="220" y="243"/>
      <point x="324" y="479"/>
      <point x="433" y="722" type="curve"/>
      <point x="324" y="722"/>
      <point x="438" y="722"/>
    </contour>
    <contour>
      <point x="17" y="722" type="curve"/>
      <point x="126" y="479"/>
      <point x="230" y="243"/>
      <point x="339" y="0" type="curve"/>
      <point x="449" y="0"/>
      <point x="335" y="0"/>
      <point x="445" y="0" type="curve"/>
      <point x="336" y="242"/>
      <point x="232" y="480"/>
      <point x="123" y="722" type="curve"/>
      <point x="13" y="722"/>
      <point x="127" y="722"/>
    </contour>
  </outline>
</glyph>
<glyph name="Z" format="1">
  <advance width="490"/>
  <unicode hex="005A"/>
  <outline>
    <contour>
      <point x="47" y="634" type="curve"/>
      <point x="152" y="634"/>
      <point x="298" y="634"/>
      <point x="404" y="634" type="curve"/>
      <point x="395" y="642"/>
      <point x="380" y="642"/>
      <point x="372" y="650" type="curve"/>
      <point x="362" y="657"/>
      <point x="366" y="672"/>
      <point x="357" y="679" type="curve"/>
      <point x="352" y="671"/>
      <point x="339" y="677"/>
      <point x="335" y="669" type="curve"/>
      <point x="23" y="88" type="line"/>
      <point x="23" y="43"/>
      <point x="23" y="88"/>
      <point x="23" y="43" type="curve"/>
      <point x="23" y="0"/>
      <point x="23" y="43"/>
      <point x="23" y="0" type="curve"/>
      <point x="64" y="0"/>
      <point x="23" y="0"/>
      <point x="64" y="0" type="curve"/>
      <point x="443" y="0"/>
      <point x="344" y="0"/>
      <point x="470" y="0" type="curve"/>
      <point x="470" y="88"/>
      <point x="470" y="0"/>
      <point x="470" y="88" type="curve"/>
      <point x="344" y="88"/>
      <point x="190" y="88"/>
      <point x="64" y="88" type="curve"/>
      <point x="72" y="81"/>
      <point x="85" y="82"/>
      <point x="93" y="75" type="curve"/>
      <point x="102" y="67"/>
      <point x="100" y="51"/>
      <point x="109" y="43" type="curve"/>
      <point x="114" y="51"/>
      <point x="126" y="46"/>
      <point x="131" y="53" type="curve"/>
      <point x="448" y="634" type="line"/>
      <point x="448" y="679"/>
      <point x="448" y="634"/>
      <point x="448" y="679" type="curve"/>
      <point x="448" y="722"/>
      <point x="448" y="679"/>
      <point x="448" y="722" type="curve"/>
      <point x="407" y="722"/>
      <point x="448" y="722"/>
      <point x="407" y="722" type="curve"/>
      <point x="300" y="722"/>
      <point x="153" y="722"/>
      <point x="47" y="722" type="curve"/>
      <point x="47" y="634"/>
      <point x="47" y="722"/>
    </contour>
    <contour>
      <point x="251" y="791" type="move" name="top"/>
    </contour>
  </outline>
</glyph>
<glyph name="bracketleft" format="1">
  <advance width="253"/>
  <unicode hex="005B"/>
  <outline>
    <contour>
      <point x="216" y="769" type="curve"/>
      <point x="183" y="769"/>
      <point x="150" y="769"/>
      <point x="117" y="769" type="curve"/>
      <point x="105" y="769"/>
      <point x="76" y="769"/>
      <point x="65" y="769" type="curve"/>
      <point x="65" y="756"/>
      <point x="65" y="740"/>
      <point x="65" y="727" type="curve"/>
      <point x="65" y="460"/>
      <point x="65" y="193"/>
      <point x="65" y="-74" type="curve"/>
      <point x="65" y="-88"/>
      <point x="65" y="-97"/>
      <point x="65" y="-116" type="curve"/>
      <point x="77" y="-116"/>
      <point x="104" y="-116"/>
      <point x="116" y="-116" type="curve"/>
      <point x="149" y="-116"/>
      <point x="183" y="-116"/>
      <point x="216" y="-116" type="curve"/>
      <point x="216" y="-19"/>
      <point x="216" y="-116"/>
      <point x="216" y="-19" type="curve"/>
      <point x="183" y="-19"/>
      <point x="149" y="-19"/>
      <point x="116" y="-19" type="curve"/>
      <point x="177" y="-19"/>
      <point x="116" y="-19"/>
      <point x="177" y="-19" type="curve"/>
      <point x="177" y="-74"/>
      <point x="177" y="-19"/>
      <point x="177" y="-74" type="curve"/>
      <point x="177" y="193"/>
      <point x="177" y="460"/>
      <point x="177" y="727" type="curve"/>
      <point x="177" y="673"/>
      <point x="177" y="727"/>
      <point x="177" y="673" type="curve"/>
      <point x="117" y="673"/>
      <point x="177" y="673"/>
      <point x="117" y="673" type="curve"/>
      <point x="150" y="673"/>
      <point x="183" y="673"/>
      <point x="216" y="673" type="curve"/>
      <point x="216" y="769"/>
      <point x="216" y="673"/>
    </contour>
  </outline>
</glyph>
<glyph name="backslash" format="1">
  <advance width="417"/>
  <unicode hex="005C"/>
  <outline>
    <contour>
      <point x="395" y="-68" type="curve"/>
      <point x="310" y="236"/>
      <point x="224" y="540"/>
      <point x="139" y="844" type="curve"/>
      <point x="22" y="844"/>
      <point x="139" y="844"/>
      <point x="22" y="844" type="curve"/>
      <point x="108" y="540"/>
      <point x="193" y="236"/>
      <point x="278" y="-68" type="curve"/>
      <point x="395" y="-68"/>
      <point x="278" y="-68"/>
    </contour>
  </outline>
</glyph>
<glyph name="bracketright" format="1">
  <advance width="253"/>
  <unicode hex="005D"/>
  <outline>
    <contour>
      <point x="38" y="673" type="curve"/>
      <point x="71" y="673"/>
      <point x="104" y="673"/>
      <point x="137" y="673" type="curve"/>
      <point x="128" y="683"/>
      <point x="111" y="684"/>
      <point x="102" y="694" type="curve"/>
      <point x="94" y="705"/>
      <point x="85" y="716"/>
      <point x="77" y="727" type="curve"/>
      <point x="77" y="460"/>
      <point x="76" y="193"/>
      <point x="77" y="-74" type="curve"/>
      <point x="85" y="-63"/>
      <point x="96" y="-53"/>
      <point x="106" y="-42" type="curve"/>
      <point x="114" y="-32"/>
      <point x="130" y="-30"/>
      <point x="138" y="-19" type="curve"/>
      <point x="105" y="-19"/>
      <point x="71" y="-19"/>
      <point x="38" y="-19" type="curve"/>
      <point x="37" y="-116"/>
      <point x="38" y="-19"/>
      <point x="37" y="-116" type="curve"/>
      <point x="71" y="-116"/>
      <point x="105" y="-116"/>
      <point x="138" y="-116" type="curve"/>
      <point x="189" y="-116"/>
      <point x="138" y="-116"/>
      <point x="189" y="-116" type="curve"/>
      <point x="189" y="-74"/>
      <point x="189" y="-116"/>
      <point x="189" y="-74" type="curve"/>
      <point x="188" y="193"/>
      <point x="189" y="460"/>
      <point x="189" y="727" type="curve"/>
      <point x="189" y="769"/>
      <point x="189" y="727"/>
      <point x="189" y="769" type="curve"/>
      <point x="137" y="769"/>
      <point x="189" y="769"/>
      <point x="137" y="769" type="curve"/>
      <point x="104" y="769"/>
      <point x="71" y="769"/>
      <point x="38" y="769" type="curve"/>
      <point x="38" y="673"/>
      <point x="38" y="769"/>
    </contour>
  </outline>
</glyph>
<glyph name="asciicircum" format="1">
  <advance width="412"/>
  <unicode hex="005E"/>
  <outline>
    <contour>
      <point x="148" y="456" type="curve"/>
      <point x="186" y="561"/>
      <point x="224" y="664"/>
      <point x="262" y="768" type="curve"/>
      <point x="150" y="768"/>
      <point x="262" y="768"/>
      <point x="150" y="768" type="curve"/>
      <point x="112" y="664"/>
      <point x="74" y="561"/>
      <point x="36" y="456" type="curve"/>
      <point x="148" y="456"/>
      <point x="36" y="456"/>
    </contour>
    <contour>
      <point x="376" y="456" type="curve"/>
      <point x="339" y="558"/>
      <point x="299" y="665"/>
      <point x="262" y="768" type="curve"/>
      <point x="150" y="768"/>
      <point x="262" y="768"/>
      <point x="150" y="768" type="curve"/>
      <point x="187" y="665"/>
      <point x="227" y="558"/>
      <point x="264" y="456" type="curve"/>
      <point x="376" y="456"/>
      <point x="264" y="456"/>
    </contour>
  </outline>
</glyph>
<glyph name="grave" format="1">
  <advance width="329"/>
  <unicode hex="0060"/>
  <outline>
    <contour>
      <point x="241" y="598" type="line"/>
      <point x="173" y="764" type="line"/>
      <point x="37" y="764" type="line"/>
      <point x="136" y="598" type="line"/>
    </contour>
    <contour>
      <point x="189" y="597" type="move" name="_top"/>
    </contour>
  </outline>
</glyph>
<glyph name="b" format="1">
  <advance width="494"/>
  <unicode hex="0062"/>
  <outline>
    <contour>
      <point x="154" y="368" type="curve"/>
      <point x="169" y="397"/>
      <point x="207" y="446"/>
      <point x="258" y="446" type="curve"/>
      <point x="334" y="446"/>
      <point x="342" y="356"/>
      <point x="342" y="263" type="curve"/>
      <point x="343" y="175"/>
      <point x="330" y="87"/>
      <point x="260" y="87" type="curve"/>
      <point x="218" y="87"/>
      <point x="187" y="113"/>
      <point x="162" y="154" type="curve"/>
      <point x="99" y="111"/>
      <point x="169" y="157"/>
      <point x="107" y="114" type="curve"/>
      <point x="141" y="47"/>
      <point x="189" y="-5"/>
      <point x="269" y="-5" type="curve"/>
      <point x="395" y="-5"/>
      <point x="454" y="119"/>
      <point x="454" y="268" type="curve"/>
      <point x="454" y="415"/>
      <point x="398" y="538"/>
      <point x="272" y="538" type="curve"/>
      <point x="187" y="538"/>
      <point x="133" y="465"/>
      <point x="107" y="405" type="curve"/>
      <point x="159" y="363"/>
      <point x="103" y="409"/>
    </contour>
    <contour>
      <point x="179" y="0" type="curve"/>
      <point x="179" y="262"/>
      <point x="179" y="538"/>
      <point x="179" y="800" type="curve"/>
      <point x="55" y="800"/>
      <point x="190" y="800"/>
      <point x="67" y="800" type="curve"/>
      <point x="67" y="538"/>
      <point x="67" y="262"/>
      <point x="67" y="0" type="curve"/>
      <point x="190" y="0"/>
      <point x="55" y="0"/>
    </contour>
  </outline>
</glyph>
<glyph name="d" format="1">
  <advance width="501"/>
  <unicode hex="0064"/>
  <outline>
    <contour>
      <point x="377" y="454" type="curve"/>
      <point x="344" y="506"/>
      <point x="295" y="534"/>
      <point x="229" y="534" type="curve"/>
      <point x="92" y="534"/>
      <point x="40" y="406"/>
      <point x="40" y="262" type="curve"/>
      <point x="40" y="122"/>
      <point x="96" y="-1"/>
      <point x="226" y="-1" type="curve"/>
      <point x="299" y="-1"/>
      <point x="348" y="39"/>
      <point x="377" y="111" type="curve"/>
      <point x="339" y="175"/>
      <point x="378" y="111"/>
      <point x="340" y="175" type="curve"/>
      <point x="323" y="127"/>
      <point x="296" y="87"/>
      <point x="248" y="87" type="curve"/>
      <point x="169" y="87"/>
      <point x="152" y="175"/>
      <point x="152" y="267" type="curve"/>
      <point x="152" y="359"/>
      <point x="173" y="446"/>
      <point x="252" y="446" type="curve"/>
      <point x="292" y="446"/>
      <point x="320" y="422"/>
      <point x="339" y="387" type="curve"/>
      <point x="377" y="455"/>
      <point x="340" y="386"/>
    </contour>
    <contour>
      <point x="434" y="0" type="curve"/>
      <point x="434" y="267"/>
      <point x="434" y="533"/>
      <point x="434" y="800" type="curve"/>
      <point x="318" y="800"/>
      <point x="434" y="800"/>
      <point x="318" y="800" type="curve"/>
      <point x="318" y="533"/>
      <point x="318" y="267"/>
      <point x="318" y="0" type="curve"/>
      <point x="434" y="0"/>
      <point x="318" y="0"/>
    </contour>
  </outline>
</glyph>
<glyph name="f" format="1">
  <advance width="314"/>
  <unicode hex="0066"/>
  <outline>
    <contour>
      <point x="23" y="445" type="curve"/>
      <point x="293" y="445" type="line"/>
      <point x="293" y="533"/>
      <point x="293" y="445"/>
      <point x="293" y="533" type="curve"/>
      <point x="23" y="533" type="line"/>
      <point x="23" y="445"/>
      <point x="23" y="533"/>
    </contour>
    <contour>
      <point x="201" y="0" type="curve"/>
      <point x="201" y="613" type="line"/>
      <point x="201" y="668"/>
      <point x="197" y="721"/>
      <point x="243" y="721" type="curve"/>
      <point x="260" y="721"/>
      <point x="274" y="712"/>
      <point x="287" y="702" type="curve"/>
      <point x="333" y="772"/>
      <point x="287" y="702"/>
      <point x="333" y="772" type="curve"/>
      <point x="307" y="792"/>
      <point x="276" y="806"/>
      <point x="243" y="806" type="curve"/>
      <point x="140" y="806"/>
      <point x="88" y="722"/>
      <point x="89" y="613" type="curve"/>
      <point x="89" y="0" type="line"/>
      <point x="201" y="0"/>
      <point x="89" y="0"/>
    </contour>
  </outline>
</glyph>
<glyph name="g" format="1">
  <advance width="427"/>
  <unicode hex="0067"/>
  <outline>
    <contour>
      <point x="305" y="443" type="curve"/>
      <point x="398" y="503" type="line"/>
      <point x="394" y="508"/>
      <point x="355" y="576"/>
      <point x="351" y="581" type="curve"/>
      <point x="243" y="514" type="line"/>
      <point x="305" y="443"/>
      <point x="243" y="514"/>
    </contour>
    <contour>
      <point x="157" y="341" type="curve"/>
      <point x="157" y="395"/>
      <point x="170" y="450"/>
      <point x="216" y="450" type="curve"/>
      <point x="262" y="450"/>
      <point x="271" y="396"/>
      <point x="271" y="341" type="curve"/>
      <point x="271" y="291"/>
      <point x="261" y="240"/>
      <point x="215" y="240" type="curve"/>
      <point x="173" y="240"/>
      <point x="157" y="289"/>
      <point x="157" y="341" type="curve"/>
      <point x="45" y="337"/>
      <point x="157" y="341"/>
      <point x="45" y="337" type="curve"/>
      <point x="45" y="231"/>
      <point x="108" y="152"/>
      <point x="211" y="152" type="curve"/>
      <point x="317" y="152"/>
      <point x="383" y="233"/>
      <point x="383" y="345" type="curve"/>
      <point x="383" y="454"/>
      <point x="321" y="537"/>
      <point x="216" y="537" type="curve"/>
      <point x="107" y="537"/>
      <point x="45" y="450"/>
      <point x="45" y="337" type="curve"/>
      <point x="157" y="341"/>
      <point x="45" y="337"/>
    </contour>
    <contour>
      <point x="124" y="241" type="curve"/>
      <point x="77" y="207"/>
      <point x="48" y="168"/>
      <point x="48" y="111" type="curve"/>
      <point x="48" y="28"/>
      <point x="114" y="-19"/>
      <point x="202" y="-29" type="curve"/>
      <point x="264" y="-36"/>
      <point x="314" y="-62"/>
      <point x="314" y="-126" type="curve"/>
      <point x="314" y="-184"/>
      <point x="271" y="-217"/>
      <point x="213" y="-217" type="curve"/>
      <point x="159" y="-217"/>
      <point x="126" y="-171"/>
      <point x="126" y="-112" type="curve"/>
      <point x="126" y="-63"/>
      <point x="136" y="-17"/>
      <point x="177" y="5" type="curve"/>
      <point x="121" y="58"/>
      <point x="177" y="5"/>
      <point x="121" y="58" type="curve"/>
      <point x="52" y="21"/>
      <point x="14" y="-36"/>
      <point x="14" y="-116" type="curve"/>
      <point x="14" y="-230"/>
      <point x="93" y="-305"/>
      <point x="209" y="-305" type="curve"/>
      <point x="328" y="-305"/>
      <point x="417" y="-232"/>
      <point x="415" y="-117" type="curve"/>
      <point x="415" y="-12"/>
      <point x="330" y="43"/>
      <point x="222" y="55" type="curve"/>
      <point x="186" y="59"/>
      <point x="160" y="82"/>
      <point x="160" y="120" type="curve"/>
      <point x="160" y="147"/>
      <point x="164" y="165"/>
      <point x="183" y="183" type="curve"/>
      <point x="124" y="241"/>
      <point x="183" y="183"/>
    </contour>
    <contour>
      <point x="215" y="625" type="move" name="top"/>
    </contour>
  </outline>
</glyph>
<glyph name="h" format="1">
  <advance width="483"/>
  <unicode hex="0068"/>
  <outline>
    <contour>
      <point x="153" y="318" type="curve"/>
      <point x="167" y="375"/>
      <point x="196" y="446"/>
      <point x="252" y="446" type="curve"/>
      <point x="313" y="446"/>
      <point x="309" y="387"/>
      <point x="309" y="318" type="curve"/>
      <point x="309" y="212"/>
      <point x="309" y="106"/>
      <point x="309" y="0" type="curve"/>
      <point x="421" y="0"/>
      <point x="309" y="0"/>
      <point x="421" y="0" type="curve"/>
      <point x="421" y="108"/>
      <point x="421" y="217"/>
      <point x="421" y="325" type="curve"/>
      <point x="421" y="442"/>
      <point x="398" y="534"/>
      <point x="286" y="534" type="curve"/>
      <point x="204" y="534"/>
      <point x="142" y="452"/>
      <point x="128" y="364" type="curve"/>
      <point x="154" y="319"/>
      <point x="128" y="362"/>
    </contour>
    <contour>
      <point x="179" y="0" type="curve"/>
      <point x="179" y="267"/>
      <point x="179" y="533"/>
      <point x="179" y="800" type="curve"/>
      <point x="67" y="800"/>
      <point x="179" y="800"/>
      <point x="67" y="800" type="curve"/>
      <point x="67" y="533"/>
      <point x="67" y="267"/>
      <point x="67" y="0" type="curve"/>
      <point x="179" y="0"/>
      <point x="67" y="0"/>
    </contour>
  </outline>
</glyph>
<glyph name="i" format="1">
  <advance width="239"/>
  <unicode hex="0069"/>
  <outline>
    <contour>
      <point x="179" y="0" type="curve"/>
      <point x="179" y="178"/>
      <point x="179" y="355"/>
      <point x="179" y="533" type="curve"/>
      <point x="61" y="533"/>
      <point x="179" y="533"/>
      <point x="61" y="533" type="curve"/>
      <point x="61" y="355"/>
      <point x="61" y="178"/>
      <point x="61" y="0" type="curve"/>
      <point x="179" y="0"/>
      <point x="61" y="0"/>
    </contour>
    <contour>
      <point x="175" y="679" type="curve"/>
      <point x="175" y="718"/>
      <point x="150" y="738"/>
      <point x="116" y="738" type="curve"/>
      <point x="81" y="738"/>
      <point x="58" y="716"/>
      <point x="58" y="679" type="curve"/>
      <point x="176" y="679"/>
      <point x="57" y="679"/>
      <point x="175" y="679" type="curve"/>
      <point x="175" y="640"/>
      <point x="151" y="622"/>
      <point x="116" y="622" type="curve"/>
      <point x="80" y="622"/>
      <point x="58" y="641"/>
      <point x="58" y="679" type="curve"/>
      <point x="176" y="679"/>
      <point x="57" y="679"/>
    </contour>
    <contour>
      <point x="116" y="626" type="move" name="top"/>
    </contour>
    <contour>
      <point x="171" y="2" type="move" name="bottom"/>
    </contour>
  </outline>
</glyph>
<glyph name="j" format="1">
  <advance width="214"/>
  <unicode hex="006A"/>
  <outline>
    <contour>
      <point x="-12" y="-303" type="curve"/>
      <point x="-6" y="-305"/>
      <point x="3" y="-305"/>
      <point x="12" y="-305" type="curve"/>
      <point x="108" y="-305"/>
      <point x="166" y="-226"/>
      <point x="166" y="-126" type="curve"/>
      <point x="166" y="94"/>
      <point x="166" y="314"/>
      <point x="166" y="534" type="curve"/>
      <point x="54" y="534"/>
      <point x="166" y="534"/>
      <point x="54" y="534" type="curve"/>
      <point x="54" y="314"/>
      <point x="54" y="94"/>
      <point x="54" y="-126" type="curve"/>
      <point x="54" y="-169"/>
      <point x="53" y="-220"/>
      <point x="16" y="-220" type="curve"/>
      <point x="12" y="-220"/>
      <point x="10" y="-220"/>
      <point x="4" y="-219" type="curve"/>
      <point x="-12" y="-302"/>
      <point x="3" y="-220"/>
    </contour>
    <contour>
      <point x="166" y="673" type="curve"/>
      <point x="166" y="711"/>
      <point x="141" y="731"/>
      <point x="107" y="731" type="curve"/>
      <point x="72" y="731"/>
      <point x="50" y="710"/>
      <point x="50" y="673" type="curve"/>
      <point x="167" y="673"/>
      <point x="49" y="673"/>
      <point x="166" y="673" type="curve"/>
      <point x="166" y="633"/>
      <point x="142" y="615"/>
      <point x="107" y="615" type="curve"/>
      <point x="71" y="615"/>
      <point x="50" y="635"/>
      <point x="50" y="673" type="curve"/>
      <point x="167" y="673"/>
      <point x="49" y="673"/>
    </contour>
  </outline>
</glyph>
<glyph name="k" format="1">
  <advance width="475"/>
  <unicode hex="006B"/>
  <outline>
    <contour>
      <point x="179" y="0" type="curve"/>
      <point x="179" y="800" type="line"/>
      <point x="67" y="800"/>
      <point x="179" y="800"/>
      <point x="67" y="800" type="curve"/>
      <point x="67" y="533"/>
      <point x="67" y="267"/>
      <point x="67" y="0" type="curve"/>
      <point x="179" y="0"/>
      <point x="67" y="0"/>
    </contour>
    <contour>
      <point x="317" y="533" type="curve"/>
      <point x="161" y="275" type="line"/>
      <point x="265" y="275"/>
      <point x="177" y="275"/>
      <point x="280" y="275" type="curve"/>
      <point x="441" y="533" type="line"/>
      <point x="358" y="533"/>
      <point x="399" y="533"/>
    </contour>
    <contour>
      <point x="457" y="0" type="curve"/>
      <point x="280" y="275" type="line"/>
      <point x="177" y="275"/>
      <point x="265" y="275"/>
      <point x="161" y="275" type="curve"/>
      <point x="334" y="0" type="line"/>
      <point x="407" y="0"/>
      <point x="385" y="0"/>
    </contour>
    <contour>
      <point x="308" y="-22" type="move" name="bottom"/>
    </contour>
  </outline>
</glyph>
<glyph name="l" format="1">
  <advance width="245"/>
  <unicode hex="006C"/>
  <outline>
    <contour>
      <point x="179" y="0" type="curve"/>
      <point x="179" y="267"/>
      <point x="179" y="533"/>
      <point x="179" y="800" type="curve"/>
      <point x="67" y="800"/>
      <point x="179" y="800"/>
      <point x="67" y="800" type="curve"/>
      <point x="67" y="533"/>
      <point x="67" y="267"/>
      <point x="67" y="0" type="curve"/>
      <point x="179" y="0"/>
      <point x="67" y="0"/>
    </contour>
    <contour>
      <point x="126" y="883" type="move" name="top"/>
    </contour>
    <contour>
      <point x="169" y="-22" type="move" name="bottom"/>
    </contour>
  </outline>
</glyph>
<glyph name="m" format="1">
  <advance width="674"/>
  <unicode hex="006D"/>
  <outline>
    <contour>
      <point x="370" y="293" type="curve"/>
      <point x="384" y="363"/>
      <point x="397" y="447"/>
      <point x="453" y="447" type="curve"/>
      <point x="514" y="447"/>
      <point x="499" y="389"/>
      <point x="499" y="316" type="curve"/>
      <point x="499" y="211"/>
      <point x="499" y="106"/>
      <point x="499" y="0" type="curve"/>
      <point x="611" y="0"/>
      <point x="499" y="0"/>
      <point x="611" y="0" type="curve"/>
      <point x="611" y="108"/>
      <point x="611" y="217"/>
      <point x="611" y="325" type="curve"/>
      <point x="611" y="449"/>
      <point x="611" y="538"/>
      <point x="495" y="538" type="curve"/>
      <point x="409" y="538"/>
      <point x="362" y="452"/>
      <point x="345" y="345" type="curve"/>
      <point x="374" y="296"/>
      <point x="341" y="343"/>
    </contour>
    <contour>
      <point x="154" y="292" type="curve"/>
      <point x="165" y="362"/>
      <point x="179" y="447"/>
      <point x="237" y="447" type="curve"/>
      <point x="297" y="447"/>
      <point x="283" y="389"/>
      <point x="283" y="316" type="curve"/>
      <point x="283" y="211"/>
      <point x="283" y="106"/>
      <point x="283" y="0" type="curve"/>
      <point x="395" y="0"/>
      <point x="283" y="0"/>
      <point x="395" y="0" type="curve"/>
      <point x="395" y="108"/>
      <point x="395" y="217"/>
      <point x="395" y="325" type="curve"/>
      <point x="395" y="449"/>
      <point x="395" y="538"/>
      <point x="279" y="538" type="curve"/>
      <point x="191" y="538"/>
      <point x="145" y="452"/>
      <point x="129" y="345" type="curve"/>
      <point x="158" y="295"/>
      <point x="125" y="342"/>
    </contour>
    <contour>
      <point x="179" y="0" type="curve"/>
      <point x="179" y="178"/>
      <point x="179" y="355"/>
      <point x="179" y="533" type="curve"/>
      <point x="67" y="533"/>
      <point x="179" y="533"/>
      <point x="67" y="533" type="curve"/>
      <point x="67" y="355"/>
      <point x="67" y="178"/>
      <point x="67" y="0" type="curve"/>
      <point x="179" y="0"/>
      <point x="67" y="0"/>
    </contour>
  </outline>
</glyph>
<glyph name="n" format="1">
  <advance width="483"/>
  <unicode hex="006E"/>
  <outline>
    <contour>
      <point x="157" y="283" type="curve"/>
      <point x="165" y="364"/>
      <point x="198" y="446"/>
      <point x="250" y="446" type="curve"/>
      <point x="308" y="446"/>
      <point x="309" y="386"/>
      <point x="309" y="316" type="curve"/>
      <point x="309" y="212"/>
      <point x="309" y="105"/>
      <point x="309" y="0" type="curve"/>
      <point x="432" y="0"/>
      <point x="297" y="0"/>
      <point x="421" y="0" type="curve"/>
      <point x="421" y="107"/>
      <point x="421" y="218"/>
      <point x="421" y="325" type="curve"/>
      <point x="421" y="444"/>
      <point x="403" y="538"/>
      <point x="293" y="538" type="curve"/>
      <point x="210" y="538"/>
      <point x="144" y="461"/>
      <point x="129" y="337" type="curve"/>
      <point x="164" y="282"/>
      <point x="121" y="338"/>
    </contour>
    <contour>
      <point x="179" y="0" type="curve"/>
      <point x="179" y="178"/>
      <point x="179" y="355"/>
      <point x="179" y="533" type="curve"/>
      <point x="67" y="533"/>
      <point x="179" y="533"/>
      <point x="67" y="533" type="curve"/>
      <point x="67" y="355"/>
      <point x="67" y="178"/>
      <point x="67" y="0" type="curve"/>
      <point x="179" y="0"/>
      <point x="67" y="0"/>
    </contour>
    <contour>
      <point x="242" y="625" type="move" name="top"/>
    </contour>
    <contour>
      <point x="295" y="-24" type="move" name="bottom"/>
    </contour>
  </outline>
</glyph>
<glyph name="p" format="1">
  <advance width="499"/>
  <unicode hex="0070"/>
  <outline>
    <contour>
      <point x="158" y="324" type="curve"/>
      <point x="165" y="378"/>
      <point x="206" y="447"/>
      <point x="252" y="447" type="curve"/>
      <point x="343" y="447"/>
      <point x="347" y="357"/>
      <point x="347" y="264" type="curve"/>
      <point x="348" y="172"/>
      <point x="341" y="83"/>
      <point x="256" y="83" type="curve"/>
      <point x="213" y="83"/>
      <point x="184" y="109"/>
      <point x="161" y="148" type="curve"/>
      <point x="119" y="96"/>
      <point x="166" y="155"/>
      <point x="123" y="102" type="curve"/>
      <point x="163" y="35"/>
      <point x="209" y="-5"/>
      <point x="282" y="-5" type="curve"/>
      <point x="422" y="-5"/>
      <point x="459" y="126"/>
      <point x="459" y="269" type="curve"/>
      <point x="459" y="410"/>
      <point x="421" y="539"/>
      <point x="280" y="539" type="curve"/>
      <point x="208" y="539"/>
      <point x="152" y="465"/>
      <point x="129" y="399" type="curve"/>
      <point x="160" y="318"/>
      <point x="126" y="404"/>
    </contour>
    <contour>
      <point x="179" y="-300" type="curve"/>
      <point x="179" y="-22"/>
      <point x="179" y="255"/>
      <point x="179" y="533" type="curve"/>
      <point x="67" y="533"/>
      <point x="179" y="533"/>
      <point x="67" y="533" type="curve"/>
      <point x="67" y="255"/>
      <point x="67" y="-22"/>
      <point x="67" y="-300" type="curve"/>
      <point x="179" y="-300"/>
      <point x="67" y="-300"/>
    </contour>
  </outline>
</glyph>
<glyph name="q" format="1">
  <advance width="500"/>
  <unicode hex="0071"/>
  <outline>
    <contour>
      <point x="373" y="406" type="curve"/>
      <point x="348" y="486"/>
      <point x="286" y="538"/>
      <point x="218" y="538" type="curve"/>
      <point x="76" y="538"/>
      <point x="39" y="409"/>
      <point x="40" y="265" type="curve"/>
      <point x="40" y="121"/>
      <point x="83" y="-5"/>
      <point x="223" y="-5" type="curve"/>
      <point x="288" y="-5"/>
      <point x="343" y="54"/>
      <point x="368" y="119" type="curve"/>
      <point x="332" y="172"/>
      <point x="375" y="116"/>
      <point x="340" y="169" type="curve"/>
      <point x="321" y="124"/>
      <point x="286" y="82"/>
      <point x="241" y="82" type="curve"/>
      <point x="160" y="82"/>
      <point x="152" y="175"/>
      <point x="152" y="270" type="curve"/>
      <point x="152" y="359"/>
      <point x="162" y="447"/>
      <point x="239" y="447" type="curve"/>
      <point x="278" y="447"/>
      <point x="310" y="426"/>
      <point x="344" y="359" type="curve"/>
      <point x="368" y="415"/>
      <point x="349" y="350"/>
    </contour>
    <contour>
      <point x="433" y="-300" type="curve"/>
      <point x="433" y="-25"/>
      <point x="433" y="258"/>
      <point x="433" y="533" type="curve"/>
      <point x="305" y="533"/>
      <point x="445" y="533"/>
      <point x="317" y="533" type="curve"/>
      <point x="317" y="258"/>
      <point x="317" y="-25"/>
      <point x="317" y="-300" type="curve"/>
      <point x="445" y="-300"/>
      <point x="305" y="-300"/>
    </contour>
  </outline>
</glyph>
<glyph name="r" format="1">
  <advance width="304"/>
  <unicode hex="0072"/>
  <outline>
    <contour>
      <point x="179" y="0" type="curve"/>
      <point x="179" y="175"/>
      <point x="179" y="358"/>
      <point x="179" y="533" type="curve"/>
      <point x="55" y="533"/>
      <point x="190" y="533"/>
      <point x="67" y="533" type="curve"/>
      <point x="67" y="358"/>
      <point x="67" y="175"/>
      <point x="67" y="0" type="curve"/>
      <point x="190" y="0"/>
      <point x="55" y="0"/>
    </contour>
    <contour>
      <point x="156" y="310" type="curve"/>
      <point x="177" y="417"/>
      <point x="234" y="449"/>
      <point x="293" y="449" type="curve"/>
      <point x="293" y="549"/>
      <point x="293" y="437"/>
      <point x="293" y="538" type="curve"/>
      <point x="207" y="538"/>
      <point x="139" y="454"/>
      <point x="114" y="351" type="curve"/>
      <point x="157" y="305"/>
      <point x="115" y="355"/>
    </contour>
    <contour>
      <point x="124" y="625" type="move" name="top"/>
    </contour>
    <contour>
      <point x="178" y="-25" type="move" name="bottom"/>
    </contour>
  </outline>
</glyph>
<glyph name="s" format="1">
  <advance width="364"/>
  <unicode hex="0073"/>
  <outline>
    <contour>
      <point x="33" y="48" type="curve"/>
      <point x="78" y="16"/>
      <point x="127" y="-5"/>
      <point x="179" y="-5" type="curve"/>
      <point x="278" y="-5"/>
      <point x="336" y="55"/>
      <point x="336" y="154" type="curve"/>
      <point x="335" y="243"/>
      <point x="279" y="283"/>
      <point x="197" y="317" type="curve" smooth="yes"/>
      <point x="161" y="333"/>
      <point x="142" y="358"/>
      <point x="142" y="396" type="curve"/>
      <point x="142" y="422"/>
      <point x="153" y="446"/>
      <point x="179" y="446" type="curve"/>
      <point x="206" y="446"/>
      <point x="231" y="430"/>
      <point x="248" y="413" type="curve"/>
      <point x="298" y="489"/>
      <point x="250" y="417"/>
      <point x="300" y="493" type="curve"/>
      <point x="272" y="517"/>
      <point x="225" y="538"/>
      <point x="181" y="538" type="curve"/>
      <point x="93" y="538"/>
      <point x="40" y="484"/>
      <point x="40" y="397" type="curve"/>
      <point x="40" y="313"/>
      <point x="83" y="266"/>
      <point x="161" y="234" type="curve" smooth="yes"/>
      <point x="201" y="217"/>
      <point x="229" y="192"/>
      <point x="229" y="146" type="curve"/>
      <point x="229" y="114"/>
      <point x="212" y="91"/>
      <point x="185" y="91" type="curve"/>
      <point x="149" y="91"/>
      <point x="118" y="105"/>
      <point x="91" y="126" type="curve"/>
      <point x="33" y="48"/>
      <point x="91" y="126"/>
    </contour>
    <contour>
      <point x="184" y="625" type="move" name="top"/>
    </contour>
    <contour>
      <point x="219" y="-21" type="move" name="bottom"/>
    </contour>
  </outline>
</glyph>
<glyph name="t" format="1">
  <advance width="301"/>
  <unicode hex="0074"/>
  <outline>
    <contour>
      <point x="26" y="443" type="curve"/>
      <point x="287" y="443" type="line"/>
      <point x="287" y="532"/>
      <point x="287" y="443"/>
      <point x="287" y="532" type="curve"/>
      <point x="26" y="532" type="line"/>
      <point x="26" y="443"/>
      <point x="26" y="532"/>
    </contour>
    <contour>
      <point x="245" y="105" type="curve"/>
      <point x="235" y="94"/>
      <point x="227" y="87"/>
      <point x="213" y="87" type="curve"/>
      <point x="179" y="87"/>
      <point x="182" y="125"/>
      <point x="182" y="167" type="curve"/>
      <point x="182" y="679" type="line"/>
      <point x="59" y="601"/>
      <point x="194" y="682"/>
      <point x="70" y="604" type="curve"/>
      <point x="70" y="163" type="line"/>
      <point x="70" y="61"/>
      <point x="106" y="-6"/>
      <point x="196" y="-6" type="curve"/>
      <point x="234" y="-6"/>
      <point x="259" y="7"/>
      <point x="295" y="30" type="curve"/>
      <point x="245" y="105"/>
      <point x="295" y="30"/>
    </contour>
    <contour>
      <point x="238" y="-18" type="move" name="bottom"/>
    </contour>
  </outline>
</glyph>
<glyph name="v" format="1">
  <advance width="440"/>
  <unicode hex="0076"/>
  <outline>
    <contour>
      <point x="17" y="533" type="curve"/>
      <point x="62" y="355"/>
      <point x="107" y="178"/>
      <point x="152" y="0" type="curve"/>
      <point x="256" y="0"/>
      <point x="152" y="0"/>
      <point x="256" y="0" type="curve"/>
      <point x="211" y="177"/>
      <point x="175" y="356"/>
      <point x="131" y="533" type="curve"/>
      <point x="17" y="533"/>
      <point x="131" y="533"/>
    </contour>
    <contour>
      <point x="315" y="533" type="curve"/>
      <point x="181" y="0" type="line"/>
      <point x="285" y="0"/>
      <point x="181" y="0"/>
      <point x="285" y="0" type="curve"/>
      <point x="333" y="178"/>
      <point x="380" y="355"/>
      <point x="428" y="533" type="curve"/>
      <point x="315" y="533"/>
      <point x="428" y="533"/>
    </contour>
  </outline>
</glyph>
<glyph name="w" format="1">
  <advance width="623"/>
  <unicode hex="0077"/>
  <outline>
    <contour>
      <point x="230" y="0" type="curve"/>
      <point x="274" y="178"/>
      <point x="319" y="355"/>
      <point x="362" y="533" type="curve"/>
      <point x="267" y="533"/>
      <point x="362" y="533"/>
      <point x="267" y="533" type="curve"/>
      <point x="224" y="355"/>
      <point x="180" y="178"/>
      <point x="137" y="0" type="curve"/>
      <point x="230" y="0"/>
      <point x="137" y="0"/>
    </contour>
    <contour>
      <point x="513" y="533" type="curve"/>
      <point x="472" y="355"/>
      <point x="431" y="178"/>
      <point x="392" y="0" type="curve"/>
      <point x="484" y="0"/>
      <point x="392" y="0"/>
      <point x="484" y="0" type="curve"/>
      <point x="525" y="178"/>
      <point x="567" y="355"/>
      <point x="608" y="533" type="curve"/>
      <point x="513" y="533"/>
      <point x="608" y="533"/>
    </contour>
    <contour>
      <point x="272" y="533" type="curve"/>
      <point x="311" y="355"/>
      <point x="351" y="178"/>
      <point x="391" y="0" type="curve"/>
      <point x="483" y="0"/>
      <point x="391" y="0"/>
      <point x="483" y="0" type="curve"/>
      <point x="444" y="178"/>
      <point x="405" y="355"/>
      <point x="366" y="533" type="curve"/>
      <point x="272" y="533"/>
      <point x="366" y="533"/>
    </contour>
    <contour>
      <point x="18" y="533" type="curve"/>
      <point x="57" y="355"/>
      <point x="97" y="178"/>
      <point x="137" y="0" type="curve"/>
      <point x="229" y="0"/>
      <point x="137" y="0"/>
      <point x="229" y="0" type="curve"/>
      <point x="190" y="178"/>
      <point x="151" y="355"/>
      <point x="112" y="533" type="curve"/>
      <point x="18" y="533"/>
      <point x="112" y="533"/>
    </contour>
  </outline>
</glyph>
<glyph name="x" format="1">
  <advance width="433"/>
  <unicode hex="0078"/>
  <outline>
    <contour>
      <point x="422" y="0" type="curve"/>
      <point x="402" y="43"/>
      <point x="147" y="490"/>
      <point x="126" y="533" type="curve"/>
      <point x="21" y="533"/>
      <point x="115" y="533"/>
      <point x="10" y="533" type="curve"/>
      <point x="31" y="490"/>
      <point x="288" y="43"/>
      <point x="308" y="0" type="curve"/>
      <point x="422" y="0"/>
      <point x="308" y="0"/>
    </contour>
    <contour>
      <point x="312" y="533" type="curve"/>
      <point x="291" y="490"/>
      <point x="32" y="43"/>
      <point x="11" y="0" type="curve"/>
      <point x="123" y="0"/>
      <point x="11" y="0"/>
      <point x="123" y="0" type="curve"/>
      <point x="144" y="43"/>
      <point x="402" y="490"/>
      <point x="423" y="533" type="curve"/>
      <point x="326" y="533"/>
      <point x="408" y="533"/>
    </contour>
  </outline>
</glyph>
<glyph name="y" format="1">
  <advance width="466"/>
  <unicode hex="0079"/>
  <outline>
    <contour>
      <point x="286" y="-18" type="curve"/>
      <point x="238" y="137"/>
      <point x="175" y="377"/>
      <point x="127" y="533" type="curve"/>
      <point x="11" y="533"/>
      <point x="127" y="533"/>
      <point x="11" y="533" type="curve"/>
      <point x="64" y="379"/>
      <point x="129" y="136"/>
      <point x="182" y="-19" type="curve"/>
      <point x="286" y="-19"/>
      <point x="182" y="-18"/>
    </contour>
    <contour>
      <point x="196" y="-300" type="curve"/>
      <point x="277" y="-68"/>
      <point x="381" y="301"/>
      <point x="462" y="533" type="curve"/>
      <point x="348" y="533"/>
      <point x="462" y="533"/>
      <point x="348" y="533" type="curve"/>
      <point x="266" y="301"/>
      <point x="162" y="-68"/>
      <point x="81" y="-300" type="curve"/>
      <point x="196" y="-300"/>
      <point x="81" y="-300"/>
    </contour>
    <contour>
      <point x="239" y="625" type="move" name="top"/>
    </contour>
  </outline>
</glyph>
<glyph name="z" format="1">
  <advance width="402"/>
  <unicode hex="007A"/>
  <outline>
    <contour>
      <point x="42" y="445" type="curve"/>
      <point x="134" y="445"/>
      <point x="227" y="445"/>
      <point x="320" y="445" type="curve"/>
      <point x="311" y="454"/>
      <point x="296" y="453"/>
      <point x="287" y="461" type="curve"/>
      <point x="279" y="468"/>
      <point x="282" y="483"/>
      <point x="273" y="490" type="curve"/>
      <point x="266" y="481"/>
      <point x="252" y="489"/>
      <point x="245" y="481" type="curve"/>
      <point x="31" y="89" type="line"/>
      <point x="31" y="43"/>
      <point x="31" y="89"/>
      <point x="31" y="43" type="curve"/>
      <point x="31" y="0"/>
      <point x="31" y="43"/>
      <point x="31" y="0" type="curve"/>
      <point x="72" y="0"/>
      <point x="31" y="0"/>
      <point x="72" y="0" type="curve"/>
      <point x="367" y="0"/>
      <point x="269" y="0"/>
      <point x="368" y="0" type="curve"/>
      <point x="368" y="88"/>
      <point x="368" y="0"/>
      <point x="368" y="88" type="curve"/>
      <point x="269" y="88"/>
      <point x="170" y="89"/>
      <point x="72" y="89" type="curve"/>
      <point x="79" y="81"/>
      <point x="92" y="82"/>
      <point x="100" y="75" type="curve"/>
      <point x="110" y="67"/>
      <point x="108" y="51"/>
      <point x="117" y="43" type="curve"/>
      <point x="123" y="51"/>
      <point x="127" y="45"/>
      <point x="133" y="52" type="curve"/>
      <point x="354" y="445" type="line"/>
      <point x="354" y="490"/>
      <point x="354" y="445"/>
      <point x="354" y="490" type="curve"/>
      <point x="354" y="533"/>
      <point x="354" y="490"/>
      <point x="354" y="533" type="curve"/>
      <point x="320" y="533"/>
      <point x="354" y="533"/>
      <point x="320" y="533" type="curve"/>
      <point x="227" y="533"/>
      <point x="134" y="533"/>
      <point x="42" y="533" type="curve"/>
      <point x="42" y="445"/>
      <point x="42" y="533"/>
    </contour>
    <contour>
      <point x="207" y="625" type="move" name="top"/>
    </contour>
  </outline>
</glyph>
<glyph name="braceleft" format="1">
  <advance width="219"/>
  <unicode hex="007B"/>
  <outline>
    <contour>
      <point x="180" y="-24" type="curve"/>
      <point x="146" y="-24"/>
      <point x="156" y="16"/>
      <point x="156" y="56" type="curve"/>
      <point x="156" y="109"/>
      <point x="156" y="162"/>
      <point x="156" y="215" type="curve"/>
      <point x="156" y="311"/>
      <point x="117" y="387"/>
      <point x="30" y="387" type="curve"/>
      <point x="30" y="294"/>
      <point x="30" y="387"/>
      <point x="30" y="294" type="curve"/>
      <point x="58" y="294"/>
      <point x="54" y="259"/>
      <point x="54" y="224" type="curve"/>
      <point x="54" y="169"/>
      <point x="54" y="114"/>
      <point x="54" y="61" type="curve"/>
      <point x="54" y="-37"/>
      <point x="91" y="-112"/>
      <point x="180" y="-112" type="curve"/>
      <point x="180" y="-24"/>
      <point x="180" y="-112"/>
    </contour>
    <contour>
      <point x="180" y="793" type="curve"/>
      <point x="91" y="793"/>
      <point x="54" y="720"/>
      <point x="54" y="623" type="curve"/>
      <point x="54" y="567"/>
      <point x="54" y="511"/>
      <point x="54" y="454" type="curve"/>
      <point x="54" y="420"/>
      <point x="57" y="387"/>
      <point x="30" y="387" type="curve"/>
      <point x="30" y="294"/>
      <point x="30" y="387"/>
      <point x="30" y="294" type="curve"/>
      <point x="118" y="294"/>
      <point x="156" y="369"/>
      <point x="156" y="468" type="curve"/>
      <point x="156" y="519"/>
      <point x="156" y="571"/>
      <point x="156" y="623" type="curve"/>
      <point x="156" y="663"/>
      <point x="146" y="704"/>
      <point x="180" y="704" type="curve"/>
      <point x="180" y="793"/>
      <point x="180" y="704"/>
    </contour>
  </outline>
</glyph>
<glyph name="braceright" format="1">
  <advance width="219"/>
  <unicode hex="007D"/>
  <outline>
    <contour>
      <point x="38" y="-112" type="curve"/>
      <point x="126" y="-112"/>
      <point x="164" y="-37"/>
      <point x="164" y="61" type="curve"/>
      <point x="164" y="114"/>
      <point x="164" y="169"/>
      <point x="164" y="224" type="curve"/>
      <point x="164" y="259"/>
      <point x="159" y="294"/>
      <point x="188" y="294" type="curve"/>
      <point x="188" y="387"/>
      <point x="188" y="294"/>
      <point x="188" y="387" type="curve"/>
      <point x="101" y="387"/>
      <point x="63" y="311"/>
      <point x="63" y="215" type="curve"/>
      <point x="63" y="162"/>
      <point x="63" y="109"/>
      <point x="63" y="56" type="curve"/>
      <point x="63" y="16"/>
      <point x="71" y="-24"/>
      <point x="38" y="-24" type="curve"/>
      <point x="38" y="-112"/>
      <point x="38" y="-24"/>
    </contour>
    <contour>
      <point x="38" y="704" type="curve"/>
      <point x="72" y="704"/>
      <point x="63" y="663"/>
      <point x="63" y="623" type="curve"/>
      <point x="63" y="571"/>
      <point x="63" y="519"/>
      <point x="63" y="468" type="curve"/>
      <point x="63" y="369"/>
      <point x="100" y="294"/>
      <point x="188" y="294" type="curve"/>
      <point x="188" y="387"/>
      <point x="188" y="294"/>
      <point x="188" y="387" type="curve"/>
      <point x="160" y="387"/>
      <point x="165" y="420"/>
      <point x="165" y="454" type="curve"/>
      <point x="165" y="511"/>
      <point x="165" y="567"/>
      <point x="165" y="623" type="curve"/>
      <point x="165" y="720"/>
      <point x="126" y="793"/>
      <point x="38" y="793" type="curve"/>
      <point x="38" y="704"/>
      <point x="38" y="793"/>
    </contour>
  </outline>
</glyph>
<glyph name="asciitilde" format="1">
  <advance width="519"/>
  <unicode hex="007E"/>
  <outline>
    <contour>
      <point x="376" y="371" type="curve"/>
      <point x="367" y="334"/>
      <point x="357" y="294"/>
      <point x="334" y="294" type="curve"/>
      <point x="316" y="294"/>
      <point x="308" y="304"/>
      <point x="298" y="318" type="curve"/>
      <point x="265" y="358"/>
      <point x="239" y="381"/>
      <point x="187" y="381" type="curve"/>
      <point x="103" y="381"/>
      <point x="70" y="324"/>
      <point x="53" y="236" type="curve"/>
      <point x="92" y="225"/>
      <point x="106" y="219"/>
      <point x="145" y="207" type="curve"/>
      <point x="152" y="247"/>
      <point x="161" y="286"/>
      <point x="186" y="286" type="curve"/>
      <point x="205" y="286"/>
      <point x="213" y="276"/>
      <point x="225" y="261" type="curve"/>
      <point x="259" y="221"/>
      <point x="285" y="200"/>
      <point x="337" y="199" type="curve"/>
      <point x="420" y="199"/>
      <point x="445" y="261"/>
      <point x="465" y="345" type="curve"/>
      <point x="427" y="356"/>
      <point x="414" y="360"/>
    </contour>
  </outline>
</glyph>
<glyph name="exclamdown" format="1">
  <advance width="245"/>
  <unicode hex="00A1"/>
  <outline>
    <contour>
      <point x="66" y="298" type="line"/>
      <point x="57" y="-195" type="line"/>
      <point x="188" y="-195" type="line"/>
      <point x="183" y="298" type="line"/>
    </contour>
    <contour>
      <point x="68" y="478" type="curve"/>
      <point x="68" y="439"/>
      <point x="92" y="420"/>
      <point x="126" y="419" type="curve"/>
      <point x="160" y="419"/>
      <point x="184" y="440"/>
      <point x="184" y="477" type="curve"/>
      <point x="67" y="478"/>
      <point x="184" y="477"/>
      <point x="68" y="478" type="curve"/>
      <point x="68" y="517"/>
      <point x="92" y="535"/>
      <point x="126" y="534" type="curve"/>
      <point x="162" y="534"/>
      <point x="184" y="515"/>
      <point x="184" y="477" type="curve"/>
      <point x="67" y="478"/>
      <point x="184" y="477"/>
    </contour>
  </outline>
</glyph>
<glyph name="cent" format="1">
  <advance width="478"/>
  <unicode hex="00A2"/>
  <outline>
    <contour>
      <point x="314" y="-53" type="curve"/>
      <point x="314" y="-13"/>
      <point x="314" y="27"/>
      <point x="314" y="67" type="curve"/>
      <point x="201" y="67"/>
      <point x="314" y="67"/>
      <point x="201" y="67" type="curve"/>
      <point x="201" y="27"/>
      <point x="201" y="-13"/>
      <point x="201" y="-53" type="curve"/>
      <point x="314" y="-53"/>
      <point x="201" y="-53"/>
    </contour>
    <contour>
      <point x="215" y="778" type="curve"/>
      <point x="215" y="742"/>
      <point x="215" y="706"/>
      <point x="215" y="670" type="curve"/>
      <point x="327" y="670"/>
      <point x="215" y="670"/>
      <point x="327" y="670" type="curve"/>
      <point x="327" y="706"/>
      <point x="327" y="742"/>
      <point x="327" y="778" type="curve"/>
      <point x="215" y="778"/>
      <point x="327" y="778"/>
    </contour>
    <contour>
      <point x="442" y="607" type="curve"/>
      <point x="392" y="664"/>
      <point x="346" y="685"/>
      <point x="278" y="685" type="curve"/>
      <point x="114" y="685"/>
      <point x="38" y="545"/>
      <point x="38" y="364" type="curve"/>
      <point x="38" y="188"/>
      <point x="97" y="47"/>
      <point x="253" y="47" type="curve"/>
      <point x="333" y="47"/>
      <point x="388" y="76"/>
      <point x="439" y="148" type="curve"/>
      <point x="369" y="211"/>
      <point x="439" y="148"/>
      <point x="369" y="211" type="curve"/>
      <point x="339" y="172"/>
      <point x="313" y="140"/>
      <point x="263" y="140" type="curve"/>
      <point x="168" y="140"/>
      <point x="150" y="248"/>
      <point x="150" y="369" type="curve"/>
      <point x="150" y="487"/>
      <point x="179" y="592"/>
      <point x="268" y="592" type="curve"/>
      <point x="315" y="592"/>
      <point x="346" y="572"/>
      <point x="376" y="537" type="curve"/>
      <point x="442" y="607"/>
      <point x="376" y="537"/>
    </contour>
  </outline>
</glyph>
<glyph name="sterling" format="1">
  <advance width="369"/>
  <unicode hex="00A3"/>
  <outline>
    <contour>
      <point x="310" y="89" type="curve"/>
      <point x="222" y="89"/>
      <point x="128" y="89"/>
      <point x="41" y="89" type="curve"/>
      <point x="41" y="0"/>
      <point x="41" y="89"/>
      <point x="41" y="0" type="curve"/>
      <point x="128" y="0"/>
      <point x="222" y="0"/>
      <point x="310" y="0" type="curve"/>
      <point x="310" y="89"/>
      <point x="310" y="0"/>
    </contour>
    <contour>
      <point x="273" y="419" type="curve"/>
      <point x="202" y="419"/>
      <point x="123" y="419"/>
      <point x="54" y="419" type="curve"/>
      <point x="54" y="332"/>
      <point x="54" y="419"/>
      <point x="54" y="332" type="curve"/>
      <point x="123" y="332"/>
      <point x="202" y="332"/>
      <point x="273" y="332" type="curve"/>
      <point x="273" y="419"/>
      <point x="273" y="332"/>
    </contour>
    <contour>
      <point x="335" y="664" type="curve"/>
      <point x="301" y="707"/>
      <point x="270" y="722"/>
      <point x="225" y="722" type="curve"/>
      <point x="74" y="722"/>
      <point x="63" y="557"/>
      <point x="91" y="365" type="curve"/>
      <point x="111" y="225"/>
      <point x="124" y="89"/>
      <point x="41" y="89" type="curve"/>
      <point x="41" y="0"/>
      <point x="41" y="89"/>
      <point x="41" y="0" type="curve"/>
      <point x="207" y="0"/>
      <point x="217" y="178"/>
      <point x="188" y="384" type="curve"/>
      <point x="170" y="512"/>
      <point x="152" y="637"/>
      <point x="219" y="637" type="curve"/>
      <point x="246" y="637"/>
      <point x="259" y="619"/>
      <point x="277" y="600" type="curve"/>
      <point x="335" y="664"/>
      <point x="277" y="600"/>
    </contour>
  </outline>
</glyph>
<glyph name="currency" format="1">
  <advance width="549"/>
  <unicode hex="00A4"/>
  <outline>
    <contour>
      <point x="228" y="315" type="curve"/>
      <point x="228" y="365"/>
      <point x="230" y="415"/>
      <point x="272" y="415" type="curve"/>
      <point x="315" y="415"/>
      <point x="318" y="369"/>
      <point x="318" y="316" type="curve"/>
      <point x="318" y="265"/>
      <point x="316" y="210"/>
      <point x="273" y="210" type="curve"/>
      <point x="229" y="210"/>
      <point x="228" y="261"/>
      <point x="228" y="315" type="curve"/>
      <point x="116" y="315"/>
      <point x="235" y="315"/>
      <point x="123" y="315" type="curve"/>
      <point x="123" y="205"/>
      <point x="172" y="122"/>
      <point x="275" y="122" type="curve"/>
      <point x="377" y="122"/>
      <point x="426" y="207"/>
      <point x="426" y="318" type="curve"/>
      <point x="426" y="423"/>
      <point x="379" y="502"/>
      <point x="281" y="502" type="curve"/>
      <point x="178" y="502"/>
      <point x="123" y="424"/>
      <point x="123" y="315" type="curve"/>
      <point x="235" y="315"/>
      <point x="116" y="315"/>
    </contour>
    <contour>
      <point x="346" y="366" type="line"/>
      <point x="499" y="508" type="line"/>
      <point x="420" y="587" type="line"/>
      <point x="279" y="433" type="line"/>
    </contour>
    <contour>
      <point x="284" y="200" type="line"/>
      <point x="426" y="47" type="line"/>
      <point x="505" y="125" type="line"/>
      <point x="351" y="267" type="line"/>
    </contour>
    <contour>
      <point x="198" y="266" type="line"/>
      <point x="45" y="124" type="line"/>
      <point x="123" y="46" type="line"/>
      <point x="265" y="199" type="line"/>
    </contour>
    <contour>
      <point x="273" y="434" type="line"/>
      <point x="131" y="587" type="line"/>
      <point x="53" y="509" type="line"/>
      <point x="206" y="367" type="line"/>
    </contour>
  </outline>
</glyph>
<glyph name="yen" format="1">
  <advance width="482"/>
  <unicode hex="00A5"/>
  <outline>
    <contour>
      <point x="384" y="404" type="curve"/>
      <point x="338" y="404"/>
      <point x="292" y="404"/>
      <point x="247" y="404" type="curve"/>
      <point x="247" y="307"/>
      <point x="247" y="404"/>
      <point x="247" y="307" type="curve"/>
      <point x="292" y="307"/>
      <point x="338" y="307"/>
      <point x="384" y="307" type="curve"/>
      <point x="384" y="404"/>
      <point x="384" y="307"/>
    </contour>
    <contour>
      <point x="228" y="404" type="curve"/>
      <point x="182" y="404"/>
      <point x="137" y="404"/>
      <point x="93" y="404" type="curve"/>
      <point x="93" y="307"/>
      <point x="93" y="404"/>
      <point x="93" y="307" type="curve"/>
      <point x="137" y="307"/>
      <point x="182" y="307"/>
      <point x="228" y="307" type="curve"/>
      <point x="228" y="404"/>
      <point x="228" y="307"/>
    </contour>
    <contour>
      <point x="384" y="269" type="curve"/>
      <point x="286" y="269"/>
      <point x="189" y="269"/>
      <point x="93" y="269" type="curve"/>
      <point x="93" y="173"/>
      <point x="93" y="269"/>
      <point x="93" y="173" type="curve"/>
      <point x="189" y="173"/>
      <point x="286" y="173"/>
      <point x="384" y="173" type="curve"/>
      <point x="384" y="269"/>
      <point x="384" y="173"/>
    </contour>
    <contour>
      <point x="30" y="722" type="curve"/>
      <point x="82" y="592"/>
      <point x="125" y="470"/>
      <point x="176" y="337" type="curve"/>
      <point x="290" y="337"/>
      <point x="157" y="337"/>
      <point x="271" y="337" type="curve"/>
      <point x="228" y="469"/>
      <point x="187" y="591"/>
      <point x="142" y="722" type="curve"/>
      <point x="24" y="722"/>
      <point x="147" y="722"/>
    </contour>
    <contour>
      <point x="343" y="722" type="curve"/>
      <point x="292" y="590"/>
      <point x="248" y="468"/>
      <point x="196" y="337" type="curve"/>
      <point x="310" y="337"/>
      <point x="186" y="337"/>
      <point x="300" y="337" type="curve"/>
      <point x="354" y="469"/>
      <point x="402" y="593"/>
      <point x="457" y="722" type="curve"/>
      <point x="339" y="722"/>
      <point x="461" y="722"/>
    </contour>
    <contour>
      <point x="299" y="0" type="curve"/>
      <point x="299" y="115"/>
      <point x="299" y="223"/>
      <point x="299" y="338" type="curve"/>
      <point x="177" y="338"/>
      <point x="299" y="338"/>
      <point x="177" y="338" type="curve"/>
      <point x="177" y="223"/>
      <point x="177" y="115"/>
      <point x="177" y="0" type="curve"/>
      <point x="299" y="0"/>
      <point x="177" y="0"/>
    </contour>
  </outline>
</glyph>
<glyph name="brokenbar" format="1">
  <advance width="259"/>
  <unicode hex="00A6"/>
  <outline>
    <contour>
      <point x="185" y="-300" type="curve"/>
      <point x="185" y="-176"/>
      <point x="185" y="-52"/>
      <point x="185" y="72" type="curve"/>
      <point x="73" y="72"/>
      <point x="185" y="72"/>
      <point x="73" y="72" type="curve"/>
      <point x="73" y="-52"/>
      <point x="73" y="-176"/>
      <point x="73" y="-300" type="curve"/>
      <point x="185" y="-300"/>
      <point x="73" y="-300"/>
    </contour>
    <contour>
      <point x="185" y="428" type="curve"/>
      <point x="185" y="552"/>
      <point x="185" y="676"/>
      <point x="185" y="800" type="curve"/>
      <point x="73" y="800"/>
      <point x="185" y="800"/>
      <point x="73" y="800" type="curve"/>
      <point x="73" y="676"/>
      <point x="73" y="552"/>
      <point x="73" y="428" type="curve"/>
      <point x="185" y="428"/>
      <point x="73" y="428"/>
    </contour>
  </outline>
</glyph>
<glyph name="section" format="1">
  <advance width="403"/>
  <unicode hex="00A7"/>
  <outline>
    <contour>
      <point x="321" y="700" type="curve"/>
      <point x="282" y="734"/>
      <point x="252" y="749"/>
      <point x="206" y="749" type="curve"/>
      <point x="116" y="749"/>
      <point x="63" y="689"/>
      <point x="63" y="602" type="curve"/>
      <point x="63" y="526"/>
      <point x="98" y="473"/>
      <point x="167" y="441" type="curve"/>
      <point x="211" y="419"/>
      <point x="254" y="405"/>
      <point x="254" y="362" type="curve"/>
      <point x="254" y="315"/>
      <point x="236" y="280"/>
      <point x="192" y="268" type="curve"/>
      <point x="259" y="198"/>
      <point x="192" y="268"/>
      <point x="259" y="198" type="curve"/>
      <point x="334" y="221"/>
      <point x="366" y="281"/>
      <point x="366" y="361" type="curve"/>
      <point x="365" y="446"/>
      <point x="304" y="489"/>
      <point x="223" y="525" type="curve"/>
      <point x="191" y="540"/>
      <point x="167" y="566"/>
      <point x="167" y="602" type="curve"/>
      <point x="167" y="631"/>
      <point x="178" y="661"/>
      <point x="208" y="661" type="curve"/>
      <point x="238" y="661"/>
      <point x="249" y="649"/>
      <point x="267" y="631" type="curve"/>
      <point x="321" y="700"/>
      <point x="267" y="631"/>
    </contour>
    <contour>
      <point x="147" y="524" type="curve"/>
      <point x="76" y="494"/>
      <point x="40" y="443"/>
      <point x="40" y="366" type="curve"/>
      <point x="40" y="284"/>
      <point x="89" y="234"/>
      <point x="167" y="201" type="curve"/>
      <point x="204" y="183"/>
      <point x="239" y="168"/>
      <point x="239" y="125" type="curve"/>
      <point x="239" y="92"/>
      <point x="228" y="61"/>
      <point x="201" y="61" type="curve"/>
      <point x="168" y="61"/>
      <point x="153" y="78"/>
      <point x="132" y="101" type="curve"/>
      <point x="68" y="40"/>
      <point x="132" y="101"/>
      <point x="68" y="40" type="curve"/>
      <point x="108" y="-8"/>
      <point x="145" y="-27"/>
      <point x="200" y="-27" type="curve"/>
      <point x="290" y="-27"/>
      <point x="347" y="32"/>
      <point x="347" y="125" type="curve"/>
      <point x="346" y="201"/>
      <point x="309" y="253"/>
      <point x="238" y="284" type="curve"/>
      <point x="194" y="305"/>
      <point x="152" y="321"/>
      <point x="152" y="365" type="curve"/>
      <point x="152" y="408"/>
      <point x="165" y="442"/>
      <point x="202" y="458" type="curve"/>
      <point x="147" y="524"/>
      <point x="202" y="458"/>
    </contour>
  </outline>
</glyph>
<glyph name="dieresis" format="1">
  <advance width="365"/>
  <unicode hex="00A8"/>
  <outline>
    <contour>
      <point x="156" y="681" type="curve"/>
      <point x="156" y="720"/>
      <point x="131" y="739"/>
      <point x="97" y="739" type="curve"/>
      <point x="63" y="739"/>
      <point x="40" y="718"/>
      <point x="40" y="681" type="curve"/>
      <point x="157" y="681"/>
      <point x="39" y="681"/>
      <point x="156" y="681" type="curve"/>
      <point x="156" y="642"/>
      <point x="132" y="624"/>
      <point x="97" y="624" type="curve"/>
      <point x="62" y="624"/>
      <point x="40" y="643"/>
      <point x="40" y="681" type="curve"/>
      <point x="157" y="681"/>
      <point x="39" y="681"/>
    </contour>
    <contour>
      <point x="320" y="681" type="curve"/>
      <point x="320" y="720"/>
      <point x="295" y="739"/>
      <point x="261" y="739" type="curve"/>
      <point x="227" y="739"/>
      <point x="204" y="718"/>
      <point x="204" y="681" type="curve"/>
      <point x="321" y="681"/>
      <point x="204" y="681"/>
      <point x="320" y="681" type="curve"/>
      <point x="320" y="642"/>
      <point x="296" y="624"/>
      <point x="262" y="624" type="curve"/>
      <point x="226" y="624"/>
      <point x="204" y="643"/>
      <point x="204" y="681" type="curve"/>
      <point x="321" y="681"/>
      <point x="204" y="681"/>
    </contour>
    <contour>
      <point x="179" y="630" type="move" name="_top"/>
    </contour>
  </outline>
</glyph>
<glyph name="copyright" format="1">
  <advance width="575"/>
  <unicode hex="00A9"/>
  <outline>
    <contour>
      <point x="133" y="323" type="curve"/>
      <point x="133" y="454"/>
      <point x="176" y="573"/>
      <point x="289" y="573" type="curve"/>
      <point x="401" y="573"/>
      <point x="442" y="453"/>
      <point x="442" y="321" type="curve"/>
      <point x="442" y="194"/>
      <point x="403" y="75"/>
      <point x="295" y="75" type="curve"/>
      <point x="182" y="75"/>
      <point x="133" y="192"/>
      <point x="133" y="323" type="curve"/>
      <point x="41" y="323"/>
      <point x="135" y="323"/>
      <point x="44" y="323" type="curve"/>
      <point x="44" y="149"/>
      <point x="130" y="3"/>
      <point x="291" y="3" type="curve"/>
      <point x="449" y="3"/>
      <point x="529" y="150"/>
      <point x="529" y="324" type="curve"/>
      <point x="529" y="499"/>
      <point x="447" y="645"/>
      <point x="289" y="645" type="curve"/>
      <point x="128" y="645"/>
      <point x="44" y="499"/>
      <point x="44" y="323" type="curve"/>
      <point x="135" y="323"/>
      <point x="41" y="323"/>
    </contour>
    <contour>
      <point x="402" y="439" type="curve"/>
      <point x="372" y="491"/>
      <point x="338" y="509"/>
      <point x="295" y="509" type="curve"/>
      <point x="197" y="509"/>
      <point x="157" y="428"/>
      <point x="157" y="322" type="curve"/>
      <point x="157" y="219"/>
      <point x="190" y="140"/>
      <point x="283" y="140" type="curve"/>
      <point x="332" y="140"/>
      <point x="367" y="151"/>
      <point x="399" y="206" type="curve"/>
      <point x="339" y="244"/>
      <point x="399" y="206"/>
      <point x="339" y="244" type="curve"/>
      <point x="325" y="226"/>
      <point x="312" y="212"/>
      <point x="287" y="212" type="curve"/>
      <point x="240" y="212"/>
      <point x="240" y="267"/>
      <point x="240" y="325" type="curve"/>
      <point x="240" y="384"/>
      <point x="243" y="437"/>
      <point x="291" y="437" type="curve"/>
      <point x="311" y="437"/>
      <point x="324" y="430"/>
      <point x="333" y="412" type="curve"/>
      <point x="409" y="441"/>
      <point x="326" y="409"/>
    </contour>
  </outline>
</glyph>
<glyph name="ordfeminine" format="1">
  <advance width="318"/>
  <unicode hex="00AA"/>
  <outline>
    <contour>
      <point x="259" y="425" type="curve"/>
      <point x="259" y="507"/>
      <point x="259" y="584"/>
      <point x="259" y="666" type="curve"/>
      <point x="259" y="733"/>
      <point x="219" y="767"/>
      <point x="155" y="767" type="curve"/>
      <point x="110" y="767"/>
      <point x="80" y="747"/>
      <point x="57" y="719" type="curve"/>
      <point x="83" y="673"/>
      <point x="58" y="716"/>
      <point x="85" y="670" type="curve"/>
      <point x="100" y="687"/>
      <point x="116" y="706"/>
      <point x="146" y="706" type="curve"/>
      <point x="173" y="706"/>
      <point x="186" y="686"/>
      <point x="186" y="657" type="curve"/>
      <point x="186" y="577"/>
      <point x="186" y="504"/>
      <point x="186" y="425" type="curve"/>
      <point x="256" y="425"/>
      <point x="190" y="425"/>
    </contour>
    <contour>
      <point x="221" y="644" type="curve"/>
      <point x="190" y="638"/>
      <point x="171" y="636"/>
      <point x="140" y="630" type="curve"/>
      <point x="79" y="620"/>
      <point x="41" y="588"/>
      <point x="41" y="527" type="curve"/>
      <point x="41" y="464"/>
      <point x="71" y="423"/>
      <point x="131" y="423" type="curve"/>
      <point x="189" y="423"/>
      <point x="211" y="476"/>
      <point x="242" y="518" type="curve"/>
      <point x="206" y="549"/>
      <point x="240" y="520"/>
      <point x="204" y="551" type="curve"/>
      <point x="192" y="514"/>
      <point x="183" y="482"/>
      <point x="150" y="482" type="curve"/>
      <point x="121" y="482"/>
      <point x="112" y="502"/>
      <point x="112" y="531" type="curve"/>
      <point x="112" y="554"/>
      <point x="125" y="574"/>
      <point x="143" y="579" type="curve"/>
      <point x="177" y="585"/>
      <point x="191" y="588"/>
      <point x="224" y="594" type="curve"/>
      <point x="221" y="641"/>
      <point x="224" y="597"/>
    </contour>
  </outline>
</glyph>
<glyph name="guillemotleft" format="1">
  <advance width="404"/>
  <unicode hex="00AB"/>
  <outline>
    <contour>
      <point x="185" y="468" type="curve"/>
      <point x="157" y="442"/>
      <point x="67" y="368"/>
      <point x="38" y="342" type="curve"/>
      <point x="38" y="244"/>
      <point x="38" y="324"/>
      <point x="38" y="227" type="curve"/>
      <point x="67" y="253"/>
      <point x="157" y="336"/>
      <point x="185" y="363" type="curve"/>
      <point x="185" y="459"/>
      <point x="185" y="372"/>
    </contour>
    <contour>
      <point x="186" y="208" type="curve"/>
      <point x="158" y="234"/>
      <point x="67" y="315"/>
      <point x="38" y="342" type="curve"/>
      <point x="38" y="244"/>
      <point x="38" y="324"/>
      <point x="38" y="227" type="curve"/>
      <point x="67" y="200"/>
      <point x="158" y="129"/>
      <point x="186" y="103" type="curve"/>
      <point x="186" y="199"/>
      <point x="186" y="112"/>
    </contour>
    <contour>
      <point x="342" y="468" type="curve"/>
      <point x="314" y="442"/>
      <point x="224" y="368"/>
      <point x="195" y="342" type="curve"/>
      <point x="195" y="244"/>
      <point x="195" y="324"/>
      <point x="195" y="227" type="curve"/>
      <point x="224" y="253"/>
      <point x="314" y="336"/>
      <point x="342" y="363" type="curve"/>
      <point x="342" y="459"/>
      <point x="342" y="372"/>
    </contour>
    <contour>
      <point x="343" y="208" type="curve"/>
      <point x="314" y="234"/>
      <point x="224" y="315"/>
      <point x="195" y="342" type="curve"/>
      <point x="195" y="244"/>
      <point x="195" y="324"/>
      <point x="195" y="227" type="curve"/>
      <point x="224" y="200"/>
      <point x="314" y="129"/>
      <point x="343" y="103" type="curve"/>
      <point x="343" y="199"/>
      <point x="343" y="112"/>
    </contour>
  </outline>
</glyph>
<glyph name="logicalnot" format="1">
  <advance width="484"/>
  <unicode hex="00AC"/>
  <outline>
    <contour>
      <point x="62" y="266" type="curve"/>
      <point x="419" y="266" type="line"/>
      <point x="419" y="362"/>
      <point x="419" y="266"/>
      <point x="419" y="362" type="curve"/>
      <point x="62" y="362" type="line"/>
      <point x="62" y="266"/>
      <point x="62" y="362"/>
    </contour>
    <contour>
      <point x="419" y="142" type="curve"/>
      <point x="419" y="362" type="line"/>
      <point x="307" y="362"/>
      <point x="419" y="362"/>
      <point x="307" y="362" type="curve"/>
      <point x="307" y="142" type="line"/>
      <point x="419" y="142"/>
      <point x="307" y="142"/>
    </contour>
  </outline>
</glyph>
<glyph name="registered" format="1">
  <advance width="598"/>
  <unicode hex="00AE"/>
  <outline>
    <contour>
      <point x="122" y="321" type="curve"/>
      <point x="122" y="463"/>
      <point x="175" y="579"/>
      <point x="302" y="579" type="curve"/>
      <point x="428" y="579"/>
      <point x="477" y="462"/>
      <point x="477" y="319" type="curve"/>
      <point x="477" y="180"/>
      <point x="431" y="65"/>
      <point x="308" y="65" type="curve"/>
      <point x="180" y="65"/>
      <point x="122" y="179"/>
      <point x="122" y="321" type="curve"/>
      <point x="90" y="321"/>
      <point x="78" y="321"/>
      <point x="47" y="321" type="curve"/>
      <point x="47" y="139"/>
      <point x="134" y="1"/>
      <point x="304" y="1" type="curve"/>
      <point x="472" y="1"/>
      <point x="552" y="141"/>
      <point x="552" y="322" type="curve"/>
      <point x="552" y="504"/>
      <point x="470" y="644"/>
      <point x="302" y="644" type="curve"/>
      <point x="131" y="644"/>
      <point x="47" y="504"/>
      <point x="47" y="321" type="curve"/>
      <point x="78" y="321"/>
      <point x="90" y="321"/>
    </contour>
    <contour>
      <point x="281" y="319" type="curve"/>
      <point x="282" y="310"/>
      <point x="345" y="151"/>
      <point x="345" y="143" type="curve"/>
      <point x="388" y="143"/>
      <point x="377" y="143"/>
      <point x="418" y="143" type="curve"/>
      <point x="417" y="151"/>
      <point x="353" y="304"/>
      <point x="352" y="312" type="curve"/>
      <point x="253" y="312"/>
      <point x="381" y="319"/>
    </contour>
    <contour>
      <point x="287" y="143" type="curve"/>
      <point x="287" y="238"/>
      <point x="287" y="408"/>
      <point x="287" y="503" type="curve"/>
      <point x="234" y="503"/>
      <point x="266" y="504"/>
      <point x="207" y="504" type="curve"/>
      <point x="207" y="410"/>
      <point x="207" y="238"/>
      <point x="207" y="143" type="curve"/>
      <point x="263" y="143"/>
      <point x="221" y="143"/>
    </contour>
    <contour>
      <point x="254" y="276" type="curve"/>
      <point x="266" y="276"/>
      <point x="278" y="276"/>
      <point x="290" y="276" type="curve"/>
      <point x="363" y="276"/>
      <point x="407" y="316"/>
      <point x="407" y="392" type="curve"/>
      <point x="407" y="458"/>
      <point x="370" y="504"/>
      <point x="307" y="504" type="curve"/>
      <point x="304" y="504"/>
      <point x="202" y="504"/>
      <point x="200" y="504" type="curve"/>
      <point x="208" y="467"/>
      <point x="298" y="504"/>
      <point x="207" y="432" type="curve"/>
      <point x="235" y="432"/>
      <point x="263" y="432"/>
      <point x="291" y="432" type="curve"/>
      <point x="315" y="432"/>
      <point x="329" y="415"/>
      <point x="329" y="389" type="curve"/>
      <point x="329" y="366"/>
      <point x="322" y="347"/>
      <point x="302" y="347" type="curve"/>
      <point x="286" y="347"/>
      <point x="270" y="347"/>
      <point x="254" y="347" type="curve"/>
      <point x="254" y="276"/>
      <point x="254" y="347"/>
    </contour>
  </outline>
</glyph>
<glyph name="macron" format="1">
  <advance width="260"/>
  <unicode hex="00AF"/>
  <outline>
    <contour>
      <point x="174" y="687" type="curve"/>
      <point x="126" y="687"/>
      <point x="76" y="687"/>
      <point x="28" y="687" type="curve"/>
      <point x="28" y="600"/>
      <point x="28" y="687"/>
      <point x="28" y="600" type="curve"/>
      <point x="76" y="600"/>
      <point x="126" y="600"/>
      <point x="174" y="600" type="curve"/>
      <point x="174" y="687"/>
      <point x="174" y="600"/>
    </contour>
    <contour>
      <point x="102" y="600" type="move" name="_top"/>
    </contour>
  </outline>
</glyph>
<glyph name="degree" format="1">
  <advance width="359"/>
  <unicode hex="00B0"/>
  <outline>
    <contour>
      <point x="320" y="594" type="curve"/>
      <point x="320" y="694"/>
      <point x="273" y="765"/>
      <point x="178" y="765" type="curve"/>
      <point x="85" y="765"/>
      <point x="40" y="693"/>
      <point x="40" y="594" type="curve"/>
      <point x="67" y="594"/>
      <point x="103" y="594"/>
      <point x="130" y="594" type="curve"/>
      <point x="130" y="643"/>
      <point x="136" y="686"/>
      <point x="177" y="686" type="curve"/>
      <point x="219" y="686"/>
      <point x="226" y="643"/>
      <point x="226" y="594" type="curve"/>
      <point x="226" y="544"/>
      <point x="221" y="501"/>
      <point x="180" y="501" type="curve"/>
      <point x="137" y="501"/>
      <point x="130" y="544"/>
      <point x="130" y="594" type="curve"/>
      <point x="103" y="594"/>
      <point x="67" y="594"/>
      <point x="40" y="594" type="curve"/>
      <point x="40" y="493"/>
      <point x="85" y="421"/>
      <point x="180" y="421" type="curve"/>
      <point x="275" y="421"/>
      <point x="320" y="493"/>
    </contour>
  </outline>
</glyph>
<glyph name="plusminus" format="1">
  <advance width="598"/>
  <unicode hex="00B1"/>
  <outline>
    <contour>
      <point x="51" y="52" type="line"/>
      <point x="547" y="52" type="line"/>
      <point x="547" y="148" type="line"/>
      <point x="51" y="148" type="line"/>
    </contour>
    <contour>
      <point x="51" y="266" type="curve"/>
      <point x="547" y="266" type="line"/>
      <point x="547" y="362"/>
      <point x="547" y="266"/>
      <point x="547" y="362" type="curve"/>
      <point x="51" y="362" type="line"/>
      <point x="51" y="266"/>
      <point x="51" y="362"/>
    </contour>
    <contour>
      <point x="351" y="53" type="curve"/>
      <point x="351" y="579" type="line"/>
      <point x="239" y="579"/>
      <point x="359" y="579"/>
      <point x="247" y="579" type="curve"/>
      <point x="247" y="53" type="line"/>
      <point x="359" y="53"/>
      <point x="239" y="53"/>
    </contour>
  </outline>
</glyph>
<glyph name="twosuperior" format="1">
  <advance width="346"/>
  <unicode hex="00B2"/>
  <outline>
    <contour>
      <point x="42" y="387" type="curve"/>
      <point x="118" y="387"/>
      <point x="224" y="387"/>
      <point x="297" y="387" type="curve"/>
      <point x="297" y="422"/>
      <point x="297" y="411"/>
      <point x="297" y="456" type="curve"/>
      <point x="220" y="456"/>
      <point x="119" y="456"/>
      <point x="42" y="456" type="curve"/>
      <point x="42" y="387"/>
      <point x="42" y="456"/>
    </contour>
    <contour>
      <point x="126" y="685" type="curve"/>
      <point x="130" y="714"/>
      <point x="139" y="743"/>
      <point x="168" y="743" type="curve"/>
      <point x="197" y="743"/>
      <point x="205" y="713"/>
      <point x="205" y="677" type="curve"/>
      <point x="205" y="640"/>
      <point x="187" y="618"/>
      <point x="163" y="590" type="curve"/>
      <point x="123" y="545"/>
      <point x="83" y="500"/>
      <point x="42" y="456" type="curve"/>
      <point x="45" y="387"/>
      <point x="42" y="456"/>
      <point x="44" y="387" type="curve"/>
      <point x="96" y="434"/>
      <point x="175" y="484"/>
      <point x="222" y="535" type="curve"/>
      <point x="260" y="581"/>
      <point x="287" y="619"/>
      <point x="287" y="681" type="curve"/>
      <point x="287" y="757"/>
      <point x="245" y="811"/>
      <point x="171" y="811" type="curve"/>
      <point x="113" y="811"/>
      <point x="75" y="784"/>
      <point x="61" y="705" type="curve"/>
      <point x="126" y="685"/>
      <point x="61" y="705"/>
    </contour>
    <contour>
      <point x="182" y="812" type="move" name="_top"/>
    </contour>
    <contour>
      <point x="160" y="387" type="move" name="_bottom"/>
    </contour>
  </outline>
</glyph>
<glyph name="threesuperior" format="1">
  <advance width="309"/>
  <unicode hex="00B3"/>
  <outline>
    <contour>
      <point x="95" y="708" type="curve"/>
      <point x="104" y="722"/>
      <point x="113" y="738"/>
      <point x="133" y="738" type="curve"/>
      <point x="158" y="738"/>
      <point x="170" y="715"/>
      <point x="170" y="683" type="curve"/>
      <point x="170" y="649"/>
      <point x="142" y="630"/>
      <point x="106" y="627" type="curve"/>
      <point x="106" y="568"/>
      <point x="106" y="627"/>
      <point x="106" y="568" type="curve"/>
      <point x="192" y="571"/>
      <point x="257" y="612"/>
      <point x="257" y="690" type="curve"/>
      <point x="257" y="763"/>
      <point x="213" y="808"/>
      <point x="141" y="808" type="curve"/>
      <point x="99" y="808"/>
      <point x="61" y="786"/>
      <point x="40" y="751" type="curve"/>
      <point x="95" y="708"/>
      <point x="40" y="751"/>
    </contour>
    <contour>
      <point x="39" y="415" type="curve"/>
      <point x="65" y="392"/>
      <point x="93" y="379"/>
      <point x="127" y="379" type="curve"/>
      <point x="213" y="379"/>
      <point x="267" y="424"/>
      <point x="267" y="507" type="curve"/>
      <point x="267" y="585"/>
      <point x="195" y="614"/>
      <point x="106" y="618" type="curve"/>
      <point x="106" y="567"/>
      <point x="106" y="618"/>
      <point x="106" y="567" type="curve"/>
      <point x="149" y="563"/>
      <point x="179" y="540"/>
      <point x="179" y="502" type="curve"/>
      <point x="179" y="471"/>
      <point x="164" y="447"/>
      <point x="134" y="449" type="curve"/>
      <point x="116" y="449"/>
      <point x="97" y="454"/>
      <point x="85" y="467" type="curve"/>
      <point x="39" y="415"/>
      <point x="85" y="467"/>
    </contour>
    <contour>
      <point x="151" y="808" type="move" name="_top"/>
    </contour>
    <contour>
      <point x="150" y="380" type="move" name="_bottom"/>
    </contour>
  </outline>
</glyph>
<glyph name="paragraph" format="1">
  <advance width="623"/>
  <unicode hex="00B6"/>
  <outline>
    <contour>
      <point x="322" y="634" type="curve"/>
      <point x="449" y="634"/>
      <point x="322" y="634"/>
      <point x="449" y="634" type="curve"/>
      <point x="449" y="722"/>
      <point x="449" y="634"/>
      <point x="449" y="722" type="curve"/>
      <point x="407" y="722"/>
      <point x="364" y="722"/>
      <point x="322" y="722" type="curve"/>
      <point x="322" y="634"/>
      <point x="322" y="722"/>
    </contour>
    <contour>
      <point x="303" y="378" type="curve"/>
      <point x="274" y="357"/>
      <point x="252" y="344"/>
      <point x="216" y="344" type="curve"/>
      <point x="157" y="344"/>
      <point x="143" y="407"/>
      <point x="143" y="479" type="curve"/>
      <point x="143" y="561"/>
      <point x="172" y="634"/>
      <point x="245" y="634" type="curve"/>
      <point x="271" y="634"/>
      <point x="295" y="634"/>
      <point x="320" y="634" type="curve"/>
      <point x="320" y="722"/>
      <point x="320" y="634"/>
      <point x="320" y="722" type="curve"/>
      <point x="291" y="722"/>
      <point x="260" y="722"/>
      <point x="230" y="722" type="curve"/>
      <point x="102" y="722"/>
      <point x="31" y="618"/>
      <point x="31" y="483" type="curve"/>
      <point x="31" y="351"/>
      <point x="100" y="262"/>
      <point x="225" y="260" type="curve"/>
      <point x="269" y="260"/>
      <point x="304" y="281"/>
      <point x="339" y="306" type="curve"/>
      <point x="303" y="378"/>
      <point x="338" y="309"/>
    </contour>
    <contour>
      <point x="379" y="0" type="curve"/>
      <point x="379" y="241"/>
      <point x="379" y="481"/>
      <point x="379" y="722" type="curve"/>
      <point x="267" y="722"/>
      <point x="379" y="722"/>
      <point x="267" y="722" type="curve"/>
      <point x="267" y="481"/>
      <point x="267" y="241"/>
      <point x="267" y="0" type="curve"/>
      <point x="379" y="0"/>
      <point x="267" y="0"/>
    </contour>
    <contour>
      <point x="554" y="0" type="curve"/>
      <point x="554" y="241"/>
      <point x="554" y="481"/>
      <point x="554" y="722" type="curve"/>
      <point x="442" y="722"/>
      <point x="554" y="722"/>
      <point x="442" y="722" type="curve"/>
      <point x="442" y="481"/>
      <point x="442" y="241"/>
      <point x="442" y="0" type="curve"/>
      <point x="554" y="0"/>
      <point x="442" y="0"/>
    </contour>
  </outline>
</glyph>
<glyph name="periodcentered" format="1">
  <advance width="212"/>
  <unicode hex="00B7"/>
  <outline>
    <contour>
      <point x="164" y="440" type="curve"/>
      <point x="164" y="479"/>
      <point x="139" y="498"/>
      <point x="105" y="498" type="curve"/>
      <point x="70" y="498"/>
      <point x="48" y="477"/>
      <point x="48" y="440" type="curve"/>
      <point x="165" y="440"/>
      <point x="47" y="440"/>
      <point x="164" y="440" type="curve"/>
      <point x="164" y="401"/>
      <point x="140" y="383"/>
      <point x="105" y="383" type="curve"/>
      <point x="70" y="383"/>
      <point x="48" y="402"/>
      <point x="48" y="440" type="curve"/>
      <point x="165" y="440"/>
      <point x="47" y="440"/>
    </contour>
  </outline>
</glyph>
<glyph name="cedilla" format="1">
  <advance width="267"/>
  <unicode hex="00B8"/>
  <outline>
    <contour>
      <point x="101" y="128" type="curve"/>
      <point x="92" y="105"/>
      <point x="64" y="27"/>
      <point x="55" y="4" type="curve"/>
      <point x="132" y="-66"/>
      <point x="55" y="4"/>
      <point x="132" y="-66" type="curve"/>
      <point x="142" y="-40"/>
      <point x="177" y="40"/>
      <point x="187" y="66" type="curve"/>
      <point x="101" y="128"/>
      <point x="187" y="66"/>
    </contour>
    <contour>
      <point x="132" y="-66" type="curve"/>
      <point x="138" y="-61"/>
      <point x="142" y="-56"/>
      <point x="150" y="-56" type="curve"/>
      <point x="161" y="-56"/>
      <point x="165" y="-65"/>
      <point x="165" y="-80" type="curve"/>
      <point x="165" y="-97"/>
      <point x="153" y="-106"/>
      <point x="135" y="-106" type="curve"/>
      <point x="119" y="-106"/>
      <point x="105" y="-103"/>
      <point x="93" y="-93" type="curve"/>
      <point x="49" y="-156"/>
      <point x="93" y="-93"/>
      <point x="49" y="-156" type="curve"/>
      <point x="73" y="-175"/>
      <point x="98" y="-183"/>
      <point x="130" y="-183" type="curve"/>
      <point x="190" y="-183"/>
      <point x="228" y="-143"/>
      <point x="228" y="-79" type="curve"/>
      <point x="228" y="-16"/>
      <point x="194" y="27"/>
      <point x="135" y="27" type="curve"/>
      <point x="104" y="27"/>
      <point x="82" y="22"/>
      <point x="55" y="4" type="curve"/>
      <point x="132" y="-66"/>
      <point x="55" y="4"/>
    </contour>
    <contour>
      <point x="183" y="66" type="move" name="_bottom"/>
    </contour>
  </outline>
</glyph>
<glyph name="onesuperior" format="1">
  <advance width="246"/>
  <unicode hex="00B9"/>
  <outline>
    <contour>
      <point x="65" y="661" type="line"/>
      <point x="181" y="799" type="line"/>
      <point x="95" y="801" type="line"/>
      <point x="13" y="712" type="line"/>
    </contour>
    <contour>
      <point x="182" y="387" type="curve"/>
      <point x="182" y="801" type="line"/>
      <point x="95" y="801" type="line"/>
      <point x="95" y="387" type="line"/>
      <point x="147" y="387"/>
      <point x="112" y="387"/>
    </contour>
    <contour>
      <point x="129" y="801" type="move" name="_top"/>
    </contour>
    <contour>
      <point x="138" y="387" type="move" name="_bottom"/>
    </contour>
  </outline>
</glyph>
<glyph name="ordmasculine" format="1">
  <advance width="321"/>
  <unicode hex="00BA"/>
  <outline>
    <contour>
      <point x="105" y="595" type="curve"/>
      <point x="105" y="650"/>
      <point x="110" y="704"/>
      <point x="159" y="704" type="curve"/>
      <point x="205" y="704"/>
      <point x="211" y="651"/>
      <point x="211" y="594" type="curve"/>
      <point x="211" y="535"/>
      <point x="207" y="482"/>
      <point x="164" y="482" type="curve"/>
      <point x="109" y="482"/>
      <point x="105" y="535"/>
      <point x="105" y="595" type="curve"/>
      <point x="111" y="595"/>
      <point x="31" y="595"/>
      <point x="38" y="595" type="curve"/>
      <point x="38" y="496"/>
      <point x="72" y="421"/>
      <point x="160" y="421" type="curve"/>
      <point x="247" y="421"/>
      <point x="284" y="495"/>
      <point x="284" y="594" type="curve"/>
      <point x="284" y="692"/>
      <point x="249" y="764"/>
      <point x="162" y="764" type="curve"/>
      <point x="73" y="764"/>
      <point x="38" y="692"/>
      <point x="38" y="595" type="curve"/>
      <point x="31" y="595"/>
      <point x="111" y="595"/>
    </contour>
  </outline>
</glyph>
<glyph name="guillemotright" format="1">
  <advance width="405"/>
  <unicode hex="00BB"/>
  <outline>
    <contour>
      <point x="219" y="468" type="curve"/>
      <point x="247" y="442"/>
      <point x="337" y="368"/>
      <point x="366" y="342" type="curve"/>
      <point x="366" y="244"/>
      <point x="366" y="324"/>
      <point x="366" y="227" type="curve"/>
      <point x="337" y="253"/>
      <point x="247" y="336"/>
      <point x="219" y="363" type="curve"/>
      <point x="219" y="459"/>
      <point x="219" y="372"/>
    </contour>
    <contour>
      <point x="219" y="208" type="curve"/>
      <point x="247" y="234"/>
      <point x="337" y="315"/>
      <point x="366" y="342" type="curve"/>
      <point x="366" y="244"/>
      <point x="366" y="324"/>
      <point x="366" y="227" type="curve"/>
      <point x="337" y="200"/>
      <point x="247" y="129"/>
      <point x="219" y="103" type="curve"/>
      <point x="219" y="199"/>
      <point x="219" y="112"/>
    </contour>
    <contour>
      <point x="62" y="468" type="curve"/>
      <point x="91" y="442"/>
      <point x="180" y="368"/>
      <point x="209" y="342" type="curve"/>
      <point x="209" y="244"/>
      <point x="209" y="324"/>
      <point x="209" y="227" type="curve"/>
      <point x="180" y="253"/>
      <point x="91" y="336"/>
      <point x="62" y="363" type="curve"/>
      <point x="62" y="459"/>
      <point x="62" y="372"/>
    </contour>
    <contour>
      <point x="62" y="208" type="curve"/>
      <point x="90" y="234"/>
      <point x="180" y="315"/>
      <point x="209" y="342" type="curve"/>
      <point x="209" y="244"/>
      <point x="209" y="324"/>
      <point x="209" y="227" type="curve"/>
      <point x="180" y="200"/>
      <point x="90" y="129"/>
      <point x="62" y="103" type="curve"/>
      <point x="62" y="199"/>
      <point x="62" y="112"/>
    </contour>
  </outline>
</glyph>
<glyph name="onequarter" format="1">
  <advance width="747"/>
  <unicode hex="00BC"/>
  <outline>
    <contour>
      <point x="280" y="-50" type="line"/>
      <point x="558" y="720" type="line"/>
      <point x="455" y="720" type="line"/>
      <point x="177" y="-50" type="line"/>
    </contour>
    <contour>
      <point x="77" y="579" type="line"/>
      <point x="193" y="717" type="line"/>
      <point x="107" y="719" type="line"/>
      <point x="24" y="630" type="line"/>
    </contour>
    <contour>
      <point x="194" y="305" type="curve"/>
      <point x="194" y="719" type="line"/>
      <point x="107" y="719" type="line"/>
      <point x="107" y="305" type="line"/>
      <point x="158" y="305"/>
      <point x="123" y="305"/>
    </contour>
    <contour>
      <point x="715" y="131" type="line"/>
      <point x="436" y="131" type="line"/>
      <point x="436" y="62" type="line"/>
      <point x="715" y="62" type="line"/>
    </contour>
    <contour>
      <point x="473" y="66" type="line"/>
      <point x="635" y="368" type="line"/>
      <point x="574" y="383" type="line"/>
      <point x="436" y="131" type="line"/>
    </contour>
    <contour>
      <point x="661" y="-42" type="line"/>
      <point x="661" y="383" type="line"/>
      <point x="574" y="383" type="line"/>
      <point x="574" y="-42" type="line"/>
    </contour>
  </outline>
</glyph>
<glyph name="onehalf" format="1">
  <advance width="828"/>
  <unicode hex="00BD"/>
  <outline>
    <contour>
      <point x="320" y="-50" type="line"/>
      <point x="598" y="720" type="line"/>
      <point x="495" y="720" type="line"/>
      <point x="217" y="-50" type="line"/>
    </contour>
    <contour>
      <point x="77" y="579" type="line"/>
      <point x="193" y="717" type="line"/>
      <point x="107" y="719" type="line"/>
      <point x="24" y="630" type="line"/>
    </contour>
    <contour>
      <point x="194" y="305" type="curve"/>
      <point x="194" y="719" type="line"/>
      <point x="107" y="719" type="line"/>
      <point x="107" y="305" type="line"/>
      <point x="158" y="305"/>
      <point x="123" y="305"/>
    </contour>
    <contour>
      <point x="537" y="-44" type="curve"/>
      <point x="613" y="-44"/>
      <point x="719" y="-44"/>
      <point x="792" y="-44" type="curve"/>
      <point x="792" y="-9"/>
      <point x="792" y="-20"/>
      <point x="792" y="25" type="curve"/>
      <point x="715" y="25"/>
      <point x="613" y="25"/>
      <point x="537" y="25" type="curve"/>
      <point x="537" y="-44"/>
      <point x="537" y="25"/>
    </contour>
    <contour>
      <point x="620" y="253" type="curve"/>
      <point x="625" y="283"/>
      <point x="634" y="312"/>
      <point x="663" y="312" type="curve"/>
      <point x="692" y="312"/>
      <point x="700" y="281"/>
      <point x="700" y="246" type="curve"/>
      <point x="700" y="209"/>
      <point x="681" y="187"/>
      <point x="658" y="159" type="curve"/>
      <point x="618" y="114"/>
      <point x="577" y="69"/>
      <point x="537" y="25" type="curve"/>
      <point x="540" y="-44"/>
      <point x="536" y="25"/>
      <point x="539" y="-44" type="curve"/>
      <point x="591" y="3"/>
      <point x="670" y="53"/>
      <point x="716" y="104" type="curve"/>
      <point x="754" y="150"/>
      <point x="782" y="188"/>
      <point x="782" y="250" type="curve"/>
      <point x="782" y="326"/>
      <point x="739" y="380"/>
      <point x="665" y="380" type="curve"/>
      <point x="608" y="380"/>
      <point x="570" y="353"/>
      <point x="556" y="273" type="curve"/>
      <point x="620" y="253"/>
      <point x="556" y="273"/>
    </contour>
  </outline>
</glyph>
<glyph name="threequarters" format="1">
  <advance width="792"/>
  <unicode hex="00BE"/>
  <outline>
    <contour>
      <point x="327" y="-50" type="line"/>
      <point x="605" y="720" type="line"/>
      <point x="502" y="720" type="line"/>
      <point x="224" y="-50" type="line"/>
    </contour>
    <contour>
      <point x="91" y="619" type="curve"/>
      <point x="100" y="633"/>
      <point x="110" y="649"/>
      <point x="129" y="649" type="curve"/>
      <point x="154" y="649"/>
      <point x="166" y="625"/>
      <point x="166" y="594" type="curve"/>
      <point x="166" y="560"/>
      <point x="139" y="541"/>
      <point x="103" y="537" type="curve"/>
      <point x="103" y="478"/>
      <point x="103" y="537"/>
      <point x="103" y="478" type="curve"/>
      <point x="188" y="482"/>
      <point x="253" y="522"/>
      <point x="253" y="601" type="curve"/>
      <point x="253" y="673"/>
      <point x="209" y="719"/>
      <point x="137" y="719" type="curve"/>
      <point x="95" y="719"/>
      <point x="58" y="696"/>
      <point x="36" y="662" type="curve"/>
      <point x="91" y="619"/>
      <point x="36" y="662"/>
    </contour>
    <contour>
      <point x="35" y="325" type="curve"/>
      <point x="61" y="303"/>
      <point x="89" y="290"/>
      <point x="123" y="290" type="curve"/>
      <point x="209" y="289"/>
      <point x="263" y="335"/>
      <point x="263" y="418" type="curve"/>
      <point x="263" y="496"/>
      <point x="191" y="525"/>
      <point x="103" y="529" type="curve"/>
      <point x="103" y="477"/>
      <point x="103" y="529"/>
      <point x="103" y="477" type="curve"/>
      <point x="146" y="474"/>
      <point x="176" y="451"/>
      <point x="176" y="413" type="curve"/>
      <point x="175" y="382"/>
      <point x="160" y="358"/>
      <point x="131" y="359" type="curve"/>
      <point x="112" y="359"/>
      <point x="94" y="365"/>
      <point x="81" y="377" type="curve"/>
      <point x="35" y="325"/>
      <point x="81" y="377"/>
    </contour>
    <contour>
      <point x="764" y="131" type="line"/>
      <point x="485" y="131" type="line"/>
      <point x="485" y="62" type="line"/>
      <point x="764" y="62" type="line"/>
    </contour>
    <contour>
      <point x="522" y="66" type="line"/>
      <point x="684" y="368" type="line"/>
      <point x="623" y="383" type="line"/>
      <point x="485" y="131" type="line"/>
    </contour>
    <contour>
      <point x="710" y="-42" type="line"/>
      <point x="710" y="383" type="line"/>
      <point x="623" y="383" type="line"/>
      <point x="623" y="-42" type="line"/>
    </contour>
  </outline>
</glyph>
<glyph name="questiondown" format="1">
  <advance width="427"/>
  <unicode hex="00BF"/>
  <outline>
    <contour>
      <point x="264" y="373" type="curve"/>
      <point x="264" y="410"/>
      <point x="264" y="483"/>
      <point x="264" y="520" type="curve"/>
      <point x="164" y="520"/>
      <point x="264" y="520"/>
      <point x="164" y="520" type="curve"/>
      <point x="164" y="483"/>
      <point x="164" y="410"/>
      <point x="164" y="373" type="curve"/>
      <point x="264" y="373"/>
      <point x="164" y="373"/>
    </contour>
    <contour>
      <point x="325" y="148" type="line"/>
      <point x="298" y="114"/>
      <point x="275" y="95"/>
      <point x="234" y="95" type="curve"/>
      <point x="168" y="95"/>
      <point x="142" y="153"/>
      <point x="142" y="223" type="curve"/>
      <point x="142" y="307"/>
      <point x="178" y="373"/>
      <point x="253" y="373" type="curve"/>
      <point x="253" y="408"/>
      <point x="254" y="422"/>
      <point x="254" y="457" type="curve"/>
      <point x="115" y="457"/>
      <point x="35" y="362"/>
      <point x="35" y="223" type="curve"/>
      <point x="35" y="90"/>
      <point x="108" y="0"/>
      <point x="229" y="0" type="curve"/>
      <point x="300" y="0"/>
      <point x="351" y="27"/>
      <point x="385" y="77" type="curve"/>
    </contour>
    <contour>
      <point x="155" y="686" type="curve"/>
      <point x="155" y="648"/>
      <point x="180" y="628"/>
      <point x="214" y="628" type="curve"/>
      <point x="249" y="628"/>
      <point x="271" y="649"/>
      <point x="271" y="686" type="curve"/>
      <point x="155" y="686"/>
      <point x="271" y="686"/>
      <point x="155" y="686" type="curve"/>
      <point x="155" y="726"/>
      <point x="180" y="744"/>
      <point x="214" y="744" type="curve"/>
      <point x="250" y="744"/>
      <point x="271" y="724"/>
      <point x="271" y="686" type="curve"/>
      <point x="155" y="686"/>
      <point x="271" y="686"/>
    </contour>
  </outline>
</glyph>
<glyph name="Atilde" format="1">
  <advance width="500"/>
  <unicode hex="00C3"/>
  <outline>
    <contour>
      <point x="348" y="287" type="curve"/>
      <point x="283" y="287"/>
      <point x="219" y="287"/>
      <point x="155" y="287" type="curve"/>
      <point x="108" y="194"/>
      <point x="155" y="287"/>
      <point x="108" y="194" type="curve"/>
      <point x="200" y="194"/>
      <point x="292" y="194"/>
      <point x="384" y="194" type="curve"/>
      <point x="348" y="287"/>
      <point x="384" y="194"/>
    </contour>
    <contour>
      <point x="488" y="0" type="curve"/>
      <point x="429" y="241"/>
      <point x="364" y="481"/>
      <point x="305" y="722" type="curve"/>
      <point x="204" y="722"/>
      <point x="305" y="722"/>
      <point x="204" y="722" type="curve"/>
      <point x="261" y="482"/>
      <point x="313" y="240"/>
      <point x="371" y="0" type="curve"/>
      <point x="488" y="0"/>
      <point x="371" y="0"/>
    </contour>
    <contour>
      <point x="119" y="0" type="curve"/>
      <point x="183" y="240"/>
      <point x="239" y="482"/>
      <point x="304" y="722" type="curve"/>
      <point x="203" y="722"/>
      <point x="304" y="722"/>
      <point x="203" y="722" type="curve"/>
      <point x="137" y="480"/>
      <point x="62" y="242"/>
      <point x="-3" y="0" type="curve"/>
      <point x="119" y="0"/>
      <point x="-3" y="0"/>
    </contour>
    <contour>
      <point x="339" y="968" type="curve"/>
      <point x="324" y="930"/>
      <point x="314" y="915"/>
      <point x="298" y="915" type="curve"/>
      <point x="274" y="915"/>
      <point x="263" y="925"/>
      <point x="248" y="941" type="curve"/>
      <point x="227" y="962"/>
      <point x="217" y="973"/>
      <point x="190" y="973" type="curve"/>
      <point x="127" y="973"/>
      <point x="101" y="905"/>
      <point x="86" y="844" type="curve"/>
      <point x="168" y="796"/>
      <point x="85" y="845"/>
      <point x="168" y="796" type="curve"/>
      <point x="185" y="839"/>
      <point x="196" y="853"/>
      <point x="218" y="853" type="curve"/>
      <point x="238" y="853"/>
      <point x="246" y="844"/>
      <point x="258" y="830" type="curve"/>
      <point x="282" y="805"/>
      <point x="296" y="791"/>
      <point x="328" y="791" type="curve"/>
      <point x="390" y="791"/>
      <point x="406" y="856"/>
      <point x="428" y="922" type="curve"/>
      <point x="339" y="968"/>
      <point x="428" y="921"/>
    </contour>
  </outline>
</glyph>
<glyph name="Adieresis" format="1">
  <advance width="500"/>
  <unicode hex="00C4"/>
  <outline>
    <contour>
      <point x="348" y="287" type="curve"/>
      <point x="283" y="287"/>
      <point x="219" y="287"/>
      <point x="155" y="287" type="curve"/>
      <point x="108" y="194"/>
      <point x="155" y="287"/>
      <point x="108" y="194" type="curve"/>
      <point x="200" y="194"/>
      <point x="292" y="194"/>
      <point x="384" y="194" type="curve"/>
      <point x="348" y="287"/>
      <point x="384" y="194"/>
    </contour>
    <contour>
      <point x="488" y="0" type="curve"/>
      <point x="429" y="241"/>
      <point x="364" y="481"/>
      <point x="305" y="722" type="curve"/>
      <point x="204" y="722"/>
      <point x="305" y="722"/>
      <point x="204" y="722" type="curve"/>
      <point x="261" y="482"/>
      <point x="313" y="240"/>
      <point x="371" y="0" type="curve"/>
      <point x="488" y="0"/>
      <point x="371" y="0"/>
    </contour>
    <contour>
      <point x="119" y="0" type="curve"/>
      <point x="183" y="240"/>
      <point x="239" y="482"/>
      <point x="304" y="722" type="curve"/>
      <point x="203" y="722"/>
      <point x="304" y="722"/>
      <point x="203" y="722" type="curve"/>
      <point x="137" y="480"/>
      <point x="62" y="242"/>
      <point x="-3" y="0" type="curve"/>
      <point x="119" y="0"/>
      <point x="-3" y="0"/>
    </contour>
    <contour>
      <point x="228" y="843" type="curve"/>
      <point x="228" y="881"/>
      <point x="203" y="901"/>
      <point x="169" y="901" type="curve"/>
      <point x="134" y="901"/>
      <point x="112" y="879"/>
      <point x="112" y="843" type="curve"/>
      <point x="228" y="843"/>
      <point x="111" y="843"/>
      <point x="228" y="843" type="curve"/>
      <point x="228" y="803"/>
      <point x="204" y="785"/>
      <point x="169" y="785" type="curve"/>
      <point x="133" y="785"/>
      <point x="112" y="805"/>
      <point x="112" y="843" type="curve"/>
      <point x="228" y="843"/>
      <point x="111" y="843"/>
    </contour>
    <contour>
      <point x="392" y="843" type="curve"/>
      <point x="392" y="881"/>
      <point x="367" y="901"/>
      <point x="333" y="901" type="curve"/>
      <point x="298" y="901"/>
      <point x="276" y="879"/>
      <point x="276" y="843" type="curve"/>
      <point x="393" y="843"/>
      <point x="275" y="843"/>
      <point x="392" y="843" type="curve"/>
      <point x="392" y="803"/>
      <point x="368" y="785"/>
      <point x="333" y="785" type="curve"/>
      <point x="298" y="785"/>
      <point x="276" y="805"/>
      <point x="276" y="843" type="curve"/>
      <point x="393" y="843"/>
      <point x="275" y="843"/>
    </contour>
  </outline>
</glyph>
<glyph name="Aring" format="1">
  <advance width="500"/>
  <unicode hex="00C5"/>
  <outline>
    <contour>
      <point x="348" y="287" type="curve"/>
      <point x="283" y="287"/>
      <point x="219" y="287"/>
      <point x="155" y="287" type="curve"/>
      <point x="108" y="194"/>
      <point x="155" y="287"/>
      <point x="108" y="194" type="curve"/>
      <point x="200" y="194"/>
      <point x="292" y="194"/>
      <point x="384" y="194" type="curve"/>
      <point x="348" y="287"/>
      <point x="384" y="194"/>
    </contour>
    <contour>
      <point x="488" y="0" type="curve"/>
      <point x="429" y="241"/>
      <point x="364" y="481"/>
      <point x="305" y="722" type="curve"/>
      <point x="204" y="722"/>
      <point x="305" y="722"/>
      <point x="204" y="722" type="curve"/>
      <point x="261" y="482"/>
      <point x="313" y="240"/>
      <point x="371" y="0" type="curve"/>
      <point x="488" y="0"/>
      <point x="371" y="0"/>
    </contour>
    <contour>
      <point x="119" y="0" type="curve"/>
      <point x="183" y="240"/>
      <point x="239" y="482"/>
      <point x="304" y="722" type="curve"/>
      <point x="203" y="722"/>
      <point x="304" y="722"/>
      <point x="203" y="722" type="curve"/>
      <point x="137" y="480"/>
      <point x="62" y="242"/>
      <point x="-3" y="0" type="curve"/>
      <point x="119" y="0"/>
      <point x="-3" y="0"/>
    </contour>
    <contour>
      <point x="130" y="929" type="curve"/>
      <point x="130" y="848"/>
      <point x="172" y="789"/>
      <point x="250" y="789" type="curve"/>
      <point x="328" y="789"/>
      <point x="371" y="847"/>
      <point x="371" y="929" type="curve"/>
      <point x="371" y="1011"/>
      <point x="327" y="1069"/>
      <point x="248" y="1069" type="curve"/>
      <point x="171" y="1069"/>
      <point x="130" y="1010"/>
      <point x="130" y="929" type="curve"/>
      <point x="230" y="929"/>
      <point x="120" y="929"/>
      <point x="220" y="929" type="curve"/>
      <point x="220" y="956"/>
      <point x="218" y="987"/>
      <point x="248" y="987" type="curve"/>
      <point x="276" y="987"/>
      <point x="276" y="956"/>
      <point x="276" y="929" type="curve"/>
      <point x="276" y="902"/>
      <point x="278" y="871"/>
      <point x="250" y="871" type="curve"/>
      <point x="221" y="871"/>
      <point x="220" y="902"/>
      <point x="220" y="929" type="curve"/>
      <point x="120" y="929"/>
      <point x="230" y="929"/>
    </contour>
  </outline>
</glyph>
<glyph name="AE" format="1">
  <advance width="694"/>
  <unicode hex="00C6"/>
  <outline>
    <contour>
      <point x="348" y="276" type="curve"/>
      <point x="284" y="276"/>
      <point x="219" y="276"/>
      <point x="155" y="276" type="curve"/>
      <point x="109" y="183"/>
      <point x="155" y="276"/>
      <point x="109" y="183" type="curve"/>
      <point x="201" y="183"/>
      <point x="293" y="183"/>
      <point x="384" y="183" type="curve"/>
      <point x="348" y="276"/>
      <point x="384" y="183"/>
    </contour>
    <contour>
      <point x="110" y="0" type="curve"/>
      <point x="437" y="722" type="line"/>
      <point x="335" y="722"/>
      <point x="437" y="722"/>
      <point x="335" y="722" type="curve"/>
      <point x="-12" y="0" type="line"/>
      <point x="111" y="0"/>
      <point x="-12" y="0"/>
    </contour>
    <contour>
      <point x="394" y="329" type="curve"/>
      <point x="465" y="329"/>
      <point x="537" y="329"/>
      <point x="608" y="329" type="curve"/>
      <point x="608" y="417"/>
      <point x="608" y="329"/>
      <point x="608" y="417" type="curve"/>
      <point x="537" y="417"/>
      <point x="465" y="417"/>
      <point x="394" y="417" type="curve"/>
      <point x="394" y="329"/>
      <point x="394" y="417"/>
    </contour>
    <contour>
      <point x="384" y="634" type="curve"/>
      <point x="473" y="634"/>
      <point x="560" y="634"/>
      <point x="649" y="634" type="curve"/>
      <point x="649" y="722"/>
      <point x="649" y="634"/>
      <point x="649" y="722" type="curve"/>
      <point x="560" y="722"/>
      <point x="473" y="722"/>
      <point x="384" y="722" type="curve"/>
      <point x="384" y="634"/>
      <point x="384" y="722"/>
    </contour>
    <contour>
      <point x="447" y="0" type="curve"/>
      <point x="447" y="722" type="line"/>
      <point x="335" y="722"/>
      <point x="447" y="722"/>
      <point x="335" y="722" type="curve"/>
      <point x="335" y="481"/>
      <point x="335" y="241"/>
      <point x="335" y="0" type="curve"/>
      <point x="447" y="0"/>
      <point x="335" y="0"/>
    </contour>
    <contour>
      <point x="384" y="0" type="curve"/>
      <point x="480" y="0"/>
      <point x="575" y="0"/>
      <point x="671" y="0" type="curve"/>
      <point x="671" y="88"/>
      <point x="671" y="0"/>
      <point x="671" y="88" type="curve"/>
      <point x="575" y="88"/>
      <point x="480" y="88"/>
      <point x="384" y="88" type="curve"/>
      <point x="384" y="0"/>
      <point x="384" y="88"/>
    </contour>
  </outline>
</glyph>
<glyph name="Ccedilla" format="1">
  <advance width="503"/>
  <unicode hex="00C7"/>
  <outline>
    <contour>
      <point x="476" y="654" type="curve"/>
      <point x="428" y="696"/>
      <point x="368" y="727"/>
      <point x="298" y="727" type="curve"/>
      <point x="111" y="727"/>
      <point x="45" y="562"/>
      <point x="45" y="345" type="curve"/>
      <point x="45" y="146"/>
      <point x="111" y="-5"/>
      <point x="286" y="-5" type="curve"/>
      <point x="377" y="-5"/>
      <point x="438" y="31"/>
      <point x="489" y="100" type="curve"/>
      <point x="420" y="163"/>
      <point x="489" y="100"/>
      <point x="420" y="163" type="curve"/>
      <point x="384" y="119"/>
      <point x="350" y="87"/>
      <point x="292" y="87" type="curve"/>
      <point x="175" y="87"/>
      <point x="157" y="208"/>
      <point x="157" y="349" type="curve"/>
      <point x="157" y="503"/>
      <point x="172" y="635"/>
      <point x="294" y="635" type="curve"/>
      <point x="342" y="635"/>
      <point x="383" y="613"/>
      <point x="412" y="585" type="curve"/>
      <point x="476" y="654"/>
      <point x="412" y="585"/>
    </contour>
    <contour>
      <point x="237" y="64" type="curve"/>
      <point x="228" y="41"/>
      <point x="201" y="-37"/>
      <point x="192" y="-60" type="curve"/>
      <point x="269" y="-130"/>
      <point x="192" y="-60"/>
      <point x="269" y="-130" type="curve"/>
      <point x="279" y="-104"/>
      <point x="313" y="-24"/>
      <point x="323" y="2" type="curve"/>
      <point x="237" y="64"/>
      <point x="323" y="2"/>
    </contour>
    <contour>
      <point x="269" y="-130" type="curve"/>
      <point x="275" y="-125"/>
      <point x="279" y="-120"/>
      <point x="286" y="-120" type="curve"/>
      <point x="297" y="-120"/>
      <point x="301" y="-130"/>
      <point x="301" y="-144" type="curve"/>
      <point x="301" y="-161"/>
      <point x="290" y="-170"/>
      <point x="272" y="-170" type="curve"/>
      <point x="255" y="-170"/>
      <point x="242" y="-167"/>
      <point x="230" y="-157" type="curve"/>
      <point x="185" y="-220"/>
      <point x="230" y="-157"/>
      <point x="185" y="-220" type="curve"/>
      <point x="210" y="-239"/>
      <point x="234" y="-247"/>
      <point x="266" y="-247" type="curve"/>
      <point x="326" y="-247"/>
      <point x="364" y="-207"/>
      <point x="364" y="-143" type="curve"/>
      <point x="364" y="-81"/>
      <point x="330" y="-37"/>
      <point x="272" y="-37" type="curve"/>
      <point x="241" y="-37"/>
      <point x="219" y="-42"/>
      <point x="192" y="-60" type="curve"/>
      <point x="269" y="-130"/>
      <point x="192" y="-60"/>
    </contour>
  </outline>
</glyph>
<glyph name="Egrave" format="1">
  <advance width="453"/>
  <unicode hex="00C8"/>
  <outline>
    <contour>
      <point x="153" y="329" type="curve"/>
      <point x="224" y="329"/>
      <point x="296" y="329"/>
      <point x="367" y="329" type="curve"/>
      <point x="367" y="417"/>
      <point x="367" y="329"/>
      <point x="367" y="417" type="curve"/>
      <point x="296" y="417"/>
      <point x="224" y="417"/>
      <point x="153" y="417" type="curve"/>
      <point x="153" y="329"/>
      <point x="153" y="417"/>
    </contour>
    <contour>
      <point x="143" y="634" type="curve"/>
      <point x="232" y="634"/>
      <point x="319" y="634"/>
      <point x="408" y="634" type="curve"/>
      <point x="408" y="722"/>
      <point x="408" y="634"/>
      <point x="408" y="722" type="curve"/>
      <point x="319" y="722"/>
      <point x="232" y="722"/>
      <point x="143" y="722" type="curve"/>
      <point x="143" y="634"/>
      <point x="143" y="722"/>
    </contour>
    <contour>
      <point x="206" y="0" type="curve"/>
      <point x="206" y="722" type="line"/>
      <point x="94" y="722"/>
      <point x="206" y="722"/>
      <point x="94" y="722" type="curve"/>
      <point x="94" y="481"/>
      <point x="94" y="241"/>
      <point x="94" y="0" type="curve"/>
      <point x="206" y="0"/>
      <point x="94" y="0"/>
    </contour>
    <contour>
      <point x="143" y="0" type="curve"/>
      <point x="239" y="0"/>
      <point x="334" y="0"/>
      <point x="430" y="0" type="curve"/>
      <point x="430" y="88"/>
      <point x="430" y="0"/>
      <point x="430" y="88" type="curve"/>
      <point x="334" y="88"/>
      <point x="239" y="88"/>
      <point x="143" y="88" type="curve"/>
      <point x="143" y="0"/>
      <point x="143" y="88"/>
    </contour>
    <contour>
      <point x="290" y="792" type="line"/>
      <point x="222" y="958" type="line"/>
      <point x="87" y="958" type="line"/>
      <point x="186" y="792" type="line"/>
    </contour>
  </outline>
</glyph>
<glyph name="Eacute" format="1">
  <advance width="438"/>
  <unicode hex="00C9"/>
  <outline>
    <contour>
      <point x="138" y="329" type="curve"/>
      <point x="209" y="329"/>
      <point x="281" y="329"/>
      <point x="352" y="329" type="curve"/>
      <point x="352" y="417"/>
      <point x="352" y="329"/>
      <point x="352" y="417" type="curve"/>
      <point x="281" y="417"/>
      <point x="209" y="417"/>
      <point x="138" y="417" type="curve"/>
      <point x="138" y="329"/>
      <point x="138" y="417"/>
    </contour>
    <contour>
      <point x="128" y="634" type="curve"/>
      <point x="217" y="634"/>
      <point x="304" y="634"/>
      <point x="393" y="634" type="curve"/>
      <point x="393" y="722"/>
      <point x="393" y="634"/>
      <point x="393" y="722" type="curve"/>
      <point x="304" y="722"/>
      <point x="217" y="722"/>
      <point x="128" y="722" type="curve"/>
      <point x="128" y="634"/>
      <point x="128" y="722"/>
    </contour>
    <contour>
      <point x="192" y="0" type="curve"/>
      <point x="192" y="722" type="line"/>
      <point x="80" y="722"/>
      <point x="192" y="722"/>
      <point x="80" y="722" type="curve"/>
      <point x="80" y="481"/>
      <point x="80" y="241"/>
      <point x="80" y="0" type="curve"/>
      <point x="192" y="0"/>
      <point x="80" y="0"/>
    </contour>
    <contour>
      <point x="128" y="0" type="curve"/>
      <point x="224" y="0"/>
      <point x="319" y="0"/>
      <point x="415" y="0" type="curve"/>
      <point x="415" y="88"/>
      <point x="415" y="0"/>
      <point x="415" y="88" type="curve"/>
      <point x="319" y="88"/>
      <point x="224" y="88"/>
      <point x="128" y="88" type="curve"/>
      <point x="128" y="0"/>
      <point x="128" y="88"/>
    </contour>
    <contour>
      <point x="275" y="790" type="line"/>
      <point x="374" y="956" type="line"/>
      <point x="238" y="956" type="line"/>
      <point x="170" y="790" type="line"/>
    </contour>
  </outline>
</glyph>
<glyph name="Ecircumflex" format="1">
  <advance width="419"/>
  <unicode hex="00CA"/>
  <outline>
    <contour>
      <point x="129" y="329" type="curve"/>
      <point x="200" y="329"/>
      <point x="272" y="329"/>
      <point x="343" y="329" type="curve"/>
      <point x="343" y="417"/>
      <point x="343" y="329"/>
      <point x="343" y="417" type="curve"/>
      <point x="272" y="417"/>
      <point x="200" y="417"/>
      <point x="129" y="417" type="curve"/>
      <point x="129" y="329"/>
      <point x="129" y="417"/>
    </contour>
    <contour>
      <point x="119" y="634" type="curve"/>
      <point x="208" y="634"/>
      <point x="295" y="634"/>
      <point x="384" y="634" type="curve"/>
      <point x="384" y="722"/>
      <point x="384" y="634"/>
      <point x="384" y="722" type="curve"/>
      <point x="295" y="722"/>
      <point x="208" y="722"/>
      <point x="119" y="722" type="curve"/>
      <point x="119" y="634"/>
      <point x="119" y="722"/>
    </contour>
    <contour>
      <point x="182" y="0" type="curve"/>
      <point x="182" y="722" type="line"/>
      <point x="71" y="722"/>
      <point x="182" y="722"/>
      <point x="71" y="722" type="curve"/>
      <point x="71" y="481"/>
      <point x="71" y="241"/>
      <point x="71" y="0" type="curve"/>
      <point x="182" y="0"/>
      <point x="71" y="0"/>
    </contour>
    <contour>
      <point x="119" y="0" type="curve"/>
      <point x="215" y="0"/>
      <point x="310" y="0"/>
      <point x="406" y="0" type="curve"/>
      <point x="406" y="88"/>
      <point x="406" y="0"/>
      <point x="406" y="88" type="curve"/>
      <point x="310" y="88"/>
      <point x="215" y="88"/>
      <point x="119" y="88" type="curve"/>
      <point x="119" y="0"/>
      <point x="119" y="88"/>
    </contour>
    <contour>
      <point x="161" y="791" type="line"/>
      <point x="260" y="957" type="line"/>
      <point x="124" y="957" type="line"/>
      <point x="56" y="791" type="line"/>
    </contour>
    <contour>
      <point x="373" y="791" type="line"/>
      <point x="305" y="957" type="line"/>
      <point x="169" y="957" type="line"/>
      <point x="268" y="791" type="line"/>
    </contour>
  </outline>
</glyph>
<glyph name="Edieresis" format="1">
  <advance width="437"/>
  <unicode hex="00CB"/>
  <outline>
    <contour>
      <point x="137" y="329" type="curve"/>
      <point x="207" y="329"/>
      <point x="279" y="329"/>
      <point x="351" y="329" type="curve"/>
      <point x="351" y="417"/>
      <point x="351" y="329"/>
      <point x="351" y="417" type="curve"/>
      <point x="279" y="417"/>
      <point x="207" y="417"/>
      <point x="137" y="417" type="curve"/>
      <point x="137" y="329"/>
      <point x="137" y="417"/>
    </contour>
    <contour>
      <point x="127" y="634" type="curve"/>
      <point x="215" y="634"/>
      <point x="303" y="634"/>
      <point x="391" y="634" type="curve"/>
      <point x="391" y="722"/>
      <point x="391" y="634"/>
      <point x="391" y="722" type="curve"/>
      <point x="303" y="722"/>
      <point x="215" y="722"/>
      <point x="127" y="722" type="curve"/>
      <point x="127" y="634"/>
      <point x="127" y="722"/>
    </contour>
    <contour>
      <point x="190" y="0" type="curve"/>
      <point x="190" y="722" type="line"/>
      <point x="78" y="722"/>
      <point x="190" y="722"/>
      <point x="78" y="722" type="curve"/>
      <point x="78" y="481"/>
      <point x="78" y="241"/>
      <point x="78" y="0" type="curve"/>
      <point x="190" y="0"/>
      <point x="78" y="0"/>
    </contour>
    <contour>
      <point x="127" y="0" type="curve"/>
      <point x="222" y="0"/>
      <point x="318" y="0"/>
      <point x="413" y="0" type="curve"/>
      <point x="413" y="88"/>
      <point x="413" y="0"/>
      <point x="413" y="88" type="curve"/>
      <point x="318" y="88"/>
      <point x="222" y="88"/>
      <point x="127" y="88" type="curve"/>
      <point x="127" y="0"/>
      <point x="127" y="88"/>
    </contour>
    <contour>
      <point x="198" y="843" type="curve"/>
      <point x="198" y="881"/>
      <point x="174" y="901"/>
      <point x="140" y="901" type="curve"/>
      <point x="105" y="901"/>
      <point x="83" y="879"/>
      <point x="83" y="843" type="curve"/>
      <point x="199" y="843"/>
      <point x="82" y="843"/>
      <point x="198" y="843" type="curve"/>
      <point x="198" y="803"/>
      <point x="174" y="785"/>
      <point x="140" y="785" type="curve"/>
      <point x="104" y="785"/>
      <point x="83" y="805"/>
      <point x="83" y="843" type="curve"/>
      <point x="199" y="843"/>
      <point x="82" y="843"/>
    </contour>
    <contour>
      <point x="363" y="843" type="curve"/>
      <point x="363" y="881"/>
      <point x="338" y="901"/>
      <point x="304" y="901" type="curve"/>
      <point x="269" y="901"/>
      <point x="247" y="879"/>
      <point x="247" y="843" type="curve"/>
      <point x="364" y="843"/>
      <point x="246" y="843"/>
      <point x="363" y="843" type="curve"/>
      <point x="363" y="803"/>
      <point x="339" y="785"/>
      <point x="304" y="785" type="curve"/>
      <point x="269" y="785"/>
      <point x="247" y="805"/>
      <point x="247" y="843" type="curve"/>
      <point x="364" y="843"/>
      <point x="246" y="843"/>
    </contour>
  </outline>
</glyph>
<glyph name="Igrave" format="1">
  <advance width="277"/>
  <unicode hex="00CC"/>
  <outline>
    <contour>
      <point x="199" y="0" type="curve"/>
      <point x="199" y="241"/>
      <point x="199" y="481"/>
      <point x="199" y="722" type="curve"/>
      <point x="87" y="722"/>
      <point x="199" y="722"/>
      <point x="87" y="722" type="curve"/>
      <point x="87" y="481"/>
      <point x="87" y="241"/>
      <point x="87" y="0" type="curve"/>
      <point x="199" y="0"/>
      <point x="87" y="0"/>
    </contour>
    <contour>
      <point x="197" y="792" type="line"/>
      <point x="129" y="958" type="line"/>
      <point x="-7" y="958" type="line"/>
      <point x="92" y="792" type="line"/>
    </contour>
  </outline>
</glyph>
<glyph name="Iacute" format="1">
  <advance width="270"/>
  <unicode hex="00CD"/>
  <outline>
    <contour>
      <point x="189" y="0" type="curve"/>
      <point x="189" y="241"/>
      <point x="189" y="481"/>
      <point x="189" y="722" type="curve"/>
      <point x="77" y="722"/>
      <point x="189" y="722"/>
      <point x="77" y="722" type="curve"/>
      <point x="77" y="481"/>
      <point x="77" y="241"/>
      <point x="77" y="0" type="curve"/>
      <point x="189" y="0"/>
      <point x="77" y="0"/>
    </contour>
    <contour>
      <point x="186" y="790" type="line"/>
      <point x="285" y="956" type="line"/>
      <point x="150" y="956" type="line"/>
      <point x="81" y="790" type="line"/>
    </contour>
  </outline>
</glyph>
<glyph name="Icircumflex" format="1">
  <advance width="301"/>
  <unicode hex="00CE"/>
  <outline>
    <contour>
      <point x="208" y="0" type="curve"/>
      <point x="208" y="241"/>
      <point x="208" y="481"/>
      <point x="208" y="722" type="curve"/>
      <point x="96" y="722"/>
      <point x="208" y="722"/>
      <point x="96" y="722" type="curve"/>
      <point x="96" y="481"/>
      <point x="96" y="241"/>
      <point x="96" y="0" type="curve"/>
      <point x="208" y="0"/>
      <point x="96" y="0"/>
    </contour>
    <contour>
      <point x="101" y="791" type="line"/>
      <point x="200" y="957" type="line"/>
      <point x="64" y="957" type="line"/>
      <point x="-4" y="791" type="line"/>
    </contour>
    <contour>
      <point x="312" y="791" type="line"/>
      <point x="244" y="957" type="line"/>
      <point x="109" y="957" type="line"/>
      <point x="208" y="791" type="line"/>
    </contour>
  </outline>
</glyph>
<glyph name="Idieresis" format="1">
  <advance width="253"/>
  <unicode hex="00CF"/>
  <outline>
    <contour>
      <point x="185" y="0" type="curve"/>
      <point x="185" y="241"/>
      <point x="185" y="481"/>
      <point x="185" y="722" type="curve"/>
      <point x="73" y="722"/>
      <point x="185" y="722"/>
      <point x="73" y="722" type="curve"/>
      <point x="73" y="481"/>
      <point x="73" y="241"/>
      <point x="73" y="0" type="curve"/>
      <point x="185" y="0"/>
      <point x="73" y="0"/>
    </contour>
    <contour>
      <point x="107" y="843" type="curve"/>
      <point x="107" y="881"/>
      <point x="83" y="901"/>
      <point x="49" y="901" type="curve"/>
      <point x="14" y="901"/>
      <point x="-8" y="879"/>
      <point x="-8" y="843" type="curve"/>
      <point x="108" y="843"/>
      <point x="-9" y="843"/>
      <point x="107" y="843" type="curve"/>
      <point x="107" y="803"/>
      <point x="83" y="785"/>
      <point x="49" y="785" type="curve"/>
      <point x="13" y="785"/>
      <point x="-8" y="805"/>
      <point x="-8" y="843" type="curve"/>
      <point x="108" y="843"/>
      <point x="-9" y="843"/>
    </contour>
    <contour>
      <point x="272" y="843" type="curve"/>
      <point x="272" y="881"/>
      <point x="247" y="901"/>
      <point x="213" y="901" type="curve"/>
      <point x="178" y="901"/>
      <point x="156" y="879"/>
      <point x="156" y="843" type="curve"/>
      <point x="273" y="843"/>
      <point x="155" y="843"/>
      <point x="272" y="843" type="curve"/>
      <point x="272" y="803"/>
      <point x="248" y="785"/>
      <point x="213" y="785" type="curve"/>
      <point x="178" y="785"/>
      <point x="156" y="805"/>
      <point x="156" y="843" type="curve"/>
      <point x="273" y="843"/>
      <point x="155" y="843"/>
    </contour>
  </outline>
</glyph>
<glyph name="Eth" format="1">
  <advance width="561"/>
  <unicode hex="00D0"/>
  <outline>
    <contour>
      <point x="74" y="722" type="curve"/>
      <point x="74" y="481"/>
      <point x="74" y="241"/>
      <point x="74" y="0" type="curve"/>
      <point x="186" y="0"/>
      <point x="74" y="0"/>
      <point x="186" y="0" type="curve"/>
      <point x="186" y="241"/>
      <point x="186" y="481"/>
      <point x="186" y="722" type="curve"/>
      <point x="74" y="722"/>
      <point x="186" y="722"/>
    </contour>
    <contour>
      <point x="132" y="0" type="curve"/>
      <point x="173" y="0"/>
      <point x="210" y="0"/>
      <point x="252" y="0" type="curve"/>
      <point x="443" y="0"/>
      <point x="516" y="145"/>
      <point x="516" y="355" type="curve"/>
      <point x="516" y="571"/>
      <point x="445" y="722"/>
      <point x="249" y="722" type="curve"/>
      <point x="209" y="722"/>
      <point x="172" y="722"/>
      <point x="132" y="722" type="curve"/>
      <point x="132" y="638"/>
      <point x="132" y="718"/>
      <point x="132" y="634" type="curve"/>
      <point x="171" y="634"/>
      <point x="205" y="634"/>
      <point x="245" y="634" type="curve"/>
      <point x="379" y="634"/>
      <point x="403" y="510"/>
      <point x="403" y="353" type="curve"/>
      <point x="403" y="206"/>
      <point x="385" y="88"/>
      <point x="263" y="88" type="curve"/>
      <point x="217" y="88"/>
      <point x="177" y="88"/>
      <point x="132" y="88" type="curve"/>
      <point x="132" y="4"/>
      <point x="132" y="84"/>
    </contour>
    <contour>
      <point x="31" y="320" type="curve"/>
      <point x="111" y="320"/>
      <point x="191" y="320"/>
      <point x="270" y="320" type="curve"/>
      <point x="270" y="417"/>
      <point x="270" y="320"/>
      <point x="270" y="417" type="curve"/>
      <point x="191" y="417"/>
      <point x="111" y="417"/>
      <point x="31" y="417" type="curve"/>
      <point x="31" y="320"/>
      <point x="31" y="417"/>
    </contour>
  </outline>
</glyph>
<glyph name="Ntilde" format="1">
  <advance width="621"/>
  <unicode hex="00D1"/>
  <outline>
    <contour>
      <point x="542" y="0" type="curve"/>
      <point x="426" y="241"/>
      <point x="308" y="481"/>
      <point x="193" y="722" type="curve"/>
      <point x="79" y="722"/>
      <point x="193" y="722"/>
      <point x="80" y="722" type="curve"/>
      <point x="196" y="481"/>
      <point x="313" y="241"/>
      <point x="429" y="0" type="curve"/>
      <point x="543" y="0"/>
      <point x="429" y="0"/>
    </contour>
    <contour>
      <point x="429" y="722" type="curve"/>
      <point x="429" y="481"/>
      <point x="429" y="241"/>
      <point x="429" y="0" type="curve"/>
      <point x="541" y="0"/>
      <point x="429" y="0"/>
      <point x="541" y="0" type="curve"/>
      <point x="541" y="241"/>
      <point x="541" y="481"/>
      <point x="541" y="722" type="curve"/>
      <point x="429" y="722"/>
      <point x="541" y="722"/>
    </contour>
    <contour>
      <point x="192" y="0" type="curve"/>
      <point x="192" y="241"/>
      <point x="192" y="481"/>
      <point x="192" y="722" type="curve"/>
      <point x="80" y="722"/>
      <point x="192" y="722"/>
      <point x="80" y="722" type="curve"/>
      <point x="80" y="481"/>
      <point x="80" y="241"/>
      <point x="80" y="0" type="curve"/>
      <point x="192" y="0"/>
      <point x="80" y="0"/>
    </contour>
    <contour>
      <point x="400" y="968" type="curve"/>
      <point x="385" y="930"/>
      <point x="376" y="915"/>
      <point x="360" y="915" type="curve"/>
      <point x="335" y="915"/>
      <point x="325" y="925"/>
      <point x="309" y="941" type="curve"/>
      <point x="288" y="962"/>
      <point x="278" y="973"/>
      <point x="251" y="973" type="curve"/>
      <point x="188" y="973"/>
      <point x="163" y="905"/>
      <point x="147" y="844" type="curve"/>
      <point x="230" y="796"/>
      <point x="147" y="845"/>
      <point x="230" y="796" type="curve"/>
      <point x="247" y="839"/>
      <point x="258" y="853"/>
      <point x="280" y="853" type="curve"/>
      <point x="299" y="853"/>
      <point x="307" y="844"/>
      <point x="319" y="830" type="curve"/>
      <point x="343" y="805"/>
      <point x="357" y="791"/>
      <point x="389" y="791" type="curve"/>
      <point x="452" y="791"/>
      <point x="468" y="856"/>
      <point x="490" y="922" type="curve"/>
      <point x="400" y="968"/>
      <point x="490" y="921"/>
    </contour>
  </outline>
</glyph>
<glyph name="Otilde" format="1">
  <advance width="580"/>
  <unicode hex="00D5"/>
  <outline>
    <contour>
      <point x="157" y="360" type="curve" name="FullCurve"/>
      <point x="157" y="503"/>
      <point x="166" y="635"/>
      <point x="288" y="635" type="curve" name="FullCurve"/>
      <point x="404" y="635"/>
      <point x="423" y="505"/>
      <point x="423" y="363" type="curve" name="FullCurve"/>
      <point x="423" y="220"/>
      <point x="412" y="87"/>
      <point x="291" y="87" type="curve" name="FullCurve"/>
      <point x="173" y="87"/>
      <point x="157" y="216"/>
      <point x="157" y="360" type="curve" name="FullCurve"/>
      <point x="45" y="360"/>
      <point x="157" y="360"/>
      <point x="45" y="360" type="curve" name="FullCurve"/>
      <point x="45" y="159"/>
      <point x="111" y="-5"/>
      <point x="288" y="-5" type="curve" name="FullCurve"/>
      <point x="467" y="-5"/>
      <point x="535" y="160"/>
      <point x="535" y="363" type="curve" name="FullCurve"/>
      <point x="535" y="562"/>
      <point x="470" y="727"/>
      <point x="292" y="727" type="curve" name="FullCurve"/>
      <point x="114" y="727"/>
      <point x="45" y="562"/>
      <point x="45" y="360" type="curve" name="FullCurve"/>
      <point x="157" y="360"/>
      <point x="45" y="360"/>
    </contour>
    <contour>
      <point x="378" y="968" type="curve"/>
      <point x="362" y="930"/>
      <point x="353" y="915"/>
      <point x="337" y="915" type="curve"/>
      <point x="313" y="915"/>
      <point x="302" y="925"/>
      <point x="287" y="941" type="curve"/>
      <point x="266" y="962"/>
      <point x="255" y="973"/>
      <point x="229" y="973" type="curve"/>
      <point x="166" y="973"/>
      <point x="140" y="905"/>
      <point x="124" y="844" type="curve"/>
      <point x="207" y="796"/>
      <point x="124" y="845"/>
      <point x="207" y="796" type="curve"/>
      <point x="224" y="839"/>
      <point x="235" y="853"/>
      <point x="257" y="853" type="curve"/>
      <point x="277" y="853"/>
      <point x="285" y="844"/>
      <point x="297" y="830" type="curve"/>
      <point x="321" y="805"/>
      <point x="335" y="791"/>
      <point x="367" y="791" type="curve"/>
      <point x="429" y="791"/>
      <point x="445" y="856"/>
      <point x="467" y="922" type="curve"/>
      <point x="378" y="968"/>
      <point x="467" y="921"/>
    </contour>
  </outline>
</glyph>
<glyph name="Odieresis" format="1">
  <advance width="580"/>
  <unicode hex="00D6"/>
  <outline>
    <contour>
      <point x="157" y="360" type="curve" name="FullCurve"/>
      <point x="157" y="503"/>
      <point x="166" y="635"/>
      <point x="288" y="635" type="curve" name="FullCurve"/>
      <point x="404" y="635"/>
      <point x="423" y="505"/>
      <point x="423" y="363" type="curve" name="FullCurve"/>
      <point x="423" y="220"/>
      <point x="412" y="87"/>
      <point x="291" y="87" type="curve" name="FullCurve"/>
      <point x="173" y="87"/>
      <point x="157" y="216"/>
      <point x="157" y="360" type="curve" name="FullCurve"/>
      <point x="45" y="360"/>
      <point x="157" y="360"/>
      <point x="45" y="360" type="curve" name="FullCurve"/>
      <point x="45" y="159"/>
      <point x="111" y="-5"/>
      <point x="288" y="-5" type="curve" name="FullCurve"/>
      <point x="467" y="-5"/>
      <point x="535" y="160"/>
      <point x="535" y="363" type="curve" name="FullCurve"/>
      <point x="535" y="562"/>
      <point x="470" y="727"/>
      <point x="292" y="727" type="curve" name="FullCurve"/>
      <point x="114" y="727"/>
      <point x="45" y="562"/>
      <point x="45" y="360" type="curve" name="FullCurve"/>
      <point x="157" y="360"/>
      <point x="45" y="360"/>
    </contour>
    <contour>
      <point x="266" y="843" type="curve"/>
      <point x="266" y="881"/>
      <point x="242" y="901"/>
      <point x="208" y="901" type="curve"/>
      <point x="173" y="901"/>
      <point x="151" y="879"/>
      <point x="151" y="843" type="curve"/>
      <point x="267" y="843"/>
      <point x="150" y="843"/>
      <point x="266" y="843" type="curve"/>
      <point x="266" y="803"/>
      <point x="242" y="785"/>
      <point x="208" y="785" type="curve"/>
      <point x="172" y="785"/>
      <point x="151" y="805"/>
      <point x="151" y="843" type="curve"/>
      <point x="267" y="843"/>
      <point x="150" y="843"/>
    </contour>
    <contour>
      <point x="431" y="843" type="curve"/>
      <point x="431" y="881"/>
      <point x="406" y="901"/>
      <point x="372" y="901" type="curve"/>
      <point x="337" y="901"/>
      <point x="315" y="879"/>
      <point x="315" y="843" type="curve"/>
      <point x="432" y="843"/>
      <point x="314" y="843"/>
      <point x="431" y="843" type="curve"/>
      <point x="431" y="803"/>
      <point x="407" y="785"/>
      <point x="372" y="785" type="curve"/>
      <point x="337" y="785"/>
      <point x="315" y="805"/>
      <point x="315" y="843" type="curve"/>
      <point x="432" y="843"/>
      <point x="314" y="843"/>
    </contour>
  </outline>
</glyph>
<glyph name="multiply" format="1">
  <advance width="564"/>
  <unicode hex="00D7"/>
  <outline>
    <contour>
      <point x="110" y="65" type="line"/>
      <point x="519" y="492" type="line"/>
      <point x="455" y="556" type="line"/>
      <point x="45" y="129" type="line"/>
    </contour>
    <contour>
      <point x="519" y="126" type="line"/>
      <point x="110" y="553" type="line"/>
      <point x="45" y="489" type="line"/>
      <point x="455" y="62" type="line"/>
    </contour>
  </outline>
</glyph>
